SplineFontDB: 3.0
FontName: Kinnari
FullName: Kinnari
FamilyName: Kinnari
Weight: Medium
Copyright: Copyright (C) 1999 Db Type. All Rights Reserved.\nCopyright (C) 2007 National Electronics and Computer Technology Center. All Rights Reserved.
Version: 001.006: 2009-07-22
ItalicAngle: 0
UnderlinePosition: -70
UnderlineWidth: 25
Ascent: 800
Descent: 200
LayerCount: 2
Layer: 0 0 "Back"  1
Layer: 1 0 "Fore"  0
NeedsXUIDChange: 1
FSType: 0
OS2Version: 0
OS2_WeightWidthSlopeOnly: 0
OS2_UseTypoMetrics: 0
CreationTime: 1136287438
ModificationTime: 1248255300
PfmFamily: 17
TTFWeight: 500
TTFWidth: 5
LineGap: 0
VLineGap: 0
Panose: 0 0 0 0 0 0 0 0 0 0
OS2TypoAscent: 0
OS2TypoAOffset: 1
OS2TypoDescent: 0
OS2TypoDOffset: 1
OS2TypoLinegap: 0
OS2WinAscent: 1286
OS2WinAOffset: 0
OS2WinDescent: 496
OS2WinDOffset: 0
HheadAscent: 1286
HheadAOffset: 0
HheadDescent: -496
HheadDOffset: 0
OS2Vendor: 'PfEd'
Lookup: 4 0 1 "'liga' Standard Ligatures in Latin lookup 3"  {"'liga' Standard Ligatures in Latin lookup 3 subtable"  } ['liga' ('latn' <'dflt' > ) ]
Lookup: 6 0 0 "'ccmp' Thai General Composition"  {"'ccmp' Thai Below Vowel Tone Reordering"  "'ccmp' Thai General Composition"  } ['ccmp' ('DFLT' <'dflt' > 'thai' <'KUY ' 'PAL ' 'THA ' 'dflt' > ) ]
Lookup: 6 0 0 "'ccmp' Thai Conditional Descender Removal"  {"'ccmp' Thai Conditional Descender Removal"  } ['ccmp' ('DFLT' <'dflt' > 'thai' <'KUY ' 'PAL ' 'THA ' 'dflt' > ) ]
Lookup: 5 0 0 "Required Thai Descender Removal"  {"Required Thai Descender Removal"  } [' RQD' ('thai' <'PAL ' > ) ]
Lookup: 1 0 0 "Thai Descender Removal Single Substitution"  {"Thai Descender Removal Single Substitution" ("descless" ) } []
Lookup: 2 0 0 "Thai Sara Am Decomposition"  {"Thai Sara Am Decomposition"  } []
Lookup: 2 0 0 "Thai Tone Nikhahit Attachment"  {"Thai Tone Nikhahit Attachment"  } []
Lookup: 1 0 0 "Thai Sara Am Lakkhang"  {"Thai Sara Am Lakkhang"  } []
Lookup: 1 0 0 "Thai Tone Low Variant"  {"Thai Tone Low Variant" ("low" ) } []

StartChar: exclam
Encoding: 33 33 1
Width: 333
Flags: W
HStem: -14 115<122.232 211.311> 656 20G<145.5 190.5>
VStem: 109 115<-0.461563 88.1605> 114 106<490.696 663.891>
LayerCount: 2
Fore
SplineSet
220 596 m 0xd0
 220 579 218 562 217 547 c 2
 174 177 l 1
 160 177 l 1
 117 547 l 2
 117 562 114 579 114 596 c 0
 114 628 124 676 167 676 c 0
 214 676 220 628 220 596 c 0xd0
224 41 m 0xe0
 224 9 197 -14 166 -14 c 0
 138 -14 109 11 109 41 c 0
 109 74 134 101 167 101 c 0
 200 101 224 74 224 41 c 0xe0
EndSplineSet
EndChar

StartChar: numbersign
Encoding: 35 35 3
Width: 499
Flags: W
HStem: 0 21G<78 139.949 272 332.857> 217 53<5 111 178 303 370 470> 404 55<31 141 207 332 398 495> 642 20G<176.946 238 366.946 427>
VStem: 78 59<0 59> 180 58<604 662> 272 58<0 58> 370 57<605 662>
DStem2: 78 0 137 0 0.152282 0.988337<8.98461 219.494 282.079 408.882 473.291 669.812> 272 0 330 0 0.14644 0.989219<8.49354 219.2 281.44 408.431 472.503 669.214>
LayerCount: 2
Fore
SplineSet
495 404 m 1
 390 404 l 1
 370 270 l 1
 470 270 l 1
 470 217 l 1
 361 217 l 1
 330 0 l 1
 272 0 l 1
 303 217 l 1
 169 217 l 1
 137 0 l 1
 78 0 l 1
 111 217 l 1
 5 217 l 1
 5 270 l 1
 120 270 l 1
 141 404 l 1
 31 404 l 1
 31 459 l 1
 149 459 l 1
 180 662 l 1
 238 662 l 1
 207 459 l 1
 339 459 l 1
 370 662 l 1
 427 662 l 1
 398 459 l 1
 495 459 l 1
 495 404 l 1
332 404 m 1
 200 404 l 1
 178 270 l 1
 312 270 l 1
 332 404 l 1
EndSplineSet
EndChar

StartChar: dollar
Encoding: 36 36 4
Width: 499
Flags: W
HStem: 0 28<160.603 230 264 310.922> 636 26<189.345 230 264 317.303>
VStem: 45 15<151.736 181> 52 75<472.676 584.909> 230 34<-88 0 28 293 407 636 662 727> 378 78<92.7873 219.482> 410 14<499 526.789>
LayerCount: 2
Fore
SplineSet
456 178 m 0xcc
 456 65 367 8 264 0 c 1
 264 -88 l 1
 230 -88 l 1
 230 0 l 1
 164 0 100 17 45 51 c 1
 45 181 l 1
 60 181 l 1xec
 75 88 132 29 230 28 c 1
 230 310 l 1
 154 353 52 407 52 508 c 0
 52 610 140 659 230 662 c 1
 230 727 l 1
 264 727 l 1
 264 662 l 1
 321 660 379 645 424 610 c 1
 424 499 l 1
 410 499 l 1xda
 398 576 343 631 264 636 c 1
 264 390 l 1
 352 343 456 296 456 178 c 0xcc
230 407 m 1
 230 636 l 1
 197 636 127 596 127 533 c 0xd8
 127 467 184 441 230 407 c 1
378 152 m 0xcc
 378 223 319 263 264 293 c 1
 264 28 l 1
 333 37 378 81 378 152 c 0xcc
EndSplineSet
EndChar

StartChar: percent
Encoding: 37 37 5
Width: 832
Flags: W
HStem: -14 31<544.446 635.237> 287 36<152.887 241.132> 324 32<632.881 717.734> 585 22<376.36 501.729> 633 29<249.241 309.143> 656 20G<569 633>
VStem: 61 76<335.383 501.303> 201 48<-14 34> 358 26<472.069 592.506> 449 76<30.8689 184.911> 745 26<171.803 289.268>
DStem2: 201 -14 249 -14 0.486288 0.873799<23.3418 714.965 731.996 789.656>
LayerCount: 2
Fore
SplineSet
276 662 m 0xfbe0
 361 662 336 607 436 607 c 0
 496 607 553 633 585 676 c 1
 633 676 l 1xf7e0
 249 -14 l 1
 201 -14 l 1
 550 610 l 1
 511 594 466 585 429 585 c 0
 408 585 390 588 376 593 c 1
 376 578 384 556 384 539 c 0
 384 404 267 287 180 287 c 0
 103 287 61 338 61 424 c 0
 61 531 164 662 276 662 c 0xfbe0
771 247 m 0
 771 91 662 -14 576 -14 c 0
 473 -14 449 48 449 123 c 0
 449 230 553 356 665 356 c 0
 733 356 771 300 771 247 c 0
358 553 m 0
 358 570 353 584 350 599 c 1
 312 610 298 633 281 633 c 0xfbe0
 244 633 137 533 137 396 c 0
 137 353 151 323 200 323 c 0
 296 332 358 456 358 553 c 0
676 324 m 0
 585 324 525 152 525 87 c 0
 525 44 544 17 587 17 c 0
 680 17 745 161 745 241 c 0
 745 281 722 324 676 324 c 0
EndSplineSet
EndChar

StartChar: ampersand
Encoding: 38 38 6
Width: 777
Flags: W
HStem: -14 72<568.086 671.44> -14 54<198.553 322.092> 407 18<495 535.537 672.702 710> 644 32<310.758 403.609>
VStem: 43 91<103.53 224.326> 203 78<458.343 599.795> 438 52<493.365 616.123>
LayerCount: 2
Fore
SplineSet
750 100 m 1xbe
 702 26 667 -14 599 -14 c 0xbe
 530 -14 475 31 429 78 c 1
 373 25 298 -14 220 -14 c 0x7e
 108 -14 43 43 43 144 c 0
 43 258 163 339 237 376 c 1
 220 422 203 468 203 516 c 0
 203 604 266 676 355 676 c 0
 427 676 490 633 490 556 c 0
 490 467 409 415 336 384 c 1
 373 312 416 243 467 178 c 1
 502 220 559 303 559 358 c 0
 559 387 544 404 495 407 c 1
 495 425 l 1
 710 425 l 1
 710 407 l 1
 647 399 631 373 604 323 c 0
 567 257 510 174 493 147 c 1
 533 101 579 58 644 58 c 0
 684 58 713 80 734 111 c 1
 750 100 l 1xbe
438 559 m 0
 438 604 404 644 359 644 c 0
 300 644 281 599 281 548 c 0
 281 510 304 450 321 416 c 1
 376 442 438 493 438 559 c 0
404 104 m 1
 344 177 296 260 252 343 c 1
 184 301 134 257 134 172 c 0
 134 104 195 40 263 40 c 0x7e
 304 40 362 68 404 104 c 1
EndSplineSet
EndChar

StartChar: quotesingle
Encoding: 39 39 7
Width: 179
Flags: W
VStem: 47 87<641.094 677.707> 80 20<444 484.559>
LayerCount: 2
Fore
SplineSet
134 641 m 2x80
 100 444 l 1
 80 444 l 1x40
 48 641 l 2
 48 643 47 645 47 647 c 0
 47 666 68 684 91 684 c 0
 114 684 137 662 134 641 c 2x80
EndSplineSet
EndChar

StartChar: parenleft
Encoding: 40 40 8
Width: 333
Flags: W
HStem: 656 20G<216.5 304>
VStem: 49 85<113.795 400.963>
LayerCount: 2
Fore
SplineSet
304 -161 m 1
 292 -177 l 1
 163 -91 49 48 49 260 c 0
 49 433 138 579 295 676 c 1
 304 659 l 1
 170 567 134 424 134 269 c 0
 134 104 154 -41 304 -161 c 1
EndSplineSet
EndChar

StartChar: parenright
Encoding: 41 41 9
Width: 333
Flags: W
HStem: 656 20G<29 61>
VStem: 200 84<97.7698 378.796>
LayerCount: 2
Fore
SplineSet
284 232 m 0
 284 60 184 -91 38 -177 c 1
 29 -161 l 1
 164 -68 200 74 200 229 c 0
 200 396 177 556 29 659 c 1
 41 676 l 1
 81 656 284 513 284 232 c 0
EndSplineSet
EndChar

StartChar: asterisk
Encoding: 42 42 10
Width: 499
Flags: W
HStem: 346 73<352.953 427.861> 351 81<71.1472 137.737> 502 79<373.33 430.488> 522 74<71.9427 144.344> 663 20G<240.5 263.5>
VStem: 68 84<536.944 587.867> 205 73<269.276 374.713> 213 78<577.108 678.573> 346 85<353.65 403.469>
LayerCount: 2
Fore
SplineSet
401 581 m 0x2d80
 422 581 437 567 437 546 c 0
 437 518 413 502 382 502 c 0
 353 502 322 486 266 467 c 1
 313 442 359 427 404 419 c 0
 418 417 431 400 431 382 c 0
 431 360 410 346 393 346 c 0xad80
 372 346 351 363 346 378 c 0
 338 398 293 430 257 458 c 1
 256 450 256 442 256 434 c 0
 256 363 278 316 278 301 c 0
 278 285 265 265 244 265 c 0
 231 265 205 274 205 309 c 0
 205 321 208 334 214 341 c 0
 227 358 233 412 241 458 c 1
 136 394 137 351 102 351 c 0
 81 351 64 366 64 388 c 0
 64 416 91 432 120 432 c 0
 142 432 169 440 232 470 c 1
 184 499 138 513 94 522 c 0
 80 524 68 541 68 558 c 0
 68 577 84 596 105 596 c 0x5e80
 126 596 147 578 152 564 c 0
 160 544 204 511 241 482 c 1
 241 584 213 629 213 645 c 0
 213 662 229 683 252 683 c 0
 275 683 291 663 291 638 c 0
 291 626 287 614 281 607 c 0
 267 590 263 536 258 482 c 1
 310 505 344 539 373 573 c 1
 380 578 390 581 401 581 c 0x2d80
EndSplineSet
EndChar

StartChar: plus
Encoding: 43 43 11
Width: 563
Flags: W
HStem: 238 65<31 250 313 533>
VStem: 250 63<17 238 303 521>
LayerCount: 2
Fore
SplineSet
533 238 m 1
 313 238 l 1
 313 17 l 1
 250 17 l 1
 250 238 l 1
 31 238 l 1
 31 303 l 1
 250 303 l 1
 250 521 l 1
 313 521 l 1
 313 303 l 1
 533 303 l 1
 533 238 l 1
EndSplineSet
EndChar

StartChar: comma
Encoding: 44 44 12
Width: 250
Flags: W
HStem: 5 121<84.374 147.074>
VStem: 147 53<-52.4531 42.5>
LayerCount: 2
Fore
SplineSet
111 -3 m 0
 72 -3 43 21 43 58 c 0
 43 100 68 126 111 126 c 0
 174 126 200 68 200 17 c 0
 200 -48 135 -118 74 -146 c 1
 60 -118 l 1
 100 -100 147 -41 147 -6 c 0
 147 0 149 5 143 5 c 0
 136 5 128 -3 111 -3 c 0
EndSplineSet
EndChar

StartChar: hyphen
Encoding: 45 45 13
Width: 333
Flags: W
HStem: 238 63<43 289>
LayerCount: 2
Fore
SplineSet
289 238 m 1
 43 238 l 1
 43 301 l 1
 289 301 l 1
 289 238 l 1
EndSplineSet
EndChar

StartChar: period
Encoding: 46 46 14
Width: 250
Flags: W
HStem: -12 144<75 177>
VStem: 54 144<9 111>
LayerCount: 2
Fore
SplineSet
54 60 m 0
 54 100 86 132 126 132 c 0
 166 132 198 100 198 60 c 0
 198 20 166 -12 126 -12 c 0
 86 -12 54 20 54 60 c 0
EndSplineSet
EndChar

StartChar: slash
Encoding: 47 47 15
Width: 278
Flags: W
HStem: 662 20G<233.62 303>
VStem: -12 63<-108 -45> 240 63<619 682>
DStem2: -12 -108 51 -108 0.3039 0.952704<19.1457 829.219>
LayerCount: 2
Fore
SplineSet
303 682 m 1
 51 -108 l 1
 -12 -108 l 1
 240 682 l 1
 303 682 l 1
EndSplineSet
EndChar

StartChar: zero
Encoding: 48 48 16
Width: 537
Flags: W
HStem: -14 28<221.762 316.986> 650 26<226.834 313.958>
VStem: 41 97<172.445 488.429> 396 97<175.906 490.672>
LayerCount: 2
Fore
SplineSet
493 327 m 0
 493 190 439 -14 261 -14 c 0
 120 -14 41 138 41 333 c 0
 41 476 94 676 266 676 c 0
 416 676 493 524 493 327 c 0
396 326 m 0
 396 504 367 650 272 650 c 0
 160 650 138 481 138 313 c 0
 138 164 161 14 269 14 c 0
 382 14 396 172 396 326 c 0
EndSplineSet
EndChar

StartChar: one
Encoding: 49 49 17
Width: 537
Flags: W
HStem: 0 14<141 191.754 364.246 415> 656 20G<282.031 321>
VStem: 235 86<29.5143 585.927>
LayerCount: 2
Fore
SplineSet
415 0 m 1
 141 0 l 1
 141 14 l 1
 221 18 235 37 235 80 c 2
 235 528 l 2
 235 607 204 593 132 565 c 1
 132 579 l 1
 321 676 l 1
 321 80 l 2
 321 37 335 18 415 14 c 1
 415 0 l 1
EndSplineSet
EndChar

StartChar: two
Encoding: 50 50 18
Width: 537
Flags: W
HStem: 0 77<151 442> 604 72<172.716 299.749>
VStem: 54 21<477 494.822> 361 86<398.838 540.8>
DStem2: 54 14 151 77 0.688535 0.725203<112.476 383.121>
LayerCount: 2
Fore
SplineSet
498 137 m 1
 442 0 l 1
 54 0 l 1
 54 14 l 1
 223 192 l 2
 287 261 361 358 361 459 c 0
 361 547 306 604 218 604 c 0
 140 604 100 539 75 473 c 1
 54 479 l 1
 74 593 147 676 269 676 c 0
 367 676 447 599 447 501 c 0
 447 407 401 339 310 243 c 1
 151 77 l 1
 364 77 l 2
 438 77 445 80 485 143 c 1
 498 137 l 1
EndSplineSet
EndChar

StartChar: three
Encoding: 51 51 19
Width: 537
Flags: W
HStem: -14 36<163.5 291.021> 330 14<177 190.433> 616 60<174.399 300.855>
VStem: 68 15<513.667 520.658> 341 78<467.91 576.461> 382 71<118.819 259.591>
LayerCount: 2
Fore
SplineSet
453 214 m 0xf4
 453 63 319 -14 183 -14 c 0
 144 -14 68 -11 68 43 c 0
 68 65 84 77 104 77 c 0
 154 77 187 22 247 22 c 0
 330 22 382 88 382 167 c 0xf4
 382 280 323 330 177 330 c 1
 175 344 l 1
 250 367 341 413 341 510 c 0
 341 574 296 616 232 616 c 0
 166 616 120 579 83 511 c 1
 68 516 l 1
 100 616 169 676 264 676 c 0
 369 676 419 621 419 542 c 0xf8
 419 476 376 433 327 402 c 1
 412 367 453 312 453 214 c 0xf4
EndSplineSet
EndChar

StartChar: four
Encoding: 52 52 20
Width: 537
Flags: W
HStem: 0 21G<315 392> 167 63<74 315 392 493> 656 20G<332.009 392>
VStem: 315 77<0 167 230 570>
DStem2: 34 230 74 230 0.573216 0.819404<22.9286 439.671>
LayerCount: 2
Fore
SplineSet
493 167 m 1
 392 167 l 1
 392 0 l 1
 315 0 l 1
 315 167 l 1
 34 167 l 1
 34 230 l 1
 346 676 l 1
 392 676 l 1
 392 230 l 1
 493 230 l 1
 493 167 l 1
315 230 m 1
 315 570 l 1
 74 230 l 1
 315 230 l 1
EndSplineSet
EndChar

StartChar: five
Encoding: 53 53 21
Width: 537
Flags: W
HStem: -14 36<160 284.405> 582 80<204 413>
VStem: 379 70<127.188 285.418>
DStem2: 88 424 163 498 0.416392 0.909185<98.5091 191.953>
LayerCount: 2
Fore
SplineSet
461 680 m 1
 413 582 l 1
 204 582 l 1
 163 498 l 1
 321 472 449 427 449 227 c 0
 449 78 327 -14 180 -14 c 0
 140 -14 63 -11 55 40 c 0
 51 68 71 84 100 84 c 0
 163 84 186 22 240 22 c 0
 326 22 379 100 379 195 c 0
 379 352 226 404 100 412 c 0
 91 413 86 418 88 424 c 1
 197 662 l 1
 393 662 l 2
 424 662 432 662 452 687 c 1
 461 680 l 1
EndSplineSet
EndChar

StartChar: six
Encoding: 54 54 22
Width: 537
Flags: W
HStem: -14 28<244.487 343.845> 382 45<214.501 334.351> 664 18<430.924 468>
VStem: 58 93<144.447 351.598> 401 89<108.078 299.463>
LayerCount: 2
Fore
SplineSet
490 214 m 0
 490 94 413 -14 286 -14 c 0
 160 -14 58 91 58 273 c 0
 58 490 207 645 410 674 c 0
 427 676 442 682 468 682 c 1
 470 664 l 1
 439 656 409 653 375 636 c 0
 286 594 195 518 175 382 c 1
 214 410 257 427 304 427 c 0
 421 427 490 346 490 214 c 0
267 382 m 0
 233 382 197 370 170 350 c 1
 165 345 151 334 151 247 c 0
 151 114 203 14 301 14 c 0
 365 14 401 83 401 177 c 0
 401 265 374 382 267 382 c 0
EndSplineSet
EndChar

StartChar: seven
Encoding: 55 55 23
Width: 537
Flags: W
HStem: -14 21G<194 264.475> 587 75<105.455 393>
VStem: 194 64<-14 50>
DStem2: 194 -14 258 -14 0.308012 0.951383<19.7128 633.075>
LayerCount: 2
Fore
SplineSet
472 647 m 1
 258 -14 l 1
 194 -14 l 1
 393 587 l 1
 187 587 l 2
 114 587 98 568 60 507 c 1
 43 515 l 1
 103 662 l 1
 472 662 l 1
 472 647 l 1
EndSplineSet
EndChar

StartChar: eight
Encoding: 56 56 24
Width: 537
Flags: W
HStem: -14 25<224.567 331.91> 650 26<210.694 318.739>
VStem: 77 75<72.4789 228.695 491.262 585.055> 375 69<462.36 607.248> 389 76<74.7956 195.08>
LayerCount: 2
Fore
SplineSet
465 154 m 0xe8
 465 46 367 -14 266 -14 c 0
 167 -14 77 45 77 152 c 0
 77 237 146 287 206 332 c 1
 143 393 83 425 83 527 c 0
 83 596 151 676 273 676 c 0
 353 676 444 630 444 539 c 0xf0
 444 452 379 407 310 372 c 1
 381 316 465 255 465 154 c 0xe8
375 536 m 0
 375 604 330 650 264 650 c 0
 206 650 157 611 157 550 c 0
 157 478 227 424 281 390 c 1
 335 419 375 472 375 536 c 0
232 312 m 1
 232 312 152 256 152 163 c 0
 152 78 194 11 281 11 c 0
 347 11 389 60 389 126 c 0xe8
 389 214 295 267 232 312 c 1
EndSplineSet
EndChar

StartChar: nine
Encoding: 57 57 25
Width: 537
Flags: W
HStem: -23 20<83 122.004> 237 43<207.597 322.745> 650 26<209.753 303.58>
VStem: 54 92<353.583 546.684> 386 96.534<322.432 516.039>
LayerCount: 2
Fore
SplineSet
470 292 m 0
 439 186 353 63 232 12 c 0
 175 -12 114 -23 83 -23 c 1
 80 -3 l 1
 141 8 233 35 300 124 c 0
 336 174 367 233 382 292 c 1
 330 257 283 237 233 237 c 0
 126 237 54 316 54 447 c 0
 54 530 106 676 267 676 c 0
 356 676 427 611 456 531 c 0
 472.167 486.23 482.534 436.048 482.534 385.021 c 0
 482.534 353.984 478.699 322.634 470 292 c 0
386 413 m 0
 386 499 367 650 253 650 c 0
 166 650 146 545 146 476 c 0
 146 390 170 280 273 280 c 0
 306 280 362 303 382 330 c 1
 386 356 386 382 386 413 c 0
EndSplineSet
EndChar

StartChar: colon
Encoding: 58 58 26
Width: 278
Flags: W
HStem: -12 144<89 191> 324 144<89 191>
VStem: 68 144<9 111 345 447>
LayerCount: 2
Fore
SplineSet
68 396 m 0
 68 436 100 468 140 468 c 0
 180 468 212 436 212 396 c 0
 212 356 180 324 140 324 c 0
 100 324 68 356 68 396 c 0
68 60 m 0
 68 100 100 132 140 132 c 0
 180 132 212 100 212 60 c 0
 212 20 180 -12 140 -12 c 0
 100 -12 68 20 68 60 c 0
EndSplineSet
EndChar

StartChar: semicolon
Encoding: 59 59 27
Width: 278
Flags: W
HStem: 5 121<99.374 162.603> 324 144<76.375 178.5>
VStem: 55 145<345 447> 163 52<-57.941 50>
LayerCount: 2
Fore
SplineSet
126 -3 m 0xd0
 87 -3 58 22 58 58 c 0
 58 100 83 126 126 126 c 0
 195 126 215 77 215 23 c 0
 215 -60 161 -112 89 -146 c 1
 75 -118 l 1
 115 -100 163 -45 163 -6 c 0
 163 0 164 5 158 5 c 0
 152 5 143 -3 126 -3 c 0xd0
55 396 m 0xe0
 55 436 88 468 127 468 c 0
 167 468 200 436 200 396 c 0
 200 356 167 324 127 324 c 0
 88 324 55 356 55 396 c 0xe0
EndSplineSet
EndChar

StartChar: less
Encoding: 60 60 28
Width: 563
Flags: W
HStem: 0 63<473 536> 459 63<473 536>
VStem: 28 80<193 327>
DStem2: 28 287 108 261 0.907593 0.419851<61.6913 533.272> 108 261 28 233 0.908952 -0.416901<0 471.578>
LayerCount: 2
Fore
SplineSet
536 0 m 1
 28 233 l 1
 28 287 l 1
 536 522 l 1
 536 459 l 1
 108 261 l 1
 536 63 l 1
 536 0 l 1
EndSplineSet
EndChar

StartChar: equal
Encoding: 61 61 29
Width: 563
Flags: W
HStem: 132 65<31 533> 326 64<31 533>
LayerCount: 2
Fore
SplineSet
533 326 m 1
 31 326 l 1
 31 390 l 1
 533 390 l 1
 533 326 l 1
533 132 m 1
 31 132 l 1
 31 197 l 1
 533 197 l 1
 533 132 l 1
EndSplineSet
EndChar

StartChar: greater
Encoding: 62 62 30
Width: 563
Flags: W
HStem: 0 63<28 91> 459 63<28 91>
VStem: 455 81<192.5 327.5>
DStem2: 28 522 28 459 0.907593 -0.419851<26.4506 497.123> 28 63 28 0 0.908952 0.416901<0 470.669>
LayerCount: 2
Fore
SplineSet
536 233 m 1
 28 0 l 1
 28 63 l 1
 455 261 l 1
 28 459 l 1
 28 522 l 1
 536 287 l 1
 536 233 l 1
EndSplineSet
EndChar

StartChar: question
Encoding: 63 63 31
Width: 443
Flags: W
HStem: -14 115<172.308 258.944> 647 29<143.956 247.354>
VStem: 49 52<522 605.681> 158 115<0.061367 86.5087> 207 17<164 198.789> 303 92<436.472 593.361>
LayerCount: 2
Fore
SplineSet
101 586 m 0xec
 101 559 138 548 138 510 c 0
 138 485 120 470 94 470 c 0
 58 470 49 508 49 536 c 0
 49 625 135 676 217 676 c 0
 330 676 395 596 395 518 c 0
 395 453 356 402 319 355 c 2
 289 316 l 2
 253 270 233 223 224 164 c 1
 207 164 l 1
 207 319 303 386 303 516 c 0
 303 582 267 647 195 647 c 0
 161 647 101 626 101 586 c 0xec
273 43 m 0xf4
 273 11 244 -14 217 -14 c 0
 187 -14 158 12 158 43 c 0
 158 74 187 101 217 101 c 0
 244 101 273 75 273 43 c 0xf4
EndSplineSet
EndChar

StartChar: at
Encoding: 64 64 32
Width: 920
Flags: W
HStem: -155 40<367.401 625.776> 41 43<387.158 473.055 623.992 722.123> 427 46<472.537 566.932> 439 20G<611.102 702> 636 38<402.19 604.372>
VStem: 55 96<116.677 369.975> 280 92<97.0678 293.347> 828 40<231.298 431.278>
LayerCount: 2
Fore
SplineSet
868 330 m 0xdf
 868 172 760 40 659 40 c 0
 624 40 561 49 542 123 c 1
 508 72 444 41 401 41 c 0
 330 41 280 83 280 184 c 0
 280 330 396 473 510 473 c 0xef
 562 473 594 436 604 410 c 1
 616 459 l 1
 702 459 l 1
 621 144 l 2
 619 138 618 132 618 126 c 0
 618 98 641 83 667 83 c 0
 742 83 828 214 828 329 c 0
 828 513 660 636 501 636 c 0
 287 636 151 421 151 249 c 0
 151 98 210 -115 495 -115 c 0
 591 -115 707 -78 762 -23 c 1
 743 -88 l 1
 743 -88 650 -155 493 -155 c 0
 290 -155 55 -38 55 257 c 0
 55 424 195 674 501 674 c 0
 627 674 868 590 868 330 c 0xdf
582 344 m 0
 582 409 554 427 525 427 c 0
 472 427 372 341 372 175 c 0
 372 111 390 84 433 84 c 0
 468 84 511 127 522 147 c 0
 536 170 582 273 582 344 c 0
EndSplineSet
EndChar

StartChar: A
Encoding: 65 65 33
Width: 721
Flags: W
HStem: 0 20<15 46.4143 162.639 214 450 506.683 666.869 705> 217 40<217 447> 656 20G<338.577 375.694>
DStem2: 144 194 200 217 0.388142 0.921599<-120.934 42.9328 86.3952 382.773> 367 676 330 531 0.398666 -0.917096<118.228 416.157 458.422 631.09>
LayerCount: 2
Fore
SplineSet
705 0 m 1
 450 0 l 1
 450 20 l 1
 501 22 521 30 521 54 c 0
 521 71 512 95 496 131 c 2
 461 217 l 1
 200 217 l 1
 186 178 144 98 144 61 c 0
 144 28 180 20 214 20 c 1
 214 0 l 1
 15 0 l 1
 15 20 l 1
 77 25 103 97 144 194 c 2
 347 676 l 1
 367 676 l 1
 610 117 l 2
 641.68 44.1222 661 20 705 20 c 1
 705 0 l 1
447 257 m 1
 330 531 l 1
 217 257 l 1
 447 257 l 1
EndSplineSet
EndChar

StartChar: B
Encoding: 66 66 34
Width: 666
Flags: W
HStem: 0 37<226.935 404.517> 0 20<20 82.4796> 326 40<218 393.494> 622 40<219.129 392.75> 642 20<20 82.4796>
VStem: 117 101<45.9121 326 366 619.177> 459 103<417.581 566.139> 481 115<99.0285 256.631>
LayerCount: 2
Fore
SplineSet
596 183 m 0x35
 596 63 492 0 335 0 c 2xb5
 20 0 l 1
 20 20 l 1
 101 20 117 51 117 80 c 2
 117 582 l 2
 117 610 101 642 20 642 c 1
 20 662 l 1x6d
 287 662 l 2
 442 662 562 621 562 493 c 0x36
 562 409 505 366 429 347 c 1
 515 330 596 278 596 183 c 0x35
459 490 m 0x36
 459 616.335 345 622 271 622 c 0
 233 622 218 616 218 593 c 2
 218 366 l 1
 300 366 l 2
 401 366 459 409 459 490 c 0x36
481 184 m 0xa5
 481 304 362 326 267 326 c 2
 218 326 l 1
 218 91 l 2
 218 55 227 37 300 37 c 0
 404 37 481 68 481 184 c 0xa5
EndSplineSet
EndChar

StartChar: C
Encoding: 67 67 35
Width: 666
Flags: W
HStem: -14 45<290.403 488.89> 450 21G<586 624> 634 42<284.64 478.201>
VStem: 34 115<199.765 452.917> 601 23<450 484.492>
LayerCount: 2
Fore
SplineSet
636 111 m 1
 576 37 473 -14 376 -14 c 0
 183 -14 34 111 34 330 c 0
 34 528 174 676 375 676 c 0
 466 676 519 639 554 639 c 0
 571 639 584 647 594 674 c 1
 616 674 l 1
 624 450 l 1
 601 450 l 1
 571 559 499 634 384 634 c 0
 220 634 149 502 149 323 c 0
 149 183 223 31 386 31 c 0
 484 31 550 63 619 131 c 1
 636 111 l 1
EndSplineSet
EndChar

StartChar: D
Encoding: 68 68 36
Width: 721
Flags: W
HStem: 0 40<218.947 401.477> 0 20<20 76.9114> 624 38<213.35 389.997> 642 20<20 76.9114>
VStem: 108 102<48.2715 621.412> 579 109<207.416 450.404>
LayerCount: 2
Fore
SplineSet
688 329 m 0x2c
 688 126 553 0 286 0 c 2xac
 20 0 l 1
 20 20 l 1
 94 20 108 51 108 80 c 2
 108 582 l 2
 108 610 94 642 20 642 c 1
 20 662 l 1x5c
 278 662 l 2
 533 662 688 553 688 329 c 0x2c
210 91 m 2
 210 38 259 40 281 40 c 0
 471 40 579 150 579 327 c 0
 579 524 452 624 267 624 c 0
 220 624 210 622 210 573 c 2
 210 91 l 2
EndSplineSet
EndChar

StartChar: E
Encoding: 69 69 37
Width: 609
Flags: W
HStem: 0 41<205.107 480.661> 0 20<12 68.0232> 326 41<203 430.125> 621 41<207.471 472.553> 642 20<12 68.0232>
VStem: 100 103<41.2993 326 367 616.87> 467 20<229 277.062 414.25 462> 521 21<519 550.812> 568 28<142.711 169>
LayerCount: 2
Fore
SplineSet
596 169 m 1xb780
 551 0 l 1
 12 0 l 1
 12 20 l 1
 84 20 100 51 100 80 c 2
 100 582 l 2
 100 610 84 642 12 642 c 1
 12 662 l 1
 542 662 l 1x6f80
 542 519 l 1
 521 519 l 1
 510 573 476 621 407 621 c 2
 246 621 l 2
 221 621 203 607 203 582 c 2
 203 367 l 1
 343 367 l 2
 410 367 467 384 467 462 c 1
 487 462 l 1
 487 229 l 1
 467 229 l 1
 467 307 410 326 343 326 c 2
 203 326 l 1
 203 80 l 2
 203 63 207 41 227 41 c 2
 359 41 l 2
 439 41 516 43 568 169 c 1
 596 169 l 1xb780
EndSplineSet
EndChar

StartChar: F
Encoding: 70 70 38
Width: 556
Flags: W
HStem: 0 20<12 68.0232 234.371 292> 326 41<203 421> 621 41<205.661 485.17> 642 20<12 68.0232>
VStem: 100 103<36.0248 326 367 618.032> 458 21<229 277.062 414.25 462> 519 25<519 568.889>
LayerCount: 2
Fore
SplineSet
544 519 m 1xde
 519 519 l 1
 507 628 447 621 376 621 c 2
 244 621 l 2xee
 210 621 203 605 203 582 c 2
 203 367 l 1
 333 367 l 2
 401 367 458 384 458 462 c 1
 479 462 l 1
 479 229 l 1
 458 229 l 1
 458 307 401 326 333 326 c 2
 203 326 l 1
 203 80 l 2
 203 51 217 20 292 20 c 1
 292 0 l 1
 12 0 l 1
 12 20 l 1
 84 20 100 51 100 80 c 2
 100 582 l 2
 100 610 84 642 12 642 c 1
 12 662 l 1
 544 662 l 1
 544 519 l 1xde
EndSplineSet
EndChar

StartChar: G
Encoding: 71 71 39
Width: 721
Flags: W
HStem: -14 42<295.458 505.515> 336 20<449 505.514 658.405 703> 636 40<286.636 476.274>
VStem: 28 115<202.569 450.967> 536 97<53.9809 321.769> 594 22<655.216 676> 602 22<464 488.099>
LayerCount: 2
Fore
SplineSet
703 336 m 1xf8
 639 336 633 304 633 247 c 2
 633 57 l 1xf8
 576 25 464 -14 382 -14 c 0
 212 -14 28 94 28 329 c 0
 28 527 170 676 370 676 c 0
 451 676 513 643 552 643 c 0
 572 643 586 651 594 676 c 1
 616 676 l 1xf4
 624 464 l 1
 602 464 l 1xf2
 564 570 498 636 379 636 c 0
 214 636 143 496 143 321 c 0
 143 167 227 28 395 28 c 0
 432 28 473 34 507 49 c 0
 536 63 536 69 536 98 c 2
 536 247 l 2
 536 304 531 336 449 336 c 1
 449 356 l 1
 703 356 l 1
 703 336 l 1xf8
EndSplineSet
EndChar

StartChar: H
Encoding: 72 72 40
Width: 721
Flags: W
HStem: 0 20<20 76.9114 241.089 298 424 481.185 645.977 702> 318 41<210 513> 642 20<20 76.9114 241.089 298 424 481.185 645.977 702>
VStem: 108 102<35.0374 318 359 626.64> 513 101<36.0248 318 359 625.638>
LayerCount: 2
Fore
SplineSet
702 0 m 1
 424 0 l 1
 424 20 l 1
 498 20 513 51 513 80 c 2
 513 318 l 1
 210 318 l 1
 210 80 l 2
 210 51 224 20 298 20 c 1
 298 0 l 1
 20 0 l 1
 20 20 l 1
 94 20 108 51 108 80 c 2
 108 582 l 2
 108 610 94 642 20 642 c 1
 17 662 l 1
 298 662 l 1
 298 642 l 1
 224 642 210 610 210 582 c 2
 210 359 l 1
 513 359 l 1
 513 582 l 2
 513 610 498 642 424 642 c 1
 424 662 l 1
 702 662 l 1
 702 642 l 1
 630 642 614 610 614 582 c 2
 614 80 l 2
 614 51 630 20 702 20 c 1
 702 0 l 1
EndSplineSet
EndChar

StartChar: I
Encoding: 73 73 41
Width: 333
Flags: W
HStem: 0 20<18 81.9143 252.359 316> 642 20<18 81.9143 252.359 316>
VStem: 117 101<37.0357 624.614>
LayerCount: 2
Fore
SplineSet
316 0 m 1
 18 0 l 1
 18 20 l 1
 101 20 117 51 117 80 c 2
 117 582 l 2
 117 610 101 642 18 642 c 1
 18 662 l 1
 316 662 l 1
 316 642 l 1
 233 642 218 610 218 582 c 2
 218 80 l 2
 218 51 233 20 316 20 c 1
 316 0 l 1
EndSplineSet
EndChar

StartChar: J
Encoding: 74 74 42
Width: 388
Flags: W
HStem: -14 39<63.6306 161.661> 642 20<78 141.914 312.359 376>
VStem: 11 94<26.9482 99.5669> 177 101<82.375 624.614>
LayerCount: 2
Fore
SplineSet
105 80 m 0
 105 77 103 75 103 68 c 0
 103 48 117 25 135 25 c 0
 164 25 177 72 177 114 c 2
 177 582 l 2
 177 610 161 642 78 642 c 1
 78 662 l 1
 376 662 l 1
 376 642 l 1
 293 642 278 610 278 582 c 2
 278 198 l 2
 278 57 204 -14 112 -14 c 0
 18 -14 11 49 11 60 c 0
 11 83 31 108 58 108 c 0
 85 108 105 90 105 80 c 0
EndSplineSet
EndChar

StartChar: K
Encoding: 75 75 43
Width: 721
Flags: W
HStem: 0 20<20 78.1753 244.381 303 404 466.51 659.734 708> 642 20<20 78.1753 244.663 304 399 456.264 602.823 660>
VStem: 111 101<36.0248 296 347 625.638>
DStem2: 319 376 238 316 0.68546 -0.728111<0 347.351>
LayerCount: 2
Fore
SplineSet
708 0 m 1
 404 0 l 1
 404 20 l 1
 457 20 475 29 475 44 c 0
 475 79 342 214 335 221 c 2
 238 316 l 1
 212 296 l 1
 212 80 l 2
 212 51 227 20 303 20 c 1
 303 0 l 1
 20 0 l 1
 20 20 l 1
 95 20 111 51 111 80 c 2
 111 582 l 2
 111 610 95 642 20 642 c 1
 20 662 l 1
 304 662 l 1
 304 642 l 1
 227 642 212 610 212 582 c 2
 212 347 l 1
 253 387 467 562 467 608 c 0
 467 645 424 641 399 642 c 1
 399 662 l 1
 660 662 l 1
 660 642 l 1
 587 642 548 604 499 556 c 2
 319 376 l 1
 544 137 l 2
 596 78 637 20 708 20 c 1
 708 0 l 1
EndSplineSet
EndChar

StartChar: L
Encoding: 76 76 44
Width: 609
Flags: W
HStem: 0 41<210.626 477.012> 0 20<12 68.0232> 642 20<12 68.0232 233.806 290>
VStem: 100 103<51.9729 625.638> 573 25<149.929 174>
LayerCount: 2
Fore
SplineSet
598 174 m 1xb8
 550 0 l 1
 12 0 l 1
 12 20 l 1x78
 84 20 100 51 100 80 c 2
 100 582 l 2
 100 610 84 642 12 642 c 1
 12 662 l 1
 290 662 l 1
 290 642 l 1
 217 642 203 610 203 582 c 2
 203 80 l 2
 203 52 240 41 303 41 c 0
 429 41 518 37 573 174 c 1
 598 174 l 1xb8
EndSplineSet
EndChar

StartChar: M
Encoding: 77 77 45
Width: 887
Flags: W
HStem: 0 20<20 82.4796 194.076 257 593 648.75 813.25 869> 642 20<22 83.0448 812.806 869>
VStem: 117 43<37.0357 545> 680 102<35.0374 568>
DStem2: 220 662 160 545 0.416942 -0.908933<81.3287 554.908> 450 157 424 0 0.410899 0.911681<0 469.208>
LayerCount: 2
Fore
SplineSet
869 0 m 1
 593 0 l 1
 593 20 l 1
 665 20 680 51 680 80 c 2
 680 568 l 1
 424 0 l 1
 410 0 l 1
 160 545 l 1
 160 80 l 2
 160 51 175 20 257 20 c 1
 257 0 l 1
 20 0 l 1
 20 20 l 1
 101 20 117 51 117 80 c 2
 117 582 l 2
 117 610 101 642 22 642 c 1
 22 662 l 1
 220 662 l 1
 450 157 l 1
 670 662 l 1
 869 662 l 1
 869 642 l 1
 796 642 782 610 782 582 c 2
 782 80 l 2
 782 51 797 20 869 20 c 1
 869 0 l 1
EndSplineSet
EndChar

StartChar: N
Encoding: 78 78 46
Width: 721
Flags: W
HStem: -14 21G<579.927 611> 0 20<12 74.9237 186.905 250> 642 20<12 64.7784 470 533.368 645.52 708>
VStem: 109 45<36.0248 536> 567 44<181 624.614>
DStem2: 183 662 101 598 0.628869 -0.777511<0 11.777 79.7292 615.469>
LayerCount: 2
Fore
SplineSet
708 642 m 1x78
 627 642 611 610 611 582 c 2
 611 -14 l 1
 596 -14 l 1xb8
 154 536 l 1
 154 80 l 2
 154 51 167 20 250 20 c 1
 250 0 l 1
 12 0 l 1
 12 20 l 1
 94 20 109 51 109 80 c 2
 109 587 l 1
 101 598 l 2
 71 633 61 642 12 642 c 1
 12 662 l 1
 183 662 l 1
 567 181 l 1
 567 582 l 2
 567 610 553 642 470 642 c 1
 470 662 l 1
 708 662 l 1
 708 642 l 1x78
EndSplineSet
EndChar

StartChar: O
Encoding: 79 79 47
Width: 721
Flags: W
HStem: -14 36<277.184 431.517> 639 37<280.065 442.731>
VStem: 34 113<204.636 461.707> 574 113<201.648 459.775>
LayerCount: 2
Fore
SplineSet
687 330 m 0
 687 138 561 -14 361 -14 c 0
 184 -14 34 120 34 330 c 0
 34 524.713 156.672 676 361 676 c 0
 584.848 676 687 496.85 687 330 c 0
574 330 m 0
 574 486 517 639 365 639 c 0
 277.8 639 147 593.55 147 330 c 0
 147 132 236 22 348 22 c 0
 485.044 22 574 136.548 574 330 c 0
EndSplineSet
EndChar

StartChar: P
Encoding: 80 80 48
Width: 556
Flags: W
HStem: 0 20<11 67.7406 232.977 289> 289 38<201 352.625> 624 38<202.298 349.936> 642 20<17 69.4363>
VStem: 100 101<36.0248 293 330 622.5> 433 109<394.877 556.185>
LayerCount: 2
Fore
SplineSet
542 487 m 0xec
 542 339 416 289 287 289 c 0
 260 289 230 290 201 293 c 1
 201 80 l 2
 201 51 217 20 289 20 c 1
 289 0 l 1
 11 0 l 1
 11 20 l 1
 84 20 100 51 100 80 c 2
 100 582 l 2
 100 610 84 642 17 642 c 1
 17 662 l 1xdc
 267 662 l 2
 422 662 542 605 542 487 c 0xec
433 479 m 0
 433 593 341 624 244 624 c 0xec
 203 624 201 619 201 579 c 2
 201 330 l 1
 217 330 233 327 250 327 c 0
 358 327 433 364 433 479 c 0
EndSplineSet
EndChar

StartChar: Q
Encoding: 81 81 49
Width: 721
Flags: W
HStem: -177 17<637.576 700> -8 31<424 436.368> 639 37<279.872 442.469>
VStem: 34 113<200.94 460.428> 574 113<204.664 459.941>
LayerCount: 2
Fore
SplineSet
700 -177 m 1
 527 -177 407 -147 323 -65 c 0
 304 -48 284 -20 267 -8 c 1
 257 3 243 8 233 9 c 0
 103 45 34 194 34 330 c 0
 34 525 157 676 361 676 c 0
 562 676 687 524 687 330 c 0
 687 138 556 -3 424 -8 c 1
 496 -100 581 -157 700 -160 c 1
 700 -177 l 1
574 330 m 0
 574 528 490 639 361 639 c 0
 224 637 147 530 147 330 c 0
 147 134 230 23 361 23 c 0
 499 23 574 147 574 330 c 0
EndSplineSet
EndChar

StartChar: R
Encoding: 82 82 50
Width: 666
Flags: W
HStem: 0 20<12 66.7593 230.806 287 611.848 653> 306 37<200 255> 624 38<202.818 362.19> 642 20<12 66.7593>
VStem: 97 103<35.0374 306 343 621.412> 433 109<411.143 563.885>
DStem2: 361 319 255 307 0.612692 -0.790322<0 332.988>
LayerCount: 2
Fore
SplineSet
653 0 m 1xec
 493 0 l 1
 255 307 l 1
 200 306 l 1
 200 80 l 2
 200 51 214 20 287 20 c 1
 287 0 l 1
 12 0 l 1
 12 20 l 1
 83 20 97 51 97 80 c 2
 97 582 l 2
 97 610 83 642 12 642 c 1
 12 662 l 1xdc
 276 662 l 2
 442 662 542 604 542 487 c 0
 542 381 455 332 361 319 c 1
 559 75 l 2
 585 43 608 23 653 20 c 1
 653 0 l 1xec
433 485 m 0
 433 584 362 624 273 624 c 0xec
 207 624 200 624 200 576 c 2
 200 343 l 1
 344 347 433 378 433 485 c 0
EndSplineSet
EndChar

StartChar: S
Encoding: 83 83 51
Width: 556
Flags: W
HStem: -14 39<190.977 339.033> 634 42<193.129 340.378>
VStem: 43 22<175.168 201> 71 86<486.031 590.9> 72 22<-14 12.3463> 389 101<87.3461 205.95> 444 24<462 496.379>
LayerCount: 2
Fore
SplineSet
389 136 m 0xec
 389 311 71 303 71 508 c 0
 71 607 151 676 247 676 c 0
 318 676 363 643 392 643 c 0
 407 643 417 651 425 676 c 1
 447 676 l 1
 468 462 l 1
 444 462 l 1
 421 556 355 634 263 634 c 0
 203 634 157 602 157 539 c 0xf2
 157 481 220 439 263 413 c 0
 399 332 490 289 490 169 c 0
 490 80 416 -14 280 -14 c 0
 211 -14 156 19 124 19 c 0
 108 19 97 11 94 -14 c 1
 72 -14 l 1
 43 201 l 1
 65 201 l 1
 97 108 166 25 272 25 c 0
 340 25 389 74 389 136 c 0xec
EndSplineSet
EndChar

StartChar: T
Encoding: 84 84 52
Width: 610
Flags: W
HStem: 0 19<166 219.235 392.754 444> 620 42<91.697 253 356 519.35>
VStem: 18 23<492 536.773> 253 103<36.1052 620> 570 23<492 537.107>
LayerCount: 2
Fore
SplineSet
253 620 m 1
 201 620 l 2
 88 620 64 601 41 492 c 1
 18 492 l 1
 23 662 l 1
 587 662 l 1
 593 492 l 1
 570 492 l 1
 546 602 524 620 410 620 c 2
 356 620 l 1
 356 80 l 2
 356 51 370 23 444 19 c 1
 444 0 l 1
 166 0 l 1
 166 19 l 1
 245 23 253 51 253 80 c 2
 253 620 l 1
EndSplineSet
EndChar

StartChar: U
Encoding: 85 85 53
Width: 721
Flags: W
HStem: -14 45<280.611 477.128> 642 20<17 72.7499 237.25 293 473 533.327 642.946 703>
VStem: 104 102<116.239 626.64> 567 43<122.344 624.614>
LayerCount: 2
Fore
SplineSet
703 642 m 1
 625 642 610 610 610 582 c 2
 610 267 l 2
 610 154 601 66 487 12 c 0
 456 -3 402 -14 359 -14 c 0
 178 -14 104 71 104 253 c 2
 104 582 l 2
 104 610 89 642 17 642 c 1
 17 662 l 1
 293 662 l 1
 293 642 l 1
 221 642 206 610 206 582 c 2
 206 246 l 2
 206 91 253 31 379 31 c 0
 565 31 567 172 567 267 c 2
 567 582 l 2
 567 610 551 642 473 642 c 1
 473 662 l 1
 703 662 l 1
 703 642 l 1
EndSplineSet
EndChar

StartChar: V
Encoding: 86 86 54
Width: 721
Flags: W
HStem: -14 21G<364.054 393.911> 642 20<20 58.0156 223.355 286 496 547.759 661.643 700>
DStem2: 257 487 131 527 0.408329 -0.912835<-125.959 356.792> 402 161 386 -14 0.367819 0.929897<0 467.336>
LayerCount: 2
Fore
SplineSet
700 642 m 1
 653 642 633 610 617 570 c 2
 386 -14 l 1
 373 -14 l 1
 131 527 l 2
 104 587 78 642 20 642 c 1
 20 662 l 1
 286 662 l 1
 286 642 l 1
 223 642 210 630 210 605 c 0
 210 584 247 507 257 487 c 2
 402 161 l 1
 544 516 l 2
 553 538 568 576 568 599 c 0
 568 637 524 642 496 642 c 1
 496 662 l 1
 700 662 l 1
 700 642 l 1
EndSplineSet
EndChar

StartChar: W
Encoding: 87 87 55
Width: 943
Flags: W
HStem: -14 21G<298.887 326.23 626.441 654.021> 642 20<9 46.5312 200.556 253 316 367.394 520.354 584 737 786.931 895.296 935>
DStem2: 204 553 152 419 0.335096 -0.942184<-50.778 389.868> 344 189 319 -14 0.33997 0.940436<0 253.573> 516 570 450 470 0.355353 -0.934732<-40.8595 70.0199 132.408 411.885> 665 186 647 -14 0.331214 0.943556<0 433.847>
LayerCount: 2
Fore
SplineSet
804 598 m 0
 804 640 765 641 737 642 c 1
 737 662 l 1
 935 662 l 1
 935 642 l 1
 873 639 861 596 852 570 c 2
 647 -14 l 1
 634 -14 l 1
 473 412 l 1
 319 -14 l 1
 306 -14 l 1
 152 419 l 2
 80 616 69 636 9 642 c 1
 9 662 l 1
 253 662 l 1
 253 642 l 1
 240 642 l 1
 207 637 189 637 189 602 c 0
 189 593 201 562 204 553 c 2
 344 189 l 1
 450 470 l 1
 435 513 419 556 399 596 c 0
 382 633 356 642 316 642 c 1
 316 662 l 1
 584 662 l 1
 584 642 l 1
 556 642 507 642 507 611 c 0
 507 596 515 576 516 570 c 1
 665 186 l 1
 786 513 l 2
 798 547 804 577 804 598 c 0
EndSplineSet
EndChar

StartChar: X
Encoding: 88 88 56
Width: 721
Flags: W
HStem: 0 20<12 52.4844 193.552 244 409 474.37 659.578 705> 642 20<25 70.2048 258.917 326 459 516.858 649.292 697>
DStem2: 164 143 229 149 0.631938 0.775019<-59.8611 222.192 337.515 592.259> 343 453 212 476 0.571888 -0.820332<-181.57 60.2123 133.887 412.322>
LayerCount: 2
Fore
SplineSet
705 0 m 1
 409 0 l 1
 409 20 l 1
 464 20 486 29 486 49 c 0
 486 71 457 116 427 158 c 2
 339 287 l 1
 229 149 l 2
 196 110 170 78 170 60 c 0
 170 39 195 20 244 20 c 1
 244 0 l 1
 12 0 l 1
 12 20 l 1
 69 20 112 77 164 143 c 2
 313 326 l 1
 212 476 l 2
 129 598 97 639 25 642 c 1
 25 662 l 1
 326 662 l 1
 326 642 l 1
 263 642 250 634 250 611 c 0
 250 581 324 478 343 453 c 2
 378 404 l 1
 482 533 l 2
 496 550 530 584 530 610 c 0
 530 642 481 642 459 642 c 1
 459 662 l 1
 697 662 l 1
 697 642 l 1
 625 642 570 576 541 539 c 2
 402 367 l 1
 587 103 l 2
 633 40 659 20 705 20 c 1
 705 0 l 1
EndSplineSet
EndChar

StartChar: Y
Encoding: 89 89 57
Width: 721
Flags: W
HStem: 0 20<214 279.793 451.934 518> 642 20<23 64.4019 238.859 303 484 543.916 668.43 702>
VStem: 315 101<37.0357 293>
DStem2: 255 559 190 476 0.553793 -0.832654<-58.8184 254.608> 396 347 416 303 0.549332 0.835604<0 305.339>
LayerCount: 2
Fore
SplineSet
553 610 m 0
 553 641 526 642 484 642 c 1
 484 662 l 1
 702 662 l 1
 702 642 l 1
 633 633 587 564 558 519 c 2
 416 303 l 1
 416 80 l 2
 416 51 432 20 518 20 c 1
 518 0 l 1
 214 0 l 1
 214 20 l 1
 300 20 315 51 315 80 c 2
 315 293 l 1
 190 476 l 2
 123 574 94 641 23 642 c 1
 23 662 l 1
 303 662 l 1
 303 642 l 1
 249 642 230 636 230 614 c 0
 230 593 243 576 255 559 c 2
 396 347 l 1
 533 562 l 2
 542 577 553 593 553 610 c 0
EndSplineSet
EndChar

StartChar: Z
Encoding: 90 90 58
Width: 609
Flags: W
HStem: 0 38<144 494.375> 624 38<123.808 445>
VStem: 573 23<143.485 177>
DStem2: 8 12 144 38 0.581112 0.813823<100.191 752.006>
LayerCount: 2
Fore
SplineSet
596 177 m 1
 573 0 l 1
 8 0 l 1
 8 12 l 1
 445 624 l 1
 237 624 l 2
 134 624 75 605 57 490 c 1
 31 490 l 1
 51 662 l 1
 579 662 l 1
 579 650 l 1
 144 38 l 1
 390 38 l 2
 499 38 544 66 573 177 c 1
 596 177 l 1
EndSplineSet
EndChar

StartChar: bracketleft
Encoding: 91 91 59
Width: 333
Flags: W
HStem: -157 26<175.537 300> 636 26<173.723 300>
VStem: 88 76<-125.346 631.207>
LayerCount: 2
Fore
SplineSet
300 -157 m 1
 88 -157 l 1
 88 662 l 1
 300 662 l 1
 300 636 l 1
 221 636 l 2
 175 636 164 625 164 581 c 2
 164 -68 l 2
 164 -120 177 -131 224 -131 c 2
 300 -131 l 1
 300 -157 l 1
EndSplineSet
EndChar

StartChar: backslash
Encoding: 92 92 60
Width: 278
Flags: W
HStem: 0 21G<278.091 361> 662 20G<-83 -0.0909088>
VStem: -83 72<610 682> 289 72<0 72>
DStem2: -11 682 -83 682 0.478852 -0.877896<0 742.38>
LayerCount: 2
Fore
SplineSet
361 0 m 1
 289 0 l 1
 -83 682 l 1
 -11 682 l 1
 361 0 l 1
EndSplineSet
EndChar

StartChar: bracketright
Encoding: 93 93 61
Width: 333
Flags: W
HStem: -157 26<34 158.5> 636 26<34 159.026>
VStem: 169 75<-125.023 632.247>
LayerCount: 2
Fore
SplineSet
244 -157 m 1
 34 -157 l 1
 34 -131 l 1
 103 -131 l 2
 163 -129 169 -121 169 -63 c 2
 169 556 l 2
 169 610 170 636 123 636 c 2
 34 636 l 1
 34 662 l 1
 244 662 l 1
 244 -157 l 1
EndSplineSet
EndChar

StartChar: asciicircum
Encoding: 94 94 62
Width: 468
Flags: W
HStem: 642 20G<193.667 276.333>
VStem: 14 72<257 329> 382 74<257 331>
LayerCount: 2
Fore
SplineSet
456 257 m 1
 382 257 l 1
 235 593 l 1
 86 257 l 1
 14 257 l 1
 203 662 l 1
 267 662 l 1
 456 257 l 1
EndSplineSet
EndChar

StartChar: underscore
Encoding: 95 95 63
Width: 499
Flags: W
HStem: -174 59<0 499>
LayerCount: 2
Fore
SplineSet
499 -174 m 1
 0 -174 l 1
 0 -115 l 1
 499 -115 l 1
 499 -174 l 1
EndSplineSet
EndChar

StartChar: grave
Encoding: 96 96 64
Width: 333
Flags: W
HStem: 657 20G<38 61.5>
LayerCount: 2
Fore
SplineSet
243 507 m 1
 203 507 l 1
 60 598 l 2
 43 607 17 624 17 641 c 0
 17 664 28 677 48 677 c 0
 75 677 88 661 104 645 c 2
 243 507 l 1
EndSplineSet
EndChar

StartChar: a
Encoding: 97 97 65
Width: 443
Flags: W
HStem: -11 57<113 211.72 333 407.137> 435 23<164.817 253.198>
VStem: 37 87<69.2281 164.07> 55 89<310.946 397.672> 283 84<73.3713 264 282.068 404.654>
LayerCount: 2
Fore
SplineSet
55 345 m 0xd8
 55 367 81 458 224 458 c 0
 335 458 367 410 367 287 c 2
 367 77 l 2
 367 57 375 46 390 46 c 0
 402 46 420 54 442 69 c 1
 442 43 l 1
 427 25 387 -11 359 -11 c 0
 307 -11 289 28 287 66 c 1
 243 25 186 -11 143 -11 c 0
 83 -11 37 37 37 95 c 0xe8
 37 215 198 257 283 290 c 1
 283 396 273 435 210 435 c 0
 190 435 155 425 144 407 c 1
 143 403 142 398 142 392 c 0
 142 381 144 366 144 349 c 0
 144 326 123 304 100 304 c 0
 69 304 55 322 55 345 c 0xd8
283 94 m 1
 283 264 l 1
 220 238 124 221 124 131 c 0
 124 88 147 49 195 49 c 0
 215 49 273 71 283 94 c 1
EndSplineSet
EndChar

StartChar: b
Encoding: 98 98 66
Width: 499
Flags: W
HStem: -11 34<187.138 319.581> 396 62<216.46 322.792> 619 18<9 43.6177> 662 20G<102.727 160>
VStem: 74 86<42.5938 369 378 618.004> 386 87<137.127 315.653>
LayerCount: 2
Fore
SplineSet
473 243 m 0
 473 112 379 -11 243 -11 c 0
 167 -11 74 24 74 54 c 2
 74 559 l 2
 74 614 67 619 37 619 c 2
 9 619 l 1
 9 637 l 1
 45 647 71 651 97 660 c 2
 160 682 l 1
 160 378 l 1
 187 430 243 458 301 458 c 0
 416 458 473 344 473 243 c 0
386 200 m 0
 386 280 359 396 258 396 c 0
 184 396 160 353 160 309 c 2
 160 70 l 2
 160 46 206 23 257 23 c 0
 356 23 386 117 386 200 c 0
EndSplineSet
EndChar

StartChar: c
Encoding: 99 99 67
Width: 443
Flags: W
HStem: -11 71<182.421 299.321> 429 29<177.815 280.74>
VStem: 25 78<152.861 326.462> 307 91<324.142 407.728>
LayerCount: 2
Fore
SplineSet
412 149 m 1
 370 63 315 -11 212 -11 c 0
 104 -11 25 91 25 214 c 0
 25 344 100 458 249 458 c 0
 306 458 393 427 398 359 c 0
 398 336 376 316 353 316 c 0
 330 316 307 338 307 359 c 0
 307 399 284 429 230 429 c 0
 144 429 103 338 103 255 c 0
 103 163 154 60 257 60 c 0
 323 60 364 106 398 157 c 1
 412 149 l 1
EndSplineSet
EndChar

StartChar: d
Encoding: 100 100 68
Width: 499
Flags: W
HStem: -11 49<183.308 286.404> 45 15<467.35 490> 427 31<184.576 291.255> 619 18<273 309.093> 662 20G<366.727 424>
VStem: 26 86<123.521 315.537> 339 85<66.2899 386.13 418 618.176>
LayerCount: 2
Fore
SplineSet
490 45 m 1
 442 31 392 12 339 -14 c 1
 339 60 l 1
 313 20 263 -11 212 -11 c 0
 88 -11 26 98 26 210 c 0
 26 327 108 458 237 458 c 0
 287 458 326 433 339 418 c 1
 339 559 l 2
 339 614 335 619 302 619 c 2
 273 619 l 1
 273 637 l 1
 310 647 336 651 361 660 c 2
 424 682 l 1
 424 91 l 2
 424 63 444 60 467 60 c 2
 490 60 l 1
 490 45 l 1
339 117 m 2
 339 300 l 2
 339 372 307 427 235 427 c 0
 152 427 112 333 112 241 c 0
 112 111 170 38 250 38 c 0
 307 38 339 83 339 117 c 2
EndSplineSet
EndChar

StartChar: e
Encoding: 101 101 69
Width: 443
Flags: W
HStem: -11 68<180.46 299.31> 276 31<94 300> 422 36<146.013 256.804>
VStem: 23 68<164.959 276 307 328.27>
LayerCount: 2
Fore
SplineSet
421 158 m 1
 390 68 312 -11 212 -11 c 0
 97 -11 23 95 23 214 c 0
 23 356 103 458 226 458 c 0
 333 458 399 379 402 276 c 1
 91 276 l 1
 92 181 140 57 253 57 c 0
 319 57 373 109 404 164 c 1
 421 158 l 1
300 307 m 1
 296 366 270 422 204 422 c 0
 134 422 103 370 94 307 c 1
 300 307 l 1
EndSplineSet
EndChar

StartChar: f
Encoding: 102 102 70
Width: 332
Flags: W
HStem: 0 15<20 68.6522 221.095 279> 417 33<20 102 186 308> 655 28<207.578 307>
VStem: 102 84<28.3135 417 450 583.351>
LayerCount: 2
Fore
SplineSet
340 580 m 0
 295 580 297 655 242 655 c 0
 204 655 185 624 185 565 c 2
 185 450 l 1
 308 450 l 1
 308 417 l 1
 186 417 l 1
 186 104 l 2
 186 29 197 18 279 15 c 1
 279 0 l 1
 20 0 l 1
 20 15 l 1
 91 19 102 31 102 104 c 2
 102 417 l 1
 20 417 l 1
 20 450 l 1
 102 450 l 1
 103 530 110 565 137 609 c 0
 163 656 216 683 277 683 c 0
 337 683 383 658 383 621 c 0
 383 598 364 580 340 580 c 0
EndSplineSet
EndChar

StartChar: g
Encoding: 103 103 71
Width: 499
Flags: W
HStem: -217 56<131.411 318.992> 147 27<209.375 296.405> 386 35<388.462 470> 430 28<184.073 269.35>
VStem: 28 70<-131.655 -67.659> 69 83<231.059 377.082> 74 59<39.5 103.47> 329 77<219.096 366.444> 433 28<-102.164 -37.6167>
LayerCount: 2
Fore
SplineSet
470 386 m 1xf580
 387 386 l 1
 401 356 406 323 406 300 c 0
 406 204 332 147 244 147 c 0
 227 147 210 151 190 154 c 1
 171 149 133 114 133 90 c 0xf380
 133 66 197 66 223 63 c 0
 356 57 461 68 461 -49 c 0
 461 -163 293 -217 200 -217 c 0
 84 -217 28 -154 28 -114 c 0xf980
 28 -74 74 -46 126 2 c 1
 104 11 74 25 74 54 c 0xf380
 74 94 123 134 163 163 c 1
 104 187 69 230 69 296 c 0
 69 395 149 458 244 458 c 0
 318 458 335 421 421 421 c 0
 435 421 451 422 470 424 c 1
 470 386 l 1xf580
329 272 m 0
 329 327 298 430 230 430 c 0
 170 430 152 384 152 335 c 0xf580
 152 272 174 174 255 174 c 0
 312 174 329 223 329 272 c 0
433 -68 m 0
 433 -17 364 -15 298 -14 c 0
 253 -14 194 -12 147 -3 c 1
 127 -25 98 -58 98 -91 c 0xf980
 98 -126 137 -161 240 -161 c 0
 358 -161 433 -124 433 -68 c 0
EndSplineSet
EndChar

StartChar: h
Encoding: 104 104 72
Width: 499
Flags: W
HStem: 0 14<9 40.6022 188.398 220 280 311.172 458.398 490> 404 54<222.615 320.532> 619 18<9 41.8169> 662 20G<99.7273 157>
VStem: 72 85<25.3027 366.875 378 617.807> 343 84<26.0904 380.526>
LayerCount: 2
Fore
SplineSet
490 0 m 1
 280 0 l 1
 280 14 l 1
 327 18 343 37 343 80 c 2
 343 287 l 2
 343 346 338 404 266 404 c 0
 210 404 186 376 157 344 c 1
 157 80 l 2
 157 37 172 18 220 14 c 1
 220 0 l 1
 9 0 l 1
 9 14 l 1
 57 18 72 37 72 80 c 2
 72 559 l 2
 72 612 66 619 35 619 c 2
 9 619 l 1
 9 637 l 1
 43 647 69 651 94 660 c 2
 157 682 l 1
 157 378 l 1
 190 422 241 458 301 458 c 0
 402 458 427 399 427 289 c 2
 427 80 l 2
 427 37 442 18 490 14 c 1
 490 0 l 1
EndSplineSet
EndChar

StartChar: i
Encoding: 105 105 73
Width: 278
Flags: W
HStem: 0 14<23 61.8496 219.943 260> 438 20G<123.741 183> 579 103<91.8978 174.604>
VStem: 83 101<588.456 672.485> 98 85<27.7473 396.54>
LayerCount: 2
Fore
SplineSet
184 630 m 0xf0
 184 602 161 579 134 579 c 0
 104 579 83 602 83 630 c 0
 83 659 104 682 134 682 c 0
 161 682 184 659 184 630 c 0xf0
260 0 m 1
 23 0 l 1
 23 14 l 1
 83 18 98 37 98 80 c 2
 98 323 l 2
 98 379 92 398 65 398 c 0
 55 398 41 395 23 390 c 1
 23 404 l 1
 183 458 l 1
 183 80 l 2xe8
 183 37 198 18 260 14 c 1
 260 0 l 1
EndSplineSet
EndChar

StartChar: j
Encoding: 106 106 74
Width: 278
Flags: W
HStem: -217 33<22.5 105.823> 438 20G<147.481 206> 579 103<120.396 202.544>
VStem: 111 101<588.456 672.485> 121 85<-118.082 392.635>
LayerCount: 2
Fore
SplineSet
212 630 m 0xf0
 212 602 189 579 161 579 c 0
 134 579 111 602 111 630 c 0
 111 659 134 682 161 682 c 0
 189 682 212 659 212 630 c 0xf0
-55 -158 m 0
 -55 -126 -26 -118 -13 -118 c 0
 25 -118 18 -156 69 -181 c 0
 74 -183 79 -184 83 -184 c 0
 113 -184 121 -129 121 -94 c 2
 121 343 l 2
 121 382 114 394 86 394 c 0
 76 394 64 392 48 390 c 1
 48 404 l 1
 206 458 l 1
 206 12 l 2xe8
 206 -140 147 -217 35 -217 c 0
 10 -217 -55 -205 -55 -158 c 0
EndSplineSet
EndChar

StartChar: k
Encoding: 107 107 75
Width: 499
Flags: W
HStem: 0 14<2 40.4198 197.976 237 283 312.485 468.666 499> 433 14<270 315.406 426.032 475> 619 18<11 46.4702> 662 20G<103.727 161>
VStem: 77 84<27.7473 247 263 618.538>
DStem2: 230 283 161 247 0.605186 -0.796084<-1.20618 252.81>
LayerCount: 2
Fore
SplineSet
499 0 m 1
 283 0 l 1
 283 14 l 1
 310 14 318 23 318 32 c 0
 318 39 314 46 310 51 c 2
 161 247 l 1
 161 80 l 2
 161 37 177 18 237 14 c 1
 237 0 l 1
 2 0 l 1
 2 14 l 1
 61 18 77 37 77 80 c 2
 77 579 l 2
 77 614 71 619 44 619 c 2
 11 619 l 1
 11 637 l 1
 48 647 74 651 98 660 c 2
 161 682 l 1
 161 263 l 1
 287 373 l 2
 309 392 321 406 321 415 c 0
 321 428 308 433 270 433 c 1
 270 447 l 1
 475 447 l 1
 475 433 l 1
 372 433 321 362 230 283 c 1
 375 98 l 2
 406 58 447 17 499 14 c 1
 499 0 l 1
EndSplineSet
EndChar

StartChar: l
Encoding: 108 108 76
Width: 278
Flags: W
HStem: 0 14<20 60.4873 219.513 260> 624 13<20 49.0105> 662 20G<160.5 183>
VStem: 97 86<27.7473 622.532>
LayerCount: 2
Fore
SplineSet
260 0 m 1
 20 0 l 1
 20 14 l 1
 83 18 97 37 97 80 c 2
 97 559 l 2
 97 619 92 624 54 624 c 2
 20 624 l 1
 20 637 l 1
 68 647 138 665 183 682 c 1
 183 80 l 2
 183 37 197 18 260 14 c 1
 260 0 l 1
EndSplineSet
EndChar

StartChar: m
Encoding: 109 109 77
Width: 777
Flags: W
HStem: 0 14<14 45.1725 192.828 224 283 314.172 461.398 493 553 584.602 731.828 763> 404 54<238.448 325.849 499.384 596.689>
VStem: 77 84<26.0904 369.714> 346 84<26.0904 370.352> 616 84<26.0904 385.293>
LayerCount: 2
Fore
SplineSet
165 383 m 0
 172 383 232 458 316 458 c 0
 367 458 407 421 419 373 c 1
 456 415 518 458 574 458 c 0
 693 458 700 356 700 267 c 2
 700 80 l 2
 700 37 716 18 763 14 c 1
 763 0 l 1
 553 0 l 1
 553 14 l 1
 601 18 616 37 616 80 c 2
 616 283 l 2
 616 379 601 404 538 404 c 0
 492 404 453 381 430 344 c 1
 430 80 l 2
 430 37 445 18 493 14 c 1
 493 0 l 1
 283 0 l 1
 283 14 l 1
 330 18 346 37 346 80 c 2
 346 287 l 2
 346 339 343 404 276 404 c 0
 235 404 184 381 161 346 c 1
 161 80 l 2
 161 37 177 18 224 14 c 1
 224 0 l 1
 14 0 l 1
 14 14 l 1
 61 18 77 37 77 80 c 2
 77 323 l 2
 77 379 68 389 14 389 c 1
 14 406 l 1
 161 458 l 1
 161 392 l 2
 161 385 162 383 165 383 c 0
EndSplineSet
EndChar

StartChar: n
Encoding: 110 110 78
Width: 499
Flags: W
HStem: 0 14<9 40.6022 188.398 220 280 311.172 458.398 490> 396 14<9 30.5833> 404 54<228.364 321.557>
VStem: 72 85<25.3027 366.875 378 394.509> 343 84<26.0904 384.805>
LayerCount: 2
Fore
SplineSet
490 0 m 1xb8
 280 0 l 1
 280 14 l 1
 327 18 343 37 343 80 c 2
 343 295 l 2
 343 353 336 404 266 404 c 0xb8
 218 404 183 373 157 347 c 1
 157 80 l 2
 157 37 172 18 220 14 c 1
 220 0 l 1
 9 0 l 1
 9 14 l 1
 57 18 72 37 72 80 c 2
 72 324 l 2
 72 387 66 396 34 396 c 2
 9 396 l 1
 9 410 l 1xd8
 157 458 l 1
 157 378 l 1
 194 416 240 458 310 458 c 0
 387 458 427 404 427 296 c 2
 427 80 l 2
 427 37 442 18 490 14 c 1
 490 0 l 1xb8
EndSplineSet
EndChar

StartChar: o
Encoding: 111 111 79
Width: 499
Flags: W
HStem: -11 31<209.777 313.758> 427 31<180.151 288.261>
VStem: 31 92<125.327 327.019> 378 92<129.435 321.015>
LayerCount: 2
Fore
SplineSet
470 238 m 0
 470 108 384 -11 246 -11 c 0
 118 -11 31 97 31 218 c 0
 31 350 108 458 246 458 c 0
 378 458 470 369 470 238 c 0
378 190 m 0
 378 281 347 427 233 427 c 0
 160 427 123 359 123 272 c 0
 121 131 169 20 264 20 c 0
 343 20 378 104 378 190 c 0
EndSplineSet
EndChar

StartChar: p
Encoding: 112 112 80
Width: 499
Flags: W
HStem: -217 14<3 41.7276 197.357 243> -11 34<203.591 315.331> 396 14<3 25.8958> 402 56<217.154 321.331>
VStem: 75 85<-189.121 35 55.537 369.599> 384 86<134.153 325.431>
LayerCount: 2
Fore
SplineSet
161 386 m 0xdc
 167 386 199 458 306 458 c 0xdc
 416 458 470 359 470 243 c 0
 470 109 382 -11 253 -11 c 0
 218 -11 183 9 160 35 c 1
 160 -137 l 2
 160 -181 175 -200 243 -203 c 1
 243 -217 l 1
 3 -217 l 1
 3 -203 l 1
 60 -200 75 -181 75 -137 c 2
 75 327 l 2
 75 376 75 398 29 398 c 0
 22 398 13 397 3 396 c 1
 3 410 l 1xec
 160 458 l 1
 160 389 l 2
 160 387 160 386 161 386 c 0xdc
160 103 m 2
 160 49 226 23 263 23 c 0
 335 23 384 103 384 203 c 0
 384 284 362 402 258 402 c 0
 229 402 200 389 180 369 c 0
 160 352 160 347 160 324 c 2
 160 103 l 2
EndSplineSet
EndChar

StartChar: q
Encoding: 113 113 81
Width: 499
Flags: W
HStem: -217 14<257 302.015 458.015 498> -11 62<171.428 270.283> 433 25<193.687 301.078>
VStem: 25 86<126.391 318.951> 339 85<-189.121 60 77.2032 407.655>
LayerCount: 2
Fore
SplineSet
498 -217 m 1
 257 -217 l 1
 257 -203 l 1
 324 -200 339 -181 339 -137 c 2
 339 60 l 1
 296 23 249 -11 194 -11 c 0
 63 -11 25 111 25 214 c 0
 25 343 114 458 250 458 c 0
 290 458 327 447 359 425 c 1
 407 456 l 2
 424 465 424 450 424 439 c 2
 424 -137 l 2
 424 -181 439 -200 498 -203 c 1
 498 -217 l 1
233 51 m 0
 270 51 339 68 339 117 c 2
 339 338 l 2
 339 374 334 433 244 433 c 0
 146 433 111 327 111 244 c 0
 111 134 154 51 233 51 c 0
EndSplineSet
EndChar

StartChar: r
Encoding: 114 114 82
Width: 333
Flags: W
HStem: 0 14<5 43.8496 200.976 240> 396 62<222.399 295>
VStem: 80 84<27.7473 364.858 367 390.723>
LayerCount: 2
Fore
SplineSet
334 405 m 0
 334 382 326 361 293 361 c 0
 258 361 250 396 226 396 c 0
 206 396 164 347 164 318 c 2
 164 80 l 2
 164 37 180 18 240 14 c 1
 240 0 l 1
 5 0 l 1
 5 14 l 1
 65 18 80 37 80 80 c 2
 80 298 l 2
 80 371 71 395 40 395 c 0
 31 395 19 393 5 389 c 1
 5 404 l 1
 164 458 l 1
 164 367 l 1
 184 402 227 458 278 458 c 0
 312 458 334 440 334 405 c 0
EndSplineSet
EndChar

StartChar: s
Encoding: 115 115 83
Width: 388
Flags: W
HStem: -11 25<143.598 244.315> -3 21G<51 66> 429 20G<302 315> 435 23<146.974 235.083>
VStem: 51 63<321.568 403.714> 51 14<-3 9.25683 137.03 154> 278 69<48.5919 134.975> 300 15<313 338.053>
LayerCount: 2
Fore
SplineSet
190 458 m 0x9a
 235 458 258 436 283 436 c 0
 299 436 301 445 303 449 c 1
 315 449 l 1
 315 313 l 1
 300 313 l 1x29
 281 382 257 435 189 435 c 0
 151 435 114 410 114 370 c 0
 114 270 347 250 347 124 c 0
 347 38 280 -11 200 -11 c 0x9a
 155 -11 121 13 87 13 c 0
 68 13 67 3 65 -3 c 1
 51 -3 l 1
 51 154 l 1x46
 68 154 l 1
 80 81 115 14 198 14 c 0
 241 14 278 40 278 84 c 0
 278 190 51 194 51 335 c 0
 51 413 117 458 190 458 c 0x9a
EndSplineSet
EndChar

StartChar: t
Encoding: 116 116 84
Width: 278
Flags: W
HStem: -11 54<117.5 219.407> 416 31<157 255>
VStem: 71 86<49.6802 416>
LayerCount: 2
Fore
SplineSet
200 43 m 0
 212 43 241 47 266 80 c 1
 280 68 l 1
 243 20 198 -11 151 -11 c 0
 84 -11 71 30 71 129 c 2
 71 416 l 1
 41 416 l 2
 29 416 6 410 15 430 c 1
 71 468 109 524 157 579 c 1
 157 447 l 1
 255 447 l 1
 255 416 l 1
 157 416 l 1
 157 146 l 2
 157 85 163 43 200 43 c 0
EndSplineSet
EndChar

StartChar: u
Encoding: 117 117 85
Width: 499
Flags: W
HStem: -11 59<177.715 266.323> 37 14<457.537 479> 433 14<9 53.543 260 310.415>
VStem: 72 85<70.1319 427.284> 332 84<55.9463 77 80.0048 426.587>
LayerCount: 2
Fore
SplineSet
479 37 m 1x78
 439 25 386 6 338 -11 c 1
 338 77 l 1
 316 54 l 2
 295 29 253 -11 189 -11 c 0
 109 -11 72 46 72 132 c 2
 72 361 l 2
 72 421 65 433 9 433 c 1
 9 447 l 1
 157 447 l 1
 157 137 l 2
 157 86 177 48 232 48 c 0xb8
 260 48 289 63 310 80 c 0
 330 96 332 107 332 124 c 2
 332 359 l 2
 332 421 326 433 260 433 c 1
 260 447 l 1
 416 447 l 1
 416 120 l 2
 416 71 420 51 468 51 c 2
 479 51 l 1
 479 37 l 1x78
EndSplineSet
EndChar

StartChar: v
Encoding: 118 118 86
Width: 499
Flags: W
HStem: -11 21G<245 250> 433 14<11 35.7666 172.425 206 329 361.25 444.692 467>
DStem2: 270 120 230 17 0.395756 -0.918356<-304.263 0> 270 120 266 17 0.377748 0.925908<0 301.247>
LayerCount: 2
Fore
SplineSet
467 433 m 1
 430 433 418 390 399 343 c 2
 266 17 l 2
 263 9 253 -11 247 -11 c 0
 243 -11 233 9 230 17 c 2
 74 379 l 2
 58 416 34 433 11 433 c 1
 11 447 l 1
 206 447 l 1
 206 433 l 1
 171 433 161 421 161 405 c 0
 161 391 168 375 174 358 c 2
 270 120 l 1
 347 323 l 2
 362 360 371 387 371 405 c 0
 371 424 359 433 329 433 c 1
 329 447 l 1
 467 447 l 1
 467 433 l 1
EndSplineSet
EndChar

StartChar: w
Encoding: 119 119 87
Width: 721
Flags: W
HStem: -11 21G<233.5 236.5 486.5 490> 433 14<22 46.1532 165.25 201 263 292.012 417.5 464 570 602.946 680.857 693>
DStem2: 210 244 88 343 0.372777 -0.927921<-163.22 136.485> 260 117 244 -3 0.428374 0.903602<0 183.518> 422 343 372 267 0.368421 -0.929659<52.2331 235.841> 507 123 496 -3 0.375244 0.926926<0 298.943>
LayerCount: 2
Fore
SplineSet
693 433 m 1
 667 424 656 387 647 370 c 2
 496 -3 l 2
 495 -6 492 -11 488 -11 c 0
 485 -11 481 -7 479 -3 c 2
 372 267 l 1
 244 -3 l 2
 243 -6 238 -11 235 -11 c 0
 232 -11 228 -6 227 -3 c 2
 88 343 l 2
 63 406 58 433 22 433 c 1
 22 447 l 1
 201 447 l 1
 201 433 l 1
 192 433 l 2
 170 433 155 426 155 399 c 0
 155 375 200 270 210 244 c 2
 260 117 l 1
 350 310 l 1
 324 396 312 433 263 433 c 1
 263 447 l 1
 464 447 l 1
 464 433 l 1
 456 433 l 2
 420 433 406 425 406 404 c 0
 406 389 412 370 422 343 c 2
 507 123 l 1
 590 323 l 2
 605 359 614 386 614 403 c 0
 614 424 601 433 570 433 c 1
 570 447 l 1
 693 447 l 1
 693 433 l 1
EndSplineSet
EndChar

StartChar: x
Encoding: 120 120 88
Width: 499
Flags: W
HStem: 0 14<17 45.4238 125.129 163 278 315.22 451.019 479> 433 14<25 61.2813 199.975 232 276 307.035 400.455 433>
DStem2: 97 77 149 84 0.555351 0.831616<-25.5977 168.657 270.695 397.494> 249 301 118 362 0.549764 -0.83532<-120.887 0 71.4799 265.184>
LayerCount: 2
Fore
SplineSet
479 0 m 1
 278 0 l 1
 278 14 l 1
 307 16 329 22 329 36 c 0
 329 40 328 44 324 49 c 2
 221 197 l 1
 149 84 l 2
 131 57 122 40 122 29 c 0
 122 17 135 14 163 14 c 1
 163 0 l 1
 17 0 l 1
 17 14 l 1
 54 14 71 40 97 77 c 2
 204 230 l 1
 118 362 l 2
 94 398 89 430 25 433 c 1
 25 447 l 1
 232 447 l 1
 232 433 l 1
 197 433 189 419 189 407 c 0
 189 392 238 318 249 301 c 1
 263 323 316 384 316 410 c 0
 316 430 290 433 276 433 c 1
 276 447 l 1
 433 447 l 1
 433 433 l 1
 396 433 366 407 346 379 c 2
 269 270 l 1
 390 84 l 2
 416 45 444 14 479 14 c 1
 479 0 l 1
EndSplineSet
EndChar

StartChar: y
Encoding: 121 121 89
Width: 499
Flags: W
HStem: -217 82<65.1158 166.162> 433 14<15 40.0749 176.27 221 341 374.226 459.746 476>
DStem2: 174 367 71 390 0.422206 -0.9065<-39.085 277.054> 230 -23 276 -8 0.351865 0.936051<-118.932 41.1336 148.295 456.4>
LayerCount: 2
Fore
SplineSet
83 -117 m 0
 103 -117 137 -135 151 -135 c 0
 175 -135 197 -108 230 -23 c 0
 236 -11 242 5 242 17 c 0
 242 20 242 23 241 25 c 2
 71 390 l 2
 60 416 45 430 15 433 c 1
 15 447 l 1
 221 447 l 1
 221 433 l 1
 178 433 162 423 162 405 c 0
 162 395 167 382 174 367 c 2
 287 114 l 1
 386 392 l 2
 388 396 389 401 389 405 c 0
 389 419 378 431 341 433 c 1
 341 447 l 1
 476 447 l 1
 476 433 l 1
 456 433 433 399 424 376 c 2
 276 -8 l 2
 247 -83 203 -217 103 -217 c 0
 63 -217 31 -193 31 -158 c 0
 31 -125 62 -117 83 -117 c 0
EndSplineSet
EndChar

StartChar: z
Encoding: 122 122 90
Width: 443
Flags: W
HStem: 0 31<134 355.748> 416 31<97.1552 293>
VStem: 54 17<330 375.697> 399 19<99.4912 136.842>
DStem2: 25 14 134 31 0.557556 0.830139<74.886 483.141>
LayerCount: 2
Fore
SplineSet
260 31 m 2
 377 31 383 58 399 140 c 1
 418 135 l 1
 404 0 l 1
 25 0 l 1
 25 14 l 1
 293 416 l 1
 167 416 l 2
 81 416 77 384 71 330 c 1
 54 330 l 1
 57 447 l 1
 404 447 l 1
 404 433 l 1
 134 31 l 1
 260 31 l 2
EndSplineSet
EndChar

StartChar: braceleft
Encoding: 123 123 91
Width: 479
Flags: W
HStem: 662 20G<291 308.5>
VStem: 186 72<-121.129 221.198 291.436 636.869>
LayerCount: 2
Fore
SplineSet
341 -164 m 1
 227 -167 186 -140 186 -17 c 2
 186 143 l 2
 186 209 177 240 111 257 c 1
 172 275 186 307 186 370 c 2
 186 544 l 2
 186 662 241 682 341 682 c 1
 276 665 258 627 258 559 c 2
 258 384 l 2
 258 313 246 275 177 257 c 1
 249 238 258 194 258 121 c 2
 258 -43 l 2
 258 -111 278 -152 341 -164 c 1
EndSplineSet
EndChar

StartChar: bar
Encoding: 124 124 92
Width: 199
Flags: W
HStem: 0 21G<68 132> 662 20G<68 132>
VStem: 68 64<0 682>
LayerCount: 2
Fore
SplineSet
132 0 m 1
 68 0 l 1
 68 682 l 1
 132 682 l 1
 132 0 l 1
EndSplineSet
EndChar

StartChar: braceright
Encoding: 125 125 93
Width: 479
Flags: W
HStem: 662 20G<172 190>
VStem: 223 70<-121.129 223.052 290.088 636.869>
LayerCount: 2
Fore
SplineSet
370 257 m 1
 304 240 293 209 293 143 c 2
 293 -17 l 2
 293 -140 252 -167 140 -164 c 1
 203 -152 223 -111 223 -43 c 2
 223 121 l 2
 223 194 230 238 303 257 c 1
 233 275 223 313 223 384 c 2
 223 559 l 2
 223 627 204 665 140 682 c 1
 240 682 293 662 293 544 c 2
 293 370 l 2
 293 307 307 275 370 257 c 1
EndSplineSet
EndChar

StartChar: asciitilde
Encoding: 126 126 94
Width: 540
Flags: W
HStem: 198 63<309.895 434.424> 267 65<104.409 239.461>
LayerCount: 2
Fore
SplineSet
522 307 m 1
 493 253 445 198 381 198 c 0
 304 198 229 267 160 267 c 0
 104 267 77 217 54 177 c 1
 18 217 l 1
 49 270 89 332 160 332 c 0
 229 332 329 261 382 261 c 0
 427 261 467 309 487 347 c 1
 522 307 l 1
EndSplineSet
EndChar

StartChar: uni0E10.descless
Encoding: 128 63232 95
Width: 508
Flags: W
HStem: -8 43<259.053 323.871> 190 39<102.149 175.379> 319 39<101.516 174.241> 492 71<259.11 411.065> 530 68<108.878 262.179>
VStem: 54 40<235.924 311.839> 178 75<40.8599 198 232.481 313.98> 330 77<39.1193 371.312>
DStem2: 81 476 28 443 0.968685 -0.248291<0 272.325>
LayerCount: 2
Fore
SplineSet
453 582 m 0xf7
 453 573 434 492 342 492 c 0xf7
 286 492 225 530 156 530 c 0
 118 530 96 512 81 476 c 1
 358 405 l 2
 374 401 407 392 407 332 c 2
 407 106 l 2
 407 41 370 -8 292 -8 c 0
 227 -8 178 45 178 106 c 2
 178 198 l 1
 166 192 154 190 138 190 c 0
 86 190 54 230 54 276 c 0
 54 314 83 358 138 358 c 0
 220 358 253 319 253 270 c 2
 253 78 l 2
 253 58 266 35 292 35 c 0
 318 35 330 58 330 77 c 2
 330 321 l 2
 330 353 324 368 301 374 c 2
 28 443 l 1
 40 481 73 598 179 598 c 0xef
 232 598 316 563 377 563 c 0
 433 563 434 591 447 591 c 0
 450 591 453 588 453 582 c 0xf7
138 229 m 0
 168 229 183 252 183 274 c 0
 183 296 168 319 138 319 c 0
 109 319 94 296 94 274 c 0
 94 252 109 229 138 229 c 0
EndSplineSet
EndChar

StartChar: uni0E34.left
Encoding: 129 63233 96
Width: 0
Flags: W
HStem: 740 40<-629.737 -438.166> 844 49<-582.035 -405.33>
LayerCount: 2
Back
SplineSet
-255 654 m 1
 -280 667 -402 722 -475 731 c 0
 -573 746 -659 733 -677 728 c 1
 -650 834 -564 900 -461 892 c 0
 -347 885 -263 796 -255 654 c 1
-307 719 m 1
 -339 803 -390 834 -464 843 c 0
 -527 851 -582 820 -605 779 c 1
 -605 779 -533 785 -464 773 c 0
 -370 756 -307 719 -307 719 c 1
EndSplineSet
Fore
Refer: 179 3636 N 1 0 0 1 -173 0 2
EndChar

StartChar: uni0E35.left
Encoding: 130 63234 97
Width: 0
Flags: W
HStem: 740 40<-629.737 -438.166> 844 49<-582.035 -405.166>
VStem: -354 75<849 951>
LayerCount: 2
Back
SplineSet
-255 654 m 1
 -280 667 -402 720 -475 731 c 0
 -576 746 -659 733 -677 728 c 1
 -656 820 -573 900 -470 892 c 0
 -435 891 -389 883 -347 852 c 1
 -347 951 l 1
 -280 951 l 1
 -280 762 l 1
 -280 762 -260 720 -255 654 c 1
-307 719 m 1
 -339 803 -390 834 -464 843 c 0
 -527 851 -582 820 -605 779 c 1
 -605 779 -533 785 -464 773 c 0
 -370 756 -307 719 -307 719 c 1
EndSplineSet
Fore
Refer: 180 3637 N 1 0 0 1 -173 0 2
EndChar

StartChar: uni0E36.left
Encoding: 131 63235 98
Width: 0
Flags: W
HStem: 740 40<-630.154 -440.844> 844 50<-581.639 -404.35> 906 45<-355.395 -277.318>
VStem: -403 42<874 899.707> -272 44<825.773 900.035>
LayerCount: 2
Back
SplineSet
-318 822 m 0
 -291 822 -278 843 -278 864 c 0
 -278 884 -291 905 -318 905 c 0
 -344 905 -357 884 -357 864 c 0
 -357 843 -344 822 -318 822 c 0
-307 719 m 17
 -339 803 -390 834 -464 843 c 0
 -527 851 -582 820 -605 779 c 1
 -605 779 -533 785 -464 773 c 0
 -370 756 -307 719 -307 719 c 17
-255 654 m 1
 -280 667 -402 720 -475 731 c 0
 -576 746 -659 733 -677 728 c 1
 -656 822 -568 900 -467 892 c 0
 -425 889 -396 877 -396 877 c 1
 -398 908 -369 946 -315 946 c 0
 -267 946 -233 908 -233 865 c 0
 -233 829 -253 791 -290 783 c 1
 -290 783 -258 733 -255 654 c 1
EndSplineSet
Fore
Refer: 181 3638 N 1 0 0 1 -173 0 2
EndChar

StartChar: uni0E37.left
Encoding: 132 63236 99
Width: 0
Flags: W
HStem: 736 40<-633.473 -440.572> 830 46<-589.214 -483>
VStem: -483 72<876 951> -348 71<831 951>
LayerCount: 2
Back
SplineSet
-255 654 m 1
 -280 667 -402 720 -475 731 c 0
 -576 746 -659 733 -677 728 c 1
 -647 851 -541 902 -464 889 c 1
 -462 951 l 1
 -407 951 l 1
 -406 877 l 1
 -372 869 -343 845 -343 845 c 1
 -343 951 l 1
 -284 951 l 1
 -281 763 l 1
 -281 763 -258 723 -255 654 c 1
-307 719 m 1
 -339 803 -390 834 -464 843 c 0
 -527 851 -582 820 -605 779 c 1
 -605 779 -533 785 -464 773 c 0
 -370 756 -307 719 -307 719 c 1
EndSplineSet
Fore
Refer: 182 3639 N 1 0 0 1 -173 0 2
EndChar

StartChar: ellipsis
Encoding: 133 8230 100
Width: 998
Flags: W
HStem: -14 115<124.202 210.422 455.725 544.015 789.202 875.422>
VStem: 111 113<-0.661377 87.5896> 442 116<0.24744 87.0317> 776 113<-0.661377 87.5896>
CounterMasks: 1 70
LayerCount: 2
Fore
SplineSet
889 45 m 0
 889 12 863 -14 831 -14 c 0
 800 -14 776 14 776 45 c 0
 776 74 802 101 831 101 c 0
 862 101 889 75 889 45 c 0
558 45 m 0
 558 12 530 -14 499 -14 c 0
 467 -14 442 14 442 45 c 0
 442 74 468 101 499 101 c 0
 530 101 558 75 558 45 c 0
224 45 m 0
 224 12 198 -14 166 -14 c 0
 135 -14 111 14 111 45 c 0
 111 74 137 101 166 101 c 0
 197 101 224 75 224 45 c 0
EndSplineSet
EndChar

StartChar: uni0E48.low_left
Encoding: 134 63237 101
Width: 0
Flags: W
HStem: 670 21<-344.393 -283.607>
VStem: -343 58<670 770.471>
LayerCount: 2
Back
SplineSet
-275 926 m 1
 -290 685 l 1
 -341 685 l 1
 -356 926 l 1
 -275 926 l 1
EndSplineSet
Fore
Refer: 106 63242 N 1 0 0 1 -173 0 2
EndChar

StartChar: uni0E49.low_left
Encoding: 135 63238 102
Width: 0
Flags: W
HStem: 668 48<-451 -366.839> 776 37<-520.015 -451.266> 919 36<-520.015 -438.732>
VStem: -572 40<823.492 908.16> -426 43<824.691 909.137> -234 81<859.762 952>
LayerCount: 2
Back
SplineSet
-229 931 m 17
 -275 637 -571 667 -602 670 c 1
 -602 703 l 1
 -593 707 -538 734 -519 780 c 1
 -519 780 -528 776 -544 776 c 0
 -599 776 -626 816 -626 856 c 0
 -626 897 -599 937 -544 937 c 0
 -458 937 -455 857 -455 857 c 1
 -455 765 -516 716 -516 716 c 1
 -515 714 l 1
 -452 723 -319 766 -310 931 c 1
 -229 931 l 17
-542 811 m 0
 -512 811 -497 834 -497 856 c 0
 -497 879 -512 902 -542 902 c 0
 -573 902 -588 879 -588 856 c 0
 -588 834 -573 811 -542 811 c 0
EndSplineSet
Fore
Refer: 107 63243 N 1 0 0 1 -173 0 2
EndChar

StartChar: uni0E4A.low_left
Encoding: 136 63239 103
Width: 0
Flags: W
HStem: 668 30<-558.692 -494.458 -396 -381.784> 782 32<-559.756 -493.329> 876 56<-564.812 -525>
VStem: -634 43<777.487 850.155> -485 34<705.931 774.441> -351 51<739.664 859.488> -236 71<817.011 926>
LayerCount: 2
Back
SplineSet
-246 906 m 17
 -238 768 -309 684 -436 670 c 1
 -436 694 l 1
 -410 710 -397 744 -397 776 c 0
 -397 810 -412 842 -438 849 c 1
 -495 811 l 1
 -548 849 l 1
 -585 849 -613 806 -607 768 c 1
 -607 768 -598 800 -548 800 c 0
 -510 800 -482 770 -482 737 c 0
 -482 697 -505 667 -548 667 c 0
 -611 667 -650 720 -650 793 c 0
 -650 843 -601 903 -548 903 c 1
 -493 857 l 1
 -439 902 l 1
 -369 884 -349 839 -349 798 c 0
 -349 771 -357 745 -366 728 c 1
 -309 766 -293 834 -310 906 c 1
 -246 906 l 17
-513 733 m 0
 -513 758 -532 770 -550 770 c 0
 -569 770 -588 758 -588 733 c 0
 -588 708 -569 696 -550 696 c 0
 -532 696 -513 708 -513 733 c 0
EndSplineSet
Fore
Refer: 108 63244 N 1 0 0 1 -173 0 2
EndChar

StartChar: uni0E4B.low_left
Encoding: 137 63240 104
Width: 0
Flags: W
HStem: 677 21<-347.2 -286.6> 779 60<-462 -350 -284 -173>
VStem: -348 63<677 777 840 942>
LayerCount: 2
Back
SplineSet
-233 777 m 1
 -347 776 l 1
 -349 676 l 1
 -406 676 l 1
 -407 776 l 1
 -522 777 l 1
 -522 834 l 1
 -409 836 l 1
 -410 935 l 1
 -344 935 l 1
 -346 836 l 1
 -233 834 l 1
 -233 777 l 1
EndSplineSet
Fore
Refer: 109 63245 N 1 0 0 1 -173 0 2
EndChar

StartChar: uni0E4C.low_left
Encoding: 138 63241 105
Width: 0
Flags: W
HStem: 668 39<-419.188 -345.095>
VStem: -468 41<714.466 786.475> -338 42<712.234 788.314> -245 72<923.647 951.139>
LayerCount: 2
Back
SplineSet
-226 954 m 1
 -239 846 -357 826 -399 816 c 1
 -370 811 -353 777 -353 748 c 0
 -353 707 -384 670 -433 670 c 0
 -482 670 -515 707 -515 748 c 0
 -515 786 -502 831 -399 860 c 0
 -350 876 -295 906 -298 968 c 1
 -226 954 l 1
-433 703 m 0
 -404 703 -390 724 -390 746 c 0
 -390 767 -404 788 -433 788 c 0
 -462 788 -477 767 -477 746 c 0
 -477 724 -462 703 -433 703 c 0
EndSplineSet
Fore
Refer: 110 63246 S 1 0 0 1 -173 0 2
EndChar

StartChar: uni0E48.low
Encoding: 139 63242 106
Width: 0
Flags: W
HStem: 670 21G<-171.393 -110.607>
VStem: -170 58<670 770.471>
AnchorPoint: "AboveBase" -105.984 645.12 mark 0
LayerCount: 2
Fore
SplineSet
-95 914 m 1
 -112 670 l 1
 -170 670 l 1
 -187 914 l 1
 -95 914 l 1
EndSplineSet
EndChar

StartChar: uni0E49.low
Encoding: 140 63243 107
Width: 0
Flags: W
HStem: 668 48<-278 -193.838> 776 37<-347.015 -278.266> 919 36<-347.015 -265.732>
VStem: -399 40<823.492 908.16> -253 43<824.691 909.137> -61 81<859.762 952>
AnchorPoint: "AboveBase" -106 645 mark 0
LayerCount: 2
Fore
SplineSet
20 952 m 17
 -5 696 -219 668 -317 668 c 0
 -341 668 -357 669 -364 670 c 1
 -364 705 l 1
 -355 708 -298 733 -278 780 c 1
 -278 780 -290 776 -307 776 c 0
 -368 776 -399 821 -399 866 c 0
 -399 910 -368 955 -307 955 c 0
 -212 955 -210 868 -210 866 c 0
 -210 765 -278 716 -278 716 c 1
 -276 716 l 1
 -276 716 -69 722 -61 952 c 1
 20 952 l 17
-307 813 m 0
 -271 813 -253 840 -253 866 c 0
 -253 892 -271 919 -307 919 c 0
 -342 919 -359 892 -359 866 c 0
 -359 840 -342 813 -307 813 c 0
EndSplineSet
EndChar

StartChar: uni0E4A.low
Encoding: 141 63244 108
Width: 0
Flags: W
HStem: 668 30<-385.692 -321.458 -223 -208.784> 782 32<-386.756 -320.329> 876 56<-391.812 -352>
VStem: -461 43<777.487 850.155> -312 34<705.931 774.441> -178 51<739.664 859.488> -63 71<817.011 926>
AnchorPoint: "AboveBase" -106 645 mark 0
LayerCount: 2
Fore
SplineSet
8 926 m 17
 8 793.074 -68.9495 690.605 -223 670 c 1
 -223 699 l 1
 -192 717 -178 756 -178 792 c 0
 -178 831 -194 867 -224 876 c 1
 -289 831 l 1
 -352 876 l 1
 -387 876 -418 830 -418 793 c 0
 -418 787 -417 782 -416 777 c 1
 -415 777 l 1
 -415 777 -404 814 -352 814 c 0
 -312 814 -278 782 -278 745 c 0
 -278 702 -304 668 -352 668 c 0
 -422 668 -461 733 -461 809 c 0
 -461 862 -409 931 -349 932 c 1
 -347 931 -287 885 -287 883 c 1
 -227 932 l 1
 -146 909 -127 857 -127 813 c 0
 -127 773 -143 739 -143 739 c 1
 -141 739 l 1
 -99 765 -63 826 -63 888 c 0
 -63 901 -65 914 -68 926 c 1
 8 926 l 17
-312 739 m 0
 -312 768 -333 782 -354 782 c 0
 -374 782 -395 768 -395 739 c 0
 -395 712 -374 698 -354 698 c 0
 -333 698 -312 712 -312 739 c 0
EndSplineSet
EndChar

StartChar: uni0E4B.low
Encoding: 142 63245 109
Width: 0
Flags: W
HStem: 677 21G<-174.2 -113.6> 779 60<-289 -177 -111 0>
VStem: -175 63<677 777 840 942>
AnchorPoint: "AboveBase" -105.984 645.12 mark 0
LayerCount: 2
Fore
SplineSet
0 779 m 1
 -112 777 l 1
 -114 677 l 1
 -174 677 l 1
 -175 777 l 1
 -289 779 l 1
 -289 839 l 1
 -177 840 l 1
 -178 942 l 1
 -109 942 l 1
 -111 840 l 1
 0 839 l 1
 0 779 l 1
EndSplineSet
EndChar

StartChar: uni0E4C.low
Encoding: 143 63246 110
Width: 0
Flags: W
HStem: 668 39<-246.188 -172.095>
VStem: -295 41<714.466 786.475> -165 42<712.234 788.314> -72 72<923.647 951.139>
AnchorPoint: "AboveBase" -105.984 645.12 mark 0
LayerCount: 2
Fore
SplineSet
0 949 m 1
 -25 851 -135 835 -175 825 c 1
 -138 819 -123 782 -123 751 c 0
 -123 707 -157 668 -207 668 c 0
 -266 668 -295 707 -295 754 c 0
 -295 793 -283 837 -178 871 c 0
 -126 888 -83 917 -72 971 c 1
 0 949 l 1
-207 707 m 0
 -179 707 -165 729 -165 750 c 0
 -165 772 -179 794 -207 794 c 0
 -238 794 -254 772 -254 750 c 0
 -254 729 -238 707 -207 707 c 0
EndSplineSet
EndChar

StartChar: uni0E0D.descless
Encoding: 144 63247 111
Width: 800
Flags: W
HStem: -8 37<177.431 248.773 496.032 593.626> 121 41<175.356 252.015> 392 44<97 129 181.844 267> 547 51<173.248 339.022>
VStem: 95 80<154 382.326> 95 72<37.7877 115.196> 259 39<39.6944 112.977> 395 77<48.796 489.224> 617 77<51.1894 530>
LayerCount: 2
Fore
SplineSet
694 104 m 2xfb80
 694 54 631 -8 542 -8 c 0
 456 -8 395 48 395 112 c 2
 395 407 l 2
 395 506 330 547 260 547 c 0
 182 547 113 500 97 436 c 1
 267 436 l 1
 267 392 l 1
 218 392 l 2
 176 392 175 347 175 342 c 2
 175 154 l 1xfb80
 190 159 205 162 217 162 c 0
 270 162 298 120 298 78 c 0
 298 37 267 -8 212 -8 c 0
 111 -8 95 69 95 109 c 2xf780
 95 324 l 2
 95 375 129 392 129 392 c 1
 45 392 l 1
 49 527 159 598 270 598 c 0
 381 598 472 518 472 413 c 2
 472 101 l 2
 472 61 501 29 544 29 c 0
 588 29 617 60 617 100 c 2
 617 530 l 1
 665 588 l 2
 668 592 675 594 680 594 c 0
 688 594 694 588 694 567 c 2
 694 104 l 2xfb80
212 32 m 0
 244 32 259 54 259 76 c 0
 259 99 244 121 212 121 c 0
 182 121 167 99 167 76 c 0xf780
 167 54 182 32 212 32 c 0
EndSplineSet
EndChar

StartChar: quoteleft
Encoding: 145 8216 112
Width: 333
Flags: W
HStem: 456 122<138.426 228.305>
VStem: 86 52<540 634.277>
LayerCount: 2
Fore
SplineSet
243 524 m 0
 243 482 218 456 175 456 c 0
 112 456 86 515 86 565 c 0
 86 630 151 700 212 728 c 1
 226 700 l 1
 189 679 138 624 138 588 c 0
 138 582 137 578 143 578 c 0
 151 578 160 587 180 585 c 0
 214 584 243 561 243 524 c 0
EndSplineSet
EndChar

StartChar: quoteright
Encoding: 146 8217 113
Width: 333
Flags: W
HStem: 455 21G<109.63 150.5> 605 122<104.694 193.564>
VStem: 194 52<548.319 642.5>
LayerCount: 2
Fore
SplineSet
89 659 m 0
 89 700 114 727 157 727 c 0
 220 727 246 668 246 617 c 0
 246 553 181 482 120 455 c 1
 106 482 l 1
 143 504 194 559 194 594 c 0
 194 601 195 605 189 605 c 0
 181 605 172 596 152 598 c 0
 118 599 89 622 89 659 c 0
EndSplineSet
EndChar

StartChar: bullet
Encoding: 149 8226 116
Width: 385
Flags: W
HStem: 189 261<122.579 263.338>
VStem: 63 260<248.842 392.529>
LayerCount: 2
Fore
SplineSet
323 319 m 0
 323 247 266 189 192 189 c 0
 121 189 63 247 63 319 c 0
 61 392 120 450 192 450 c 0
 266 450 323 392 323 319 c 0
EndSplineSet
EndChar

StartChar: endash
Encoding: 150 8211 117
Width: 768
Flags: W
HStem: 214 47<34 734>
LayerCount: 2
Fore
SplineSet
734 214 m 1
 34 214 l 1
 34 261 l 1
 734 261 l 1
 734 214 l 1
EndSplineSet
EndChar

StartChar: emdash
Encoding: 151 8212 118
Width: 1536
Flags: W
HStem: 214 47<22 1514>
LayerCount: 2
Fore
SplineSet
1514 214 m 1
 22 214 l 1
 22 261 l 1
 1514 261 l 1
 1514 214 l 1
EndSplineSet
EndChar

StartChar: uni0E31.left
Encoding: 152 63248 119
Width: 0
Flags: W
HStem: 676 52<-401.652 -226.278> 874 41<-482.768 -405.102>
VStem: -537 47<788.448 867.613> -398 45<788.779 867.52> -121 89<848.463 911>
LayerCount: 2
Back
SplineSet
66 908 m 17
 27 750 -128 677 -265 677 c 0
 -406 677 -494 752 -494 826 c 0
 -494 871 -461 912 -404 912 c 1
 -355 915 -314 877 -314 822 c 0
 -314 767 -362 745 -362 745 c 1
 -328 734 -295 729 -264 729 c 0
 -124 729 -29 833 -22 908 c 1
 66 908 l 17
-402 780 m 0
 -372 780 -358 803 -358 826 c 0
 -358 848 -372 871 -402 871 c 0
 -433 871 -448 848 -448 826 c 0
 -448 803 -433 780 -402 780 c 0
EndSplineSet
Fore
Refer: 176 3633 N 1 0 0 1 -173 0 2
EndChar

StartChar: uni0E4D.left
Encoding: 153 63249 120
Width: 0
Flags: W
HStem: 668 43<-354.42 -274.469> 813 46<-355.912 -274.11>
VStem: -410 45<720.46 803.313> -264 45<720.46 803.313>
LayerCount: 2
Back
SplineSet
-350 676 m 0
 -412 676 -444 723 -444 770 c 0
 -444 816 -412 863 -350 863 c 0
 -288 863 -257 816 -257 769 c 0
 -257 722 -287 676 -350 676 c 0
-350 717 m 0
 -316 717 -298 743 -298 768 c 0
 -298 794 -316 820 -350 820 c 0
 -386 820 -403 794 -403 768 c 0
 -403 743 -386 717 -350 717 c 0
EndSplineSet
Fore
Refer: 202 3661 N 1 0 0 1 -173 0 2
EndChar

StartChar: uni0E47.left
Encoding: 154 63250 121
Width: 0
Flags: W
HStem: 668 44<-358.49 -284.363> 757 57<-533.636 -455.641> 795 39<-357.986 -286.231> 886 52<-498.514 -315.325> 898 49<-560.326 -380.647>
VStem: -639 59<762.268 878.948> -399 35<739.098 786.959> -302 78<951.73 1028> -280 39<717.977 788.766>
LayerCount: 2
Back
SplineSet
-235 995 m 17xd8
 -235 895 -284 837 -442 868 c 0
 -508 880 -553 882 -564 822 c 0
 -570 794 -561 763 -553 753 c 1
 -553 753 -544 800 -492 800 c 0xd8
 -439 800 -416 746 -390 734 c 1
 -390 734 -393 740 -393 748 c 0
 -393 796 -357 820 -321 820 c 0xb8
 -284 820 -247 795 -247 745 c 0
 -247 693 -287 668 -319 668 c 0
 -419 668 -433 745 -484 745 c 0
 -536 745 -528 684 -515 668 c 1
 -551 668 l 1
 -593 702 -627 773 -608 846 c 0
 -598 891 -553 952 -427 923 c 0
 -344 905 -301 911 -306 995 c 1
 -235 995 l 17xd8
-283 745 m 0
 -283 771 -302 784 -321 784 c 0xb8
 -340 784 -359 771 -359 745 c 0
 -359 720 -340 708 -321 708 c 0
 -302 708 -283 720 -283 745 c 0
EndSplineSet
Fore
Refer: 196 3655 N 1 0 0 1 -149 0 2
EndChar

StartChar: uni0E48.left
Encoding: 155 63251 122
Width: 0
Flags: W
VStem: -343 54<1009 1126.25>
LayerCount: 2
Back
SplineSet
-276 1226 m 1
 -289 1006 l 1
 -343 1006 l 1
 -355 1226 l 1
 -276 1226 l 1
EndSplineSet
Fore
Refer: 197 3656 N 1 0 0 1 -177 0 2
EndChar

StartChar: uni0E49.left
Encoding: 156 63252 123
Width: 0
Flags: W
HStem: 1063 37<-496.143 -443.337> 1184 34<-495.852 -425.254>
VStem: -539 35<1108.48 1175.51> -417 38<1106.51 1177.37> -208 80<1140.07 1213>
LayerCount: 2
Back
SplineSet
-77 1229 m 17
 -104 1052 -252 975 -436 997 c 1
 -436 1026 l 1
 -410 1034 -379 1049 -362 1081 c 1
 -362 1081 -370 1078 -375 1078 c 0
 -428 1078 -454 1116 -454 1154 c 0
 -454 1191 -428 1229 -375 1229 c 0
 -296 1229 -295 1154 -295 1154 c 1
 -295 1072 -352 1035 -352 1035 c 1
 -352 1032 l 1
 -244 1038 -161 1098 -152 1229 c 1
 -77 1229 l 17
-375 1111 m 0
 -347 1111 -333 1132 -333 1153 c 0
 -333 1174 -347 1195 -375 1195 c 0
 -405 1195 -420 1174 -420 1153 c 0
 -420 1132 -405 1111 -375 1111 c 0
EndSplineSet
Fore
Refer: 198 3657 N 1 0 0 1 -262 0 2
EndChar

StartChar: uni0E4A.left
Encoding: 157 63253 124
Width: 0
Flags: W
HStem: 989 29<-422.923 -362.557 -278 -262.089> 1093 30<-422.887 -362.093> 1172 54<-431.73 -390>
VStem: -492 42<1091.6 1153.56> -355 31<1025.15 1086.11> -239 48<1041.92 1159.79> -146 59<1106.39 1229>
LayerCount: 2
Back
SplineSet
-80 1229 m 17
 -72 1091 -149 1012 -270 995 c 1
 -270 1020 l 1
 -244 1036 -231 1070 -231 1101 c 0
 -231 1135 -246 1168 -272 1175 c 1
 -329 1137 l 1
 -382 1175 l 1
 -419 1175 -447 1132 -441 1094 c 1
 -441 1094 -432 1126 -382 1126 c 0
 -344 1126 -316 1095 -316 1063 c 0
 -316 1023 -339 994 -382 994 c 0
 -445 994 -484 1046 -484 1118 c 0
 -484 1169 -435 1229 -382 1229 c 1
 -382 1229 -327 1185 -327 1183 c 1
 -273 1229 l 1
 -203 1211 -183 1166 -183 1124 c 0
 -183 1097 -191 1071 -200 1054 c 1
 -143 1092 -127 1157 -144 1229 c 1
 -80 1229 l 17
-347 1058 m 0
 -347 1084 -366 1096 -384 1096 c 0
 -403 1096 -422 1084 -422 1058 c 0
 -422 1034 -403 1023 -384 1023 c 0
 -366 1023 -347 1034 -347 1058 c 0
EndSplineSet
Fore
Refer: 199 3658 N 1 0 0 1 -209 0 2
EndChar

StartChar: uni0E4B.left
Encoding: 158 63254 125
Width: 0
Flags: W
HStem: 1081 57<-452 -346 -283 -180>
VStem: -345 60<992 1080 1140 1229>
LayerCount: 2
Back
SplineSet
-180 1081 m 1
 -284 1080 l 1
 -286 992 l 1
 -343 992 l 1
 -344 1080 l 1
 -452 1081 l 1
 -452 1138 l 1
 -346 1140 l 1
 -347 1229 l 1
 -281 1229 l 1
 -283 1140 l 1
 -180 1138 l 1
 -180 1081 l 1
EndSplineSet
Fore
Refer: 200 3659 N 1 0 0 1 -171 0 2
EndChar

StartChar: uni0E4C.left
Encoding: 159 63255 126
Width: 0
Flags: W
HStem: 902 29<-349.315 -285.078>
VStem: -394 35<938.565 1006.44> -275 33<939.023 1005.92> -162 61<1129.85 1146.33>
LayerCount: 2
Back
SplineSet
-100 1164 m 17
 -128 1085 -222 1069 -281 1060 c 1
 -254 1048 -241 1023 -241 997 c 0
 -241 960 -267 923 -315 923 c 0
 -364 923 -393 954 -393 997 c 0
 -393 1057 -346 1091 -275 1103 c 0
 -249 1107 -166 1140 -163 1193 c 1
 -100 1164 l 17
-316 952 m 0
 -288 952 -274 973 -274 994 c 0
 -274 1014 -288 1035 -316 1035 c 0
 -344 1035 -358 1014 -358 994 c 0
 -358 973 -344 952 -316 952 c 0
EndSplineSet
Fore
Refer: 201 3660 N 1 0 0 1 -147 0 2
EndChar

StartChar: uni0E01
Encoding: 161 3585 128
Width: 602
Flags: W
HStem: 0 21G<95 175 422 499> 392 44<97 129 182.033 267> 550 49<180.563 357.048>
VStem: 95 80<0 381.556> 422 77<0 486.673>
LayerCount: 2
Fore
SplineSet
499 0 m 1
 422 0 l 1
 422 407 l 2
 422 506 349 550 271 550 c 0
 196 550 118 508 97 436 c 1
 267 436 l 1
 267 392 l 1
 218 392 l 2
 175 392 175 343 175 341 c 2
 175 0 l 1
 95 0 l 1
 95 324 l 2
 95 373 129 392 129 392 c 1
 45 392 l 1
 45 528 167 599 285 599 c 0
 390 599 499 529 499 413 c 2
 499 0 l 1
EndSplineSet
EndChar

StartChar: uni0E02
Encoding: 162 3586 129
Width: 585
Flags: W
HStem: -8 43<322.66 396.944> 319 33<87.5139 155.415> 438 34<87.1727 155.501> 547 51<100.593 210.702>
VStem: 27 44<453 517.329> 164 35<360.158 430.182> 235 80<41.3652 522.61> 404 78<43.2103 530>
LayerCount: 2
Fore
SplineSet
27 450 m 0
 27 539 84 598 170 598 c 0
 263 598 315 531 315 449 c 2
 315 78 l 2
 315 57 333 35 359 35 c 0
 384 35 404 58 404 77 c 2
 404 530 l 1
 453 588 l 2
 456 591 461 594 466 594 c 0
 474 594 482 588 482 567 c 2
 482 106 l 18
 482 40 439 -8 359 -8 c 0
 287 -8 235 41 235 106 c 2
 235 453 l 2
 235 505 209 547 160 547 c 0
 108 547 72 513 71 453 c 1
 89 468 98 472 121 472 c 0
 173 471 199 433 199 396 c 0
 199 357 172 319 123 319 c 0
 51 319 27 391 27 450 c 0
121 352 m 0
 150 352 164 374 164 395 c 0
 164 416 150 438 121 438 c 0
 93 438 79 416 79 395 c 0
 79 374 93 352 121 352 c 0
EndSplineSet
EndChar

StartChar: uni0E03
Encoding: 163 3587 130
Width: 634
Flags: W
HStem: -8 43<368.44 445.316> 280 32<84.1779 151.825> 399 34<82.1212 153.073> 452 21G<164.556 204.278> 573 21G<100.5 131.949 513.5 519.5>
VStem: 19 47<369.898 510.846> 162 32<321.86 388.933> 283 79<40.8599 523.48> 452 78<43.2103 530>
DStem2: 114 593 114 524 0.66791 -0.744242<42.5383 104.805> 184 515 184 452 0.697617 0.716471<0 61.948>
LayerCount: 2
Fore
SplineSet
530 106 m 2
 530 40 487 -8 407 -8 c 0
 335 -8 283 45 283 106 c 2
 283 461 l 2
 283 495 278 524 257 524 c 1
 184 452 l 1
 114 524 l 1
 87 524 66 493 66 440 c 0
 66 431 67 422 68 413 c 1
 68 413 81 433 117 433 c 0
 169 433 194 395 194 357 c 0
 194 319 168 280 115 280 c 0
 43 280 19 355 19 426 c 0
 19 555 87 585 114 593 c 1
 184 515 l 1
 258 591 l 1
 324 587 362 536 362 461 c 2
 362 78 l 2
 362 57 378 35 407 35 c 0
 435 35 452 58 452 77 c 2
 452 530 l 1
 501 588 l 2
 504 591 511 594 516 594 c 0
 523 594 530 588 530 567 c 2
 530 106 l 2
117 312 m 0
 147 312 162 334 162 356 c 0
 162 377 147 399 117 399 c 0
 88 399 74 378 74 356 c 0
 74 334 89 312 117 312 c 0
EndSplineSet
EndChar

StartChar: uni0E04
Encoding: 164 3588 131
Width: 589
Flags: W
HStem: 0 21G<101 180 412 488> 273 36<216.689 294.15> 407 37<216.266 294.889> 553 46<162.677 347.864>
VStem: 35 46<338.661 477.96> 101 79<0 275.1> 306 34<321.503 394.477> 412 76<0 489.428>
LayerCount: 2
Fore
SplineSet
255 309 m 0
 289 309 306 334 306 358 c 0
 306 382 289 407 255 407 c 0
 222 407 206 382 206 358 c 0
 206 334 222 309 255 309 c 0
124 321 m 1
 135 376 169 444 252 444 c 0
 310 444 340 402 340 359 c 0
 340 316 310 273 250 273 c 0
 212 273 190 301 190 301 c 1
 181 280 180 246 180 229 c 2
 180 0 l 1
 101 0 l 1
 101 224 l 2
 101 266 35 310 35 413 c 0
 35 519 129 599 247 599 c 0
 372 599 488 554 488 401 c 2
 488 0 l 1
 412 0 l 1
 412 401 l 2
 412 521 336 553 246 553 c 0
 149 553 81 479 81 413 c 0
 81 369 95 335 124 321 c 1
EndSplineSet
EndChar

StartChar: uni0E05
Encoding: 165 3589 132
Width: 588
Flags: W
HStem: 0 21G<101 180 410 487> 273 36<216.399 294.15> 407 37<216.362 294.889> 574 20G<148.5 195.143 319.429 362.5>
VStem: 35 48<339.169 485.276> 101 79<0 280.539> 306 34<321.503 394.477> 410 77<0 501.829>
DStem2: 170 594 166 538 0.795829 -0.605522<20.0958 112.419> 258 524 258 468 0.786012 0.618212<0 86.5957>
LayerCount: 2
Fore
SplineSet
487 0 m 1
 410 0 l 1
 410 399 l 2
 410 458 413 504 347 538 c 1
 258 468 l 1
 166 538 l 1
 131 528 83 479 83 413 c 0
 83 366 100 335 126 321 c 1
 138 390 169 444 252 444 c 0
 310 444 340 402 340 359 c 0
 340 316 310 273 250 273 c 0
 215 273 195 295 195 295 c 1
 184 287 180 267 180 240 c 2
 180 0 l 1
 101 0 l 1
 101 229 l 2
 101 272 35 316 35 413 c 0
 35 530 127 581 170 594 c 1
 258 524 l 1
 344 594 l 1
 381 588 487 551 487 399 c 2
 487 0 l 1
255 309 m 0
 289 309 306 334 306 358 c 0
 306 382 289 407 255 407 c 0
 222 407 206 382 206 358 c 0
 206 334 222 309 255 309 c 0
EndSplineSet
EndChar

StartChar: uni0E06
Encoding: 166 3590 133
Width: 757
Flags: W
HStem: -8 53<234.657 324.484> 0 21G<531 651> 141 49<369 440.25> 144 54<240.531 287> 280 32<88.7516 156.11> 399 34<86.6255 157.16> 452 21G<169.278 209> 573 21G<91.5 136.205 635.5 642>
VStem: 23 48<369.875 511.949> 166 33<321.86 389.75> 184 46<48.0043 134.549> 287 80<45.8086 141 198 523.48> 574 77<77 530>
DStem2: 118 593 118 524 0.673145 -0.739511<42.6933 105.475> 189 515 189 452 0.697617 0.716471<0 61.3014>
LayerCount: 2
Fore
SplineSet
230 90 m 0x9fb8
 230 59 248 45 264 45 c 0
 276 45 287 53 287 68 c 2
 287 144 l 1
 237 144 230 109 230 90 c 0x9fb8
287 461 m 2
 287 495 283 524 261 524 c 1
 189 452 l 1
 118 524 l 1
 92 524 71 492 71 437 c 0
 71 429 71 421 72 413 c 1
 72 413 86 433 121 433 c 0
 173 433 199 395 199 357 c 0
 199 319 172 280 120 280 c 0
 47 280 23 355 23 426 c 0
 23 525 65 577 118 593 c 1
 189 515 l 1
 263 591 l 1
 329 587 367 536 367 461 c 2
 367 190 l 1
 367 190 499 170 574 77 c 1
 574 530 l 1
 624 588 l 2
 627.28 591.774 633 594 638 594 c 0
 646 594 652 588 651 567 c 2
 651 0 l 1
 570 0 l 1
 492 134 369 141 369 141 c 1x6fd8
 369 117 l 2
 369 45 362 -8 284 -8 c 0
 216 -8 184 41 184 92 c 0
 184 141 215 198 287 198 c 1
 287 461 l 2
121 312 m 0
 151 312 166 334 166 356 c 0
 166 377 151 399 121 399 c 0
 92 399 79 378 79 356 c 0
 79 334 93 312 121 312 c 0
EndSplineSet
EndChar

StartChar: uni0E07
Encoding: 167 3591 134
Width: 479
Flags: W
HStem: 0 21G<276.487 378> 418 37<212.08 294.497> 556 38<212.322 295.002>
VStem: 163 38<466.299 545.056> 298 80<98 432> 306 72<463.572 545.875>
LayerCount: 2
Fore
SplineSet
378 0 m 1xf4
 295 0 l 1
 46 269 l 1
 48 326 l 1
 298 98 l 1
 298 432 l 1xf8
 287 419 270 418 257 418 c 0
 195 418 163 461 163 504 c 0
 163 549 197 594 264 594 c 0
 386 594 378 501 378 488 c 2
 378 0 l 1xf4
253 455 m 0
 288 455 306 480 306 506 c 0xf4
 306 531 288 556 253 556 c 0
 218 556 201 531 201 506 c 0
 201 480 218 455 253 455 c 0
EndSplineSet
EndChar

StartChar: uni0E08
Encoding: 168 3592 135
Width: 565
Flags: W
HStem: -5 43<299.303 376.127> 276 40<140.229 214.715> 406 41<140.061 214.898> 544 54<152.423 324.016>
VStem: 94 39<322.914 398.932> 215 78<46.123 286> 223 70<321.804 399.101> 382 80<43.9258 488.183>
LayerCount: 2
Fore
SplineSet
94 363 m 0xfd
 94 408 128 447 184 447 c 0
 271 447 293 402 293 355 c 2xfb
 293 81 l 2
 293 60 310 38 338 38 c 0
 367 38 382 61 382 80 c 2
 382 419 l 2
 382 495 324 544 243 544 c 0
 134 544 75 464 65 439 c 1
 32 453 l 1
 54 508 131 598 243 598 c 0
 375 598 462 533 462 413 c 2
 462 109 l 2
 462 43 418 -5 338 -5 c 0
 272 -5 215 48 215 109 c 2
 215 286 l 1
 203 280 192 276 178 276 c 0
 125 276 94 318 94 363 c 0xfd
178 316 m 0
 208 316 223 338 223 361 c 0
 223 384 208 406 178 406 c 0
 148 406 133 384 133 361 c 0
 133 338 148 316 178 316 c 0
EndSplineSet
EndChar

StartChar: uni0E09
Encoding: 169 3593 136
Width: 615
Flags: W
HStem: -8 40<429.253 506.321> 0 21G<177 254.5> 233 39<99.9733 174.101> 364 40<99.5104 174.411> 544 54<177.715 363.303>
VStem: 51 41<278.778 356.459> 177 76<0 43.2307 91 240 275.494 360.362> 384 38<39.5978 113.335> 432 78<172 480.364> 514 40<40.1655 113.442>
LayerCount: 2
Fore
SplineSet
467 -8 m 0xbfc0
 418 -8 384 34 384 76 c 0
 384 105 401 127 401 127 c 1
 292 106 257 14 252 0 c 1
 177 0 l 1x7fc0
 177 240 l 1
 162 235 149 233 137 233 c 0
 81 233 51 277 51 320 c 0
 51 383 102 404 150 404 c 0
 230 404 253 357 253 292 c 2
 253 91 l 1
 260 89 l 1
 260 89 300 166 432 172 c 1
 432 415 l 2
 432 490 366 544 270 544 c 0
 164 544 92 464 80 439 c 1
 48 453 l 1
 96 551 194 598 282 598 c 0
 402 598 510 532 510 416 c 2
 510 181 l 2
 510 169 495 164 495 164 c 1
 495 161 l 1
 533 152 554 115 554 78 c 0
 554 35 527 -8 467 -8 c 0xbfc0
137 272 m 0
 167 272 182 295 182 318 c 0
 182 341 167 364 137 364 c 0
 107 364 92 341 92 318 c 0
 92 295 107 272 137 272 c 0
467 32 m 0xbfc0
 498 32 514 54 514 76 c 0
 514 99 498 121 467 121 c 0
 437 121 422 99 422 76 c 0
 422 54 437 32 467 32 c 0xbfc0
EndSplineSet
EndChar

StartChar: uni0E0A
Encoding: 170 3594 137
Width: 583
Flags: W
HStem: 0 49<169 233 313 388.632> 319 33<85.7193 153.931> 398 52<313 378.363> 438 34<84.6466 154.429> 547 49<97.5954 209.194>
VStem: 25 45<362.074 518.361> 163 34<360.302 429.613> 233 80<49 398 450 523.096> 423 68<89.3336 340.025> 452 86<531.792 591>
LayerCount: 2
Fore
SplineSet
25 447 m 0xdf80
 25 535 79 596 167 596 c 0
 310 596 313 460 313 450 c 1
 425 450 451 551 452 591 c 1
 538 591 l 17xef40
 504 447 399 421 399 421 c 1
 459 405 491 308 491 211 c 0
 491 105 453 -0 370 -0 c 0
 169 0 l 1
 169 49 l 1
 233 49 l 1
 233 453 l 2
 233 502 214 547 152 547 c 0
 100 547 70 502 70 461 c 0
 70 457 70 454 71 450 c 1xef80
 83 467 101 472 123 472 c 0
 173 470 197 433 197 395 c 0
 197 357 172 319 123 319 c 0
 55 319 25 381 25 447 c 0xdf80
121 352 m 0
 149 352 163 374 163 395 c 0
 163 416 149 438 121 438 c 0xdf
 91 438 76 416 76 395 c 0
 76 374 91 352 121 352 c 0
367 387 m 0
 348 397 329 398 313 398 c 1
 313 49 l 1
 355 49 l 2
 400 49 423 131 423 215 c 0xef80
 423 290 405 367 367 387 c 0
EndSplineSet
EndChar

StartChar: uni0E0B
Encoding: 171 3595 138
Width: 649
Flags: W
HStem: 0 49<223 286 366 440.615> 280 32<88.7516 156.11> 399 51<366 427.558> 399 34<86.6255 157.16> 452 21G<169.278 209> 573 20G<91.5 136.205>
VStem: 23 48<369.875 511.949> 166 33<321.86 389.75> 286 80<49 399 450 522.664> 473 69<88.4477 337.922> 504 86<530.001 591>
DStem2: 118 593 118 524 0.673145 -0.739511<42.6933 105.475> 189 515 189 452 0.697617 0.716471<0 61.0806>
LayerCount: 2
Fore
SplineSet
421 386 m 0xefc0
 408 395 386 399 366 399 c 1
 366 49 l 1
 407 49 l 2
 451 50 473 130 473 213 c 0
 473 286 456 361 421 386 c 0xefc0
286 461 m 2
 286 495 283 524 261 524 c 1
 189 452 l 1
 118 524 l 1
 92 524 71 492 71 437 c 0
 71 429 71 421 72 413 c 1
 72 413 86 433 121 433 c 0xdfc0
 173 433 199 395 199 357 c 0
 199 319 172 280 120 280 c 0
 47 280 23 355 23 426 c 0
 23 525 65 577 118 593 c 1
 189 515 l 1
 263 591 l 1
 330 587 366 542 366 450 c 1
 478 450 502 547 504 591 c 1
 590 591 l 1xefa0
 562 456 452 422 452 422 c 1
 510 401 542 303 542 207 c 0
 542 103 505 -0 422 -0 c 2
 223 0 l 1
 223 49 l 1
 286 49 l 1
 286 461 l 2
121 312 m 0
 151 312 166 334 166 356 c 0
 166 377 151 399 121 399 c 0
 92 399 79 378 79 356 c 0
 79 334 93 312 121 312 c 0
EndSplineSet
EndChar

StartChar: uni0E0C
Encoding: 172 3596 139
Width: 815
Flags: W
HStem: -8 39<160.351 235.21 377.386 456.803> 0 21G<620.5 710> 120 43<374.764 422 499 559.98> 392 44<97 129 181.844 267> 550 49<180.571 356.731>
VStem: 95 80<154 382.326> 95 57<37.7877 114.994> 244 40<38.6773 112.648> 333 36<40.5322 115.833> 422 77<35.0059 120 166 487.077> 633 77<0 52.2927 94 530>
LayerCount: 2
Back
SplineSet
710 0 m 13xf8e0
 631 0 l 21
 610 111 499 120 499 120 c 5
 499 52 493 -8 418 -8 c 4
 360 -8 333 35 333 78 c 4
 333 122 363 168 422 166 c 5
 422 407 l 6
 421 507 349 550 272 550 c 4
 197 550 118 508 97 436 c 5
 267 436 l 5
 267 392 l 5xf8e0
 257 392 218 392 218 392 c 6
 174 392 175 343 175 341 c 6
 175 154 l 5xf2e0
 186 157 196 158 205 158 c 4
 256 158 284 116 284 74 c 4
 284 33 257 -8 198 -8 c 4
 117 -8 95 69 95 109 c 6xf5e0
 95 324 l 6xf2e0
 95 375 129 392 129 392 c 5
 45 392 l 5
 46 528 168 600 286 599 c 4
 391 597 492 537 499 413 c 5
 499 163 l 5
 499 163 596 149 633 94 c 5
 633 527 l 5
 680 585 l 6
 691 593 710 599 710 564 c 6
 710 564 710 45 710 0 c 13xf8e0
369 78 m 4
 369 30 422 18 422 61 c 6
 422 126 l 5
 389 129 369 104 369 78 c 4
197 31 m 4
 228 31 244 54 244 76 c 4
 244 98 228 121 197 121 c 4
 167 121 152 98 152 76 c 4xf5e0
 152 54 167 31 197 31 c 4
EndSplineSet
Fore
SplineSet
284 599 m 0xbde0
 389 599 499 533 499 413 c 6
 499 163 l 1
 499 163 596 149 633 94 c 1
 633 530 l 1
 680 588 l 2
 683 592 690 594 695 594 c 0
 703 594 710 588 710 567 c 2
 710 0 l 9
 631 0 l 17x7de0
 610 111 499 120 499 120 c 1
 499 52 493 -8 418 -8 c 0
 360 -8 333 35 333 78 c 0
 333 113 353 166 422 166 c 1
 422 407 l 2
 422 506 349 550 272 550 c 0
 197 550 118 508 97 436 c 1
 267 436 l 1
 267 392 l 1
 218 392 l 2
 176 392 175 347 175 342 c 2
 175 154 l 1xbde0
 186 157 196 158 205 158 c 0
 256 158 284 116 284 74 c 0
 284 33 257 -8 198 -8 c 0
 117 -8 95 69 95 109 c 2xbbe0
 95 324 l 2
 95 375 129 392 129 392 c 1
 45 392 l 1
 46 527 166 599 284 599 c 0xbde0
369 78 m 0
 369 50 387 35 402 35 c 0
 413 35 422 43 422 61 c 2
 422 126 l 1
 375 126 369 91 369 78 c 0
197 31 m 0xbbe0
 228 31 244 54 244 76 c 0
 244 98 228 121 197 121 c 0
 167 121 152 98 152 76 c 0
 152 54 167 31 197 31 c 0xbbe0
EndSplineSet
EndChar

StartChar: uni0E0D
Encoding: 173 3597 140
Width: 800
Flags: W
HStem: -230 32<471.012 583.656> -169 28<450.163 510.046> -66 28<449.977 510.155> -8 37<177.431 248.773 496.032 593.626> 121 41<175.356 252.015> 392 44<97 129 181.844 267> 547 51<173.248 339.022>
VStem: 95 80<154 382.326> 95 72<37.7877 115.196> 259 39<39.6944 112.977> 395 77<48.796 489.224> 401 41<-135.965 -70.1733> 518 29<-132.732 -73.7623> 617 77<51.1894 530> 624 70<-164.252 -52>
LayerCount: 2
Fore
SplineSet
694 104 m 2xfe4c
 694 54 631 -8 542 -8 c 0
 456 -8 395 48 395 112 c 2
 395 407 l 2
 395 506 330 547 260 547 c 0
 182 547 113 500 97 436 c 1
 267 436 l 1
 267 392 l 1
 218 392 l 2
 176 392 175 347 175 342 c 2
 175 154 l 1xff6c
 190 159 205 162 217 162 c 0
 270 162 298 120 298 78 c 0
 298 37 267 -8 212 -8 c 0
 111 -8 95 69 95 109 c 2xfec8
 95 324 l 2
 95 375 129 392 129 392 c 1
 45 392 l 1
 49 527 159 598 270 598 c 0
 381 598 472 518 472 413 c 2
 472 101 l 2
 472 61 501 29 544 29 c 0
 588 29 617 60 617 100 c 2
 617 530 l 1xff6c
 665 588 l 2
 668 592 675 594 680 594 c 0
 688 594 694 588 694 567 c 2xfe4a
 694 104 l 2xfe4c
212 32 m 0
 244 32 259 54 259 76 c 0
 259 99 244 121 212 121 c 0
 182 121 167 99 167 76 c 0xfec8
 167 54 182 32 212 32 c 0
401 -117 m 0xfe5a
 401 -86 417 -38 482 -38 c 0
 524 -38 547 -68 547 -108 c 0
 547 -140 518 -169 482 -169 c 0
 465 -169 455 -163 445 -157 c 1
 458 -180 487 -198 533 -198 c 0
 587 -198 624 -152 624 -106 c 2
 624 -52 l 1
 694 -52 l 1
 694 -108 l 2
 694 -155 653 -230 533 -230 c 0
 421 -230 401 -149 401 -117 c 0xfe5a
518 -103 m 0
 518 -78 499 -66 480 -66 c 0
 461 -66 442 -78 442 -103 c 0
 442 -128 461 -141 480 -141 c 0
 499 -141 518 -128 518 -103 c 0
EndSplineSet
Substitution2: "Thai Descender Removal Single Substitution" uni0E0D.descless
EndChar

StartChar: uni0E0E
Encoding: 174 3598 141
Width: 612
Flags: W
HStem: -212 43<132.032 231.523> -83 43<133.532 262.188> -8 40<62.5582 137.408> 121 42<61.3281 105.449> 392 44<106 138 191.117 278> 550 49<189.722 366.633>
VStem: 16 39<39.6929 113.189> 81 45<-161.693 -91.7967> 106 78<163 385.145> 145 39<39.0592 114.054> 432 78<-241 -201.797 -160 486.453>
AnchorPoint: "BelowBase" 509.952 -245.76 basechar 0
LayerCount: 2
Fore
SplineSet
510 -241 m 1xfea0
 432 -241 l 0
 427 -217 373 -141 304 -111 c 1
 304 -111 272 -212 184 -212 c 0
 126 -212 81 -183 81 -126 c 0xff60
 81 -78 128 -40 196 -40 c 0
 219 -40 245 -44 273 -55 c 1
 273 -55 289 -3 326 12 c 1
 362 -5 l 1
 321 -34 315 -69 315 -69 c 1
 395 -97 432 -160 432 -160 c 1
 432 407 l 2
 432 506 359 550 281 550 c 0
 206 550 127 509 106 436 c 1
 278 436 l 1
 278 392 l 1
 230 392 l 2
 183 392 184 343 184 341 c 2xfea0
 184 80 l 2xfe60
 184 25 147 -8 100 -8 c 0
 44 -8 16 35 16 77 c 0
 16 120 44 163 100 163 c 0
 106 163 l 1
 106 332 l 2
 106 378 138 392 138 392 c 1
 54 392 l 1
 58 531 176 599 291 599 c 0
 402 599 510 535 510 407 c 2
 510 -241 l 1xfea0
100 32 m 0
 130 32 145 54 145 76 c 0
 145 99 130 121 100 121 c 0
 70 121 55 99 55 76 c 0
 55 54 70 32 100 32 c 0
263 -95 m 1
 237 -86 210 -83 189 -83 c 0
 157 -83 126 -94 126 -126 c 0
 126 -163 161 -169 184 -169 c 0
 232 -169 255 -121 263 -95 c 1
EndSplineSet
EndChar

StartChar: uni0E0F
Encoding: 175 3599 142
Width: 612
Flags: W
HStem: -241 43<28.3206 111.324> -163 48<299.839 399.608> -111 43<28.4003 136.468> -8 40<62.4801 137.408> 121 42<62.6719 105.449> 392 44<106 140 191.294 278> 550 49<189.722 366.633>
VStem: -22 44<-191.501 -117.95> 15 40<38.9525 113.593> 106 78<163 384.743> 145 39<39.0592 114.054> 224 46<-240 -194.748> 432 78<-241 -195.011 -155 486.453>
AnchorPoint: "BelowBase" 510 -246 basechar 0
LayerCount: 2
Fore
SplineSet
100 32 m 0xfeb8
 130 32 145 54 145 76 c 0
 145 99 130 121 100 121 c 0
 70 121 55 99 55 76 c 0
 55 54 70 32 100 32 c 0xfeb8
137 -129 m 1
 118 -117 98 -111 81 -111 c 0
 31 -111 22 -135 22 -154 c 0xff18
 22 -173 34 -198 71 -198 c 0
 103 -198 114 -179 137 -129 c 1
172 -157 m 1
 154 -194 129 -241 66 -241 c 0
 -1 -241 -22 -184 -22 -155 c 0
 -22 -95 28 -68 81 -68 c 0
 106 -68 131 -75 155 -89 c 1
 169 -63 189 -40 223 -26 c 1
 252 -54 l 1
 223 -66 204 -89 192 -115 c 1
 218 -137 240 -164 249 -187 c 1
 269 -139 309 -115 349 -115 c 0
 379 -115 409 -128 432 -155 c 1
 432 407 l 2
 432 506 359 550 281 550 c 0
 206 550 127 509 106 436 c 1
 278 436 l 1
 278 392 l 1
 230 392 l 2
 185 392 184 347 184 341 c 2xff58
 184 80 l 2xfe38
 184 25 147 -8 100 -8 c 0
 44 -8 15 35 15 78 c 0
 15 121 43 163 100 163 c 2
 106 163 l 1
 106 332 l 2xfed8
 106 381 140 392 140 392 c 1
 54 392 l 1
 58 531 176 599 291 599 c 0
 402 599 510 535 510 407 c 2
 510 -241 l 1
 436 -241 l 1
 417 -189 383 -163 349 -163 c 0
 316 -163 284 -189 270 -240 c 1
 224 -240 l 1
 220 -210 198 -180 172 -157 c 1
EndSplineSet
EndChar

StartChar: uni0E10
Encoding: 176 3600 143
Width: 508
Flags: W
HStem: -276 53<215 326> -233 35<49.8845 107.44> -192 35<271.344 325.518> -127 33<50.6694 114> -83 37<270.245 332.844> -8 43<259.053 323.871> 190 39<102.149 175.379> 319 39<101.516 174.241> 492 71<259.11 411.065> 530 68<108.878 262.179>
VStem: 13 32<-193.066 -132.876> 54 40<235.924 311.839> 116 34<-190.273 -149 -96.981 -61.4226> 174 41<-223 -156.416> 178 75<40.8599 198 232.481 313.98> 230 35<-151.444 -89.0174> 330 77<-220.366 -186 39.1193 371.312> 338 69<-154.482 -86.4712>
DStem2: 81 476 28 443 0.968685 -0.248291<0 272.325>
LayerCount: 2
Fore
SplineSet
453 582 m 0x3fba80
 453 573 434 492 342 492 c 0x3fba80
 286 492 225 530 156 530 c 0
 118 530 96 512 81 476 c 1
 358 405 l 2
 374 401 407 392 407 332 c 2
 407 106 l 2
 407 41 370 -8 292 -8 c 0
 227 -8 178 45 178 106 c 2
 178 198 l 1
 166 192 154 190 138 190 c 0
 86 190 54 230 54 276 c 0
 54 314 83 358 138 358 c 0
 220 358 253 319 253 270 c 2
 253 78 l 2
 253 58 266 35 292 35 c 0
 318 35 330 58 330 77 c 2
 330 321 l 2
 330 353 324 368 301 374 c 2
 28 443 l 1
 40 481 73 598 179 598 c 0x3f7a80
 232 598 316 563 377 563 c 0
 433 563 434 591 447 591 c 0
 450 591 453 588 453 582 c 0x3fba80
138 229 m 0
 168 229 183 252 183 274 c 0
 183 296 168 319 138 319 c 0
 109 319 94 296 94 274 c 0
 94 252 109 229 138 229 c 0
300 -192 m 0
 258 -192 230 -160 230 -120 c 0
 230 -83 253 -46 303 -46 c 0
 364 -46 401 -75 407 -131 c 2xbf3d40
 407 -218 l 2
 407 -243 396 -276 355 -276 c 2
 174 -276 l 1xbf3c80
 174 -226 l 2
 174 -198 170 -175 149 -149 c 1
 149 -151 150 -154 150 -158 c 0
 150 -181 141 -233 80 -233 c 0x7f3c80
 27 -233 13 -181 13 -163 c 0
 13 -129 40 -94 88 -94 c 0
 96 -94 105 -95 114 -97 c 1
 114 -85 114 -69 123 -57 c 1
 158 -61 l 1
 151 -70 148 -80 148 -90 c 0
 148 -101 152 -111 152 -111 c 1
 214 -134 215 -214 215 -223 c 1
 298 -223 l 2xbf3c80
 309 -223 326 -215 326 -201 c 2
 326 -186 l 1
 323 -186 317 -192 300 -192 c 0
303 -157 m 0
 326 -157 338 -138 338 -120 c 0
 338 -102 326 -83 303 -83 c 0
 278 -83 265 -102 265 -120 c 0
 265 -138 278 -157 303 -157 c 0
114 -132 m 1
 114 -132 92 -127 77 -127 c 0
 56 -129 45 -146 45 -163 c 0
 45 -181 57 -198 80 -198 c 0x7f38
 100 -198 116 -178 116 -148 c 0
 116 -143 115 -138 114 -132 c 1
EndSplineSet
Substitution2: "Thai Descender Removal Single Substitution" uni0E10.descless
EndChar

StartChar: uni0E11
Encoding: 177 3601 144
Width: 780
Flags: W
HStem: 0 21G<287 367.062 596 674> 280 32<88.7516 156.11> 399 34<86.6255 157.16> 452 21G<169.278 209> 531 62<499.931 587.187>
VStem: 23 48<369.875 511.949> 166 33<321.86 389.75> 287 80<0 8.23932 184 523.48> 596 78<0 523.429>
DStem2: 118 593 118 524 0.673145 -0.739511<42.6933 105.475> 189 515 189 452 0.697617 0.716471<0 61.3014> 367 184 362 0 0.245374 0.969428<0 361.995>
LayerCount: 2
Fore
SplineSet
287 461 m 2
 287 495 283 524 261 524 c 1
 189 452 l 1
 118 524 l 1
 92 524 71 492 71 437 c 0
 71 429 71 421 72 413 c 1
 72 413 86 433 121 433 c 0
 173 433 199 395 199 357 c 0
 199 319 172 280 120 280 c 0
 47 280 23 355 23 426 c 0
 23 525 65 577 118 593 c 1
 189 515 l 1
 263 591 l 1
 329 587 367 536 367 461 c 2
 367 184 l 1
 450 498 l 2
 463 563 513 593 562 593 c 0
 624 593 674 550 674 464 c 2
 674 0 l 1
 596 0 l 1
 596 468 l 2
 596 518 572 531 546 531 c 0
 521 531 494 514 484 482 c 2
 362 0 l 1
 287 0 l 1
 287 461 l 2
121 312 m 0
 151 312 166 334 166 356 c 0
 166 377 151 399 121 399 c 0
 92 399 79 378 79 356 c 0
 79 334 93 312 121 312 c 0
EndSplineSet
EndChar

StartChar: uni0E12
Encoding: 178 3602 145
Width: 801
Flags: W
HStem: -8 52<365.191 405.574> 0 21G<101 180 610.5 694> 151 46<373.839 406> 257 36<209.547 253.352> 395 40<208.773 289.035> 574 20G<147.5 197.143 321.429 372.5 678.5 684.5>
VStem: 37 47<303.942 478.689> 101 79<0 138.961> 160 39<302.247 385.264> 299 48<302.211 385.973> 311 50<45.7711 141.506> 406 78<44.4391 151 193.962 506.416> 616 78<0 48.1194 88 530>
DStem2: 172 594 167 538 0.798968 -0.601374<20.9071 112.405> 260 524 260 468 0.786012 0.618212<0 86.4079>
LayerCount: 2
Fore
SplineSet
247 293 m 0x3ed8
 282 293 299 318 299 344 c 0
 299 370 282 395 247 395 c 0
 215 395 199 370 199 344 c 0
 199 318 215 293 247 293 c 0x3ed8
361 86 m 0xbe38
 361 58 377 44 390 44 c 0
 399 44 406 50 406 63 c 2
 406 151 l 1
 378 151 361 117 361 86 c 0xbe38
347 344 m 0xbed8
 347 227 180 172 180 86 c 2
 180 0 l 1
 101 0 l 1
 101 94 l 2
 101 220 37 298 37 384 c 0
 37 531 123 578 172 594 c 1
 260 524 l 1
 346 594 l 1
 399 582 484 547 484 396 c 2
 484 194 l 1
 484 194 584 158 616 88 c 1
 616 530 l 1
 667 588 l 2
 670 592 676 594 681 594 c 0
 688 594 694 588 694 567 c 2
 694 0 l 1
 614 0 l 1x7f58
 607 58 531 131 484 151 c 1
 484 81 l 2
 484 32 470 -8 402 -8 c 0
 340 -8 311 39 311 88 c 0xbf38
 311 139 343 193 406 197 c 1
 406 401 l 2
 406 482 395 515 349 538 c 1
 260 468 l 1
 167 538 l 1
 126 519 84 475 84 384 c 0
 84 359 103 301 121 272 c 0
 166 192 160 175 164 166 c 1
 179 197 254 249 254 256 c 0
 254 257 253 257 252 257 c 0
 190 257 160 298 160 346 c 0
 160 387 190 435 247 435 c 0
 304 435 347 399 347 344 c 0xbed8
EndSplineSet
EndChar

StartChar: uni0E13
Encoding: 179 3603 146
Width: 800
Flags: W
HStem: -8 40<174.006 252.018 617.633 693.575> 0 21G<392 475.5> 121 41<175.356 251.593> 392 44<97 131 182.439 267> 547 51<171.157 336.582>
VStem: 95 80<155 381.305> 95 72<38.174 115.196> 259 39<40.1655 112.977> 392 80<0 53.9497 101 490.516> 571 39<39.5523 113.218> 616 78<169.082 530> 701 38<39.9917 112.942>
LayerCount: 2
Fore
SplineSet
298 78 m 0x7df0
 298 35 267 -8 205 -8 c 0
 114 -8 95 70 95 109 c 2xbbf0
 95 326 l 2
 95 376 131 392 131 392 c 1
 45 392 l 1
 48 525 162 598 271 598 c 0
 373 598 472 529 472 416 c 2
 472 101 l 1
 472 101 511 170 601 170 c 0
 606 170 611 169 616 169 c 1
 616 530 l 1
 665 588 l 2
 668 592 675 594 680 594 c 0
 688 594 694 588 694 567 c 2
 694 181 l 2
 694 169 682 160 682 160 c 1
 720 151 739 114 739 77 c 0
 739 35 713 -8 656 -8 c 0xbdf0
 588 -8 571 47 571 74 c 0
 571 106 590 132 590 132 c 1
 505 118 478 18 473 0 c 1
 392 0 l 1
 392 410 l 2
 392 507 328 547 259 547 c 0
 188 547 112 504 97 436 c 1
 267 436 l 1
 267 392 l 1
 218 392 l 2
 176 392 175 343 175 336 c 2
 175 155 l 1
 190 160 204 162 216 162 c 0
 269 162 298 120 298 78 c 0x7df0
656 32 m 0
 686 32 701 54 701 76 c 0
 701 99 686 121 656 121 c 0
 625 121 610 99 610 76 c 0
 610 54 625 32 656 32 c 0
212 32 m 0
 244 32 259 54 259 76 c 0
 259 99 244 121 212 121 c 0
 182 121 167 99 167 76 c 0
 167 54 182 32 212 32 c 0
EndSplineSet
EndChar

StartChar: uni0E14
Encoding: 180 3604 147
Width: 609
Flags: W
HStem: 0 21G<114 190 430 507> 273 36<229.787 256.537> 409 40<227.138 308.552> 551 47<182.586 361.568>
VStem: 51 47<302.881 469.87> 114 76<0 140.677> 180 37<319.699 398.272> 319 47<319.047 400.336> 430 77<0 482.627>
LayerCount: 2
Fore
SplineSet
366 358 m 0xfb80
 366 241 190 172 190 86 c 2
 190 0 l 1
 114 0 l 1
 114 94 l 2xfd80
 114 220 51 298 51 384 c 0
 51 533 178 598 270 598 c 0
 362 598 507 564 507 396 c 2
 507 0 l 1
 430 0 l 1
 430 396 l 2
 430 476 387 551 270 551 c 0
 210 551 98 516 98 384 c 0
 98 307 163 244 178 166 c 1
 194 203 286 273 273 273 c 0
 215 272 180 310 180 361 c 0
 180 412 213 449 269 449 c 0
 325 449 366 413 366 358 c 0xfb80
269 309 m 0
 302 309 319 334 319 359 c 0
 319 384 302 409 269 409 c 0
 234 409 217 384 217 359 c 0xfb80
 217 334 234 309 269 309 c 0
EndSplineSet
EndChar

StartChar: uni0E15
Encoding: 181 3605 148
Width: 609
Flags: W
HStem: 0 21G<114 190 430 507> 258 35<223.844 242.406> 395 40<221.223 301.671> 574 20G<163.5 215.143 339.429 390>
VStem: 51 47<300.018 475.042> 114 76<0 128.31> 169 42<301.779 386.196> 312 46<301.132 386.13> 430 77<0 500.417>
DStem2: 190 594 186 538 0.795829 -0.605522<20.0519 112.419> 278 524 278 468 0.786012 0.618212<0 86.8528>
LayerCount: 2
Fore
SplineSet
358 343 m 0xfb80
 358 226 190 160 190 74 c 2
 190 0 l 1
 114 0 l 1
 114 94 l 2
 114 220 51 298 51 384 c 0
 51 527 137 574 190 594 c 1xfd80
 278 524 l 1
 364 594 l 1
 416 584 507 542 507 396 c 2
 507 0 l 1
 430 0 l 1
 430 416 l 2
 430 496 409 515 367 538 c 1
 278 468 l 1
 186 538 l 1
 151 528 98 475 98 384 c 0
 98 359 115 301 134 272 c 0
 180 192 180 166 183 174 c 0
 198 203 273 258 261 258 c 0
 207 258 169 292 169 347 c 0
 169 402 207 435 261 435 c 0
 315 435 358 399 358 343 c 0xfb80
261 293 m 0
 295 293 312 318 312 344 c 0
 312 370 295 395 261 395 c 0
 228 395 211 370 211 344 c 0xfb80
 211 318 228 293 261 293 c 0
EndSplineSet
EndChar

StartChar: uni0E16
Encoding: 182 3606 149
Width: 602
Flags: W
HStem: -8 40<173.511 250.061> 0 21G<421 498> 121 41<174.548 250.694> 392 44<95 127 181.241 266> 550 49<177.877 358.48>
VStem: 94 80<155 382.908> 94 72<38.3287 114.636> 258 39<39.4138 113.381> 421 77<0 486.104>
LayerCount: 2
Fore
SplineSet
297 79 m 0x7d80
 297 35 266 -8 205 -8 c 0
 113 -8 94 70 94 109 c 2xbb80
 94 326 l 2
 94 375 127 392 127 392 c 1
 43 392 l 1
 44 527 164 599 281 599 c 0
 383 599 498 535 498 416 c 2
 498 0 l 1
 421 0 l 1
 421 410 l 2
 420 508 351 550 270 550 c 0
 194 550 114 507 95 436 c 1
 266 436 l 1
 266 392 l 1
 217 392 l 2
 176 392 174 346 174 336 c 2
 174 155 l 1
 189 160 203 162 215 162 c 0
 269 162 297 121 297 79 c 0x7d80
212 32 m 0
 242 32 258 54 258 76 c 0
 258 99 242 121 212 121 c 0
 182 121 166 99 166 76 c 0
 166 54 182 32 212 32 c 0
EndSplineSet
EndChar

StartChar: uni0E17
Encoding: 183 3607 150
Width: 655
Flags: W
HStem: 0 21G<166 243.072 475 551> 420 37<82.7253 162.199> 534 62<376.787 463.91> 558 38<81.7925 161.939>
VStem: 35 36<468.861 546.834> 166 77<0 8.22034 177 427> 173 70<464.887 548.75> 475 76<0 525.125>
DStem2: 243 177 238 0 0.245826 0.969314<0 369.751>
LayerCount: 2
Fore
SplineSet
551 0 m 1xed
 475 0 l 1
 475 472 l 2
 475 515 453 533 426 534 c 0
 400 535 372 518 361 485 c 2
 238 0 l 1
 166 0 l 1
 166 427 l 1xed
 154 420 137 420 124 420 c 0
 65 420 35 463 35 507 c 0
 35 551 66 596 131 596 c 0
 250 596 243 504 243 494 c 2xdb
 243 177 l 1
 327 501 l 2
 344 566 394 596 442 596 c 0
 502 596 551 557 551 467 c 2
 551 0 l 1xed
123 457 m 0
 156 457 173 482 173 508 c 0
 173 533 156 558 123 558 c 0xdb
 88 558 71 533 71 508 c 0
 71 482 88 457 123 457 c 0
EndSplineSet
EndChar

StartChar: uni0E18
Encoding: 184 3608 151
Width: 508
Flags: W
HStem: 0 45<52 97 175 314.821> 492 72<256.349 411.153> 530 68<108.515 262.365>
VStem: 97 78<45 364> 330 77<60.4629 371.312>
DStem2: 81 476 28 443 0.968685 -0.248291<0 272.325>
LayerCount: 2
Fore
SplineSet
342 492 m 0xd8
 286 492 224 530 156 530 c 0
 116 529 96 512 81 476 c 1
 358 405 l 2
 374 401 407 392 407 332 c 2
 407 108 l 2
 407 35 370 0 306 0 c 2
 52 0 l 1
 52 45 l 1
 97 45 l 1
 97 364 l 1
 175 364 l 1
 175 45 l 1
 250 45 l 2
 304 45 330 66 330 114 c 2
 330 321 l 2
 330 353 324 368 301 374 c 2
 28 443 l 1
 40 481 73 598 179 598 c 0xb8
 238 598 311 564 375 564 c 0
 431 564 436 591 447 591 c 0
 450 591 453 588 453 582 c 0
 453 573 434 492 342 492 c 0xd8
EndSplineSet
EndChar

StartChar: uni0E19
Encoding: 185 3609 152
Width: 663
Flags: W
HStem: -8 40<466.475 543.262> 0 21G<166 249.371> 131 41<346.699 436> 418 38<79.7589 161.482> 558 40<79.6532 161.57>
VStem: 33 36<468.303 546.129> 166 77<77 427 460.997 552.994> 418 41<38.846 114.479> 468 79<172 528> 551 38<40.1655 112.672>
LayerCount: 2
Back
SplineSet
547 186 m 2
 547 172 530 163 530 163 c 1
 614 138 610 -8 502 -8 c 0
 462 -8 433 15 422 54 c 0
 409 97 436 131 436 131 c 1
 303 132 246 15 238 0 c 1
 166 0 l 1
 166 427 l 1
 154 418 137 418 123 418 c 0
 64 416 33 462 33 507 c 0
 33 552 65 598 129 598 c 0
 250 598 243 504 243 493 c 2
 243 77 l 1
 243 77 293 175 468 172 c 1
 468 531 l 1
 518 591 l 2
 527 598 547 605 547 568 c 2
 547 186 l 2
121 456 m 0
 155 456 172 482 172 507 c 0
 172 532 155 558 121 558 c 0
 86 558 69 532 69 507 c 0
 69 482 86 456 121 456 c 0
504 32 m 0
 567 32 567 121 504 121 c 0
 444 121 444 32 504 32 c 0
EndSplineSet
Fore
SplineSet
502 -8 m 0xbfc0
 435 -8 418 52 418 78 c 0
 418 109 436 131 436 131 c 1
 317.2 131 260.742 42.6416 238 0 c 1
 166 0 l 1x7fc0
 166 427 l 1
 153 417 131 418 119 418 c 0
 63 418 33 463 33 507 c 0
 33 552 65 598 129 598 c 0
 237 598 243 522 243 499 c 2
 243 77 l 1
 252.625 95.6568 307.647 172 468 172 c 1
 468 528 l 1
 518 588 l 2
 521.214 591.83 527 594 532 594 c 0
 540 594 547 587 547 565 c 2
 547 186 l 2
 547 172 530 163 530 163 c 1
 568 152 589 115 589 78 c 0
 589 35 561 -8 502 -8 c 0xbfc0
121 456 m 0
 155 456 172 482 172 507 c 0
 172 532 155 558 121 558 c 0
 86 558 69 532 69 507 c 0
 69 482 86 456 121 456 c 0
504 32 m 0xbfc0
 536 32 551 54 551 76 c 0
 551 99 536 121 504 121 c 0
 474 121 459 99 459 76 c 0
 459 54 474 32 504 32 c 0xbfc0
EndSplineSet
EndChar

StartChar: uni0E1A
Encoding: 186 3610 153
Width: 649
Flags: W
HStem: 0 45<111 166 243 448.425> 418 38<80.2729 161.453> 558 38<79.8221 159.891>
VStem: 30 39<466.734 547.833> 166 77<45 425 460.997 552.087> 467 78<60.5885 529>
LayerCount: 2
Back
SplineSet
545 106 m 2
 545 64 522 0 441 0 c 2
 111 0 l 1
 111 45 l 1
 166 45 l 1
 166 425 l 1
 158 421 137 418 124 418 c 0
 62 418 30 461 30 505 c 0
 30 550 64 596 131 596 c 0
 250 596 243 504 243 493 c 2
 243 45 l 1
 399 45 l 2
 433 45 467 62 467 118 c 2
 467 531 l 1
 518 590 l 2
 528 598 547 604 545 568 c 2
 545 106 l 2
121 456 m 0
 155 456 172 482 172 507 c 0
 172 532 155 558 121 558 c 0
 86 558 69 532 69 507 c 0
 69 482 86 456 121 456 c 0
EndSplineSet
Fore
SplineSet
545 106 m 2
 545 64 522 0 441 0 c 2
 111 0 l 1
 111 45 l 1
 166 45 l 1
 166 425 l 1
 158 421 137 418 124 418 c 0
 62 418 30 461 30 505 c 0
 30 550 64 596 131 596 c 0
 237 596 243 522 243 499 c 2
 243 45 l 1
 399 45 l 2
 433 45 467 62 467 118 c 2
 467 529 l 1
 518 588 l 2
 521 592 527 594 532 594 c 0
 540 594 545 588 545 566 c 2
 545 106 l 2
121 456 m 0
 155 456 172 482 172 507 c 0
 172 532 155 558 121 558 c 0
 86 558 69 532 69 507 c 0
 69 482 86 456 121 456 c 0
EndSplineSet
EndChar

StartChar: uni0E1B
Encoding: 187 3611 154
Width: 665
Flags: W
HStem: 0 45<111 166 243 463.516> 418 38<80.2729 161.453> 558 38<79.8221 159.891>
VStem: 30 39<466.734 547.833> 166 77<45 425 460.997 552.087> 482 79<60.5885 911>
AnchorPoint: "AboveBase" 386 645 basechar 0
LayerCount: 2
Fore
SplineSet
561 106 m 2
 561 64 538 0 456 0 c 2
 111 0 l 1
 111 45 l 1
 166 45 l 1
 166 425 l 1
 158 421 137 418 124 418 c 0
 62 418 30 461 30 505 c 0
 30 550 64 596 131 596 c 0
 237 596 243 522 243 499 c 2
 243 45 l 1
 415 45 l 2
 449 45 482 64 482 118 c 2
 482 911 l 1
 533 969 l 2
 536 973 543 975 548 975 c 0
 556 975 561 969 561 948 c 2
 561 106 l 2
121 456 m 0
 155 456 172 482 172 507 c 0
 172 532 155 558 121 558 c 0
 86 558 69 532 69 507 c 0
 69 482 86 456 121 456 c 0
EndSplineSet
EndChar

StartChar: uni0E1C
Encoding: 188 3612 155
Width: 649
Flags: W
HStem: 0 21G<92 172 467 545> 428 38<177.431 256.877> 563 35<180.088 255.352>
VStem: 92 80<0 78.1562 115 437 471.161 556.597> 267 32<478.223 550.489> 467 78<0 74.125 118 530>
DStem2: 172 115 183 58 0.457137 0.889396<0 245.968> 319 401 319 316 0.463422 -0.886138<75.3217 319.363>
LayerCount: 2
Fore
SplineSet
209 598 m 0
 284 598 299 543 299 514 c 0
 299 471 271 428 217 428 c 0
 204 428 189 431 172 437 c 1
 172 115 l 1
 319 401 l 1
 467 118 l 1
 467 530 l 1
 518 588 l 2
 521 591 528 594 533 594 c 0
 539 594 545 589 545 572 c 2
 545 0 l 1
 467 0 l 1
 467 22 l 2
 467 43 458 51 455 58 c 2
 319 316 l 1
 183 58 l 2
 180 51 172 45 172 22 c 2
 172 0 l 1
 92 0 l 1
 92 494 l 2
 92 538 118 598 209 598 c 0
218 466 m 0
 250 466 267 490 267 514 c 0
 267 539 250 563 218 563 c 0
 184 563 168 539 168 514 c 0
 168 490 184 466 218 466 c 0
EndSplineSet
EndChar

StartChar: uni0E1D
Encoding: 189 3613 156
Width: 665
Flags: W
HStem: 0 21G<92 172 482 561> 428 38<177.431 256.877> 563 35<180.088 255.352>
VStem: 92 80<0 71 117 437 471.161 556.597> 267 32<478.223 550.489> 482 79<0 71 118 902>
DStem2: 172 117 183 54 0.471377 0.881932<0 257.387> 327 407 327 326 0.472644 -0.881253<71.3815 327.942>
AnchorPoint: "AboveBase" 386 645 basechar 0
LayerCount: 2
Fore
SplineSet
209 598 m 0
 284 598 299 543 299 514 c 0
 299 471 271 428 217 428 c 0
 204 428 189 431 172 437 c 1
 172 117 l 1
 327 407 l 1
 482 118 l 1
 482 902 l 1
 533 960 l 2
 536 963 541 966 546 966 c 0
 554 966 561 959 561 935 c 2
 561 0 l 1
 482 0 l 1
 482 17 l 2
 482 38 473 46 470 54 c 2
 327 326 l 1
 183 54 l 2
 180 46 172 40 172 17 c 2
 172 0 l 1
 92 0 l 1
 92 494 l 2
 92 538 118 598 209 598 c 0
218 466 m 0
 250 466 267 490 267 514 c 0
 267 539 250 563 218 563 c 0
 184 563 168 539 168 514 c 0
 168 490 184 466 218 466 c 0
EndSplineSet
EndChar

StartChar: uni0E1E
Encoding: 190 3614 157
Width: 723
Flags: W
HStem: 0 21G<167 254.878 530.163 619> 420 39<81.6698 163.274> 560 38<82.2925 160.937>
VStem: 36 35<471.2 547.715> 167 77<0 23.0201 115 428 463.842 555.177> 542 77<0 23.0201 115 530>
DStem2: 244 115 249 0 0.281954 0.959428<0 401.797> 407 588 393 490 0.28015 -0.959956<90.1536 491.88>
LayerCount: 2
Fore
SplineSet
619 0 m 1
 536 0 l 1
 393 490 l 1
 249 0 l 1
 167 0 l 1
 167 428 l 1
 160 423 138 420 126 420 c 0
 66 420 36 464 36 508 c 0
 36 553 67 598 132 598 c 0
 238 598 244 526 244 503 c 2
 244 115 l 1
 379 588 l 1
 407 588 l 1
 542 115 l 1
 542 530 l 1
 593 588 l 2
 596 591 603 594 607 594 c 0
 614 594 619 589 619 572 c 2
 619 0 l 1
123 459 m 0
 156 459 173 484 173 510 c 0
 173 535 156 560 123 560 c 0
 88 560 71 535 71 510 c 0
 71 484 88 459 123 459 c 0
EndSplineSet
EndChar

StartChar: uni0E1F
Encoding: 191 3615 158
Width: 723
Flags: W
HStem: 0 21G<167 254.878 530.163 619> 420 39<81.6698 163.274> 560 38<82.2925 160.937>
VStem: 36 35<471.2 547.715> 167 77<0 23.0201 111 428 463.842 555.177> 542 77<0 23.0201 111 902>
DStem2: 244 111 249 0 0.281954 0.959428<0 405.634> 407 591 393 490 0.28015 -0.959956<93.0335 498.599>
AnchorPoint: "AboveBase" 444 645 basechar 0
LayerCount: 2
Fore
SplineSet
619 0 m 1
 536 0 l 1
 393 490 l 1
 249 0 l 1
 167 0 l 1
 167 428 l 1
 160 423 138 420 126 420 c 0
 66 420 36 464 36 508 c 0
 36 553 67 598 132 598 c 0
 238 598 244 526 244 503 c 2
 244 111 l 1
 379 591 l 1
 407 591 l 1
 542 111 l 1
 542 902 l 1
 593 962 l 2
 596 965 600 967 604 967 c 0
 611 967 619 961 619 937 c 2
 619 0 l 1
123 459 m 0
 156 459 173 484 173 510 c 0
 173 535 156 560 123 560 c 0
 88 560 71 535 71 510 c 0
 71 484 88 459 123 459 c 0
EndSplineSet
EndChar

StartChar: uni0E20
Encoding: 192 3616 159
Width: 619
Flags: W
HStem: -5 40<83.6961 160.995> 124 42<83.6978 128.449> 392 44<112 161 212.383 287> 549 50<195.675 374.987>
VStem: 38 38<43.501 116.005> 129 77<166 385.161> 168 38<44.0348 116.497> 438 78<0 485.303>
LayerCount: 2
Fore
SplineSet
516 0 m 9xfd
 438 0 l 1
 438 410 l 2
 438 506 366 549 289 549 c 0
 212 549 131 508 112 436 c 1
 287 436 l 1
 287 392 l 1
 250 392 l 2
 204 392 206 343 206 341 c 2xfd
 206 83 l 2xfb
 206 28 169 -5 123 -5 c 0
 67 -5 38 38 38 81 c 0
 38 124 66 166 123 166 c 2
 129 166 l 1
 129 332 l 2
 129 379 161 392 161 392 c 1
 60 392 l 1
 61 528 182 599 299 599 c 0
 408 599 516 533 516 416 c 2
 516 0 l 9xfd
123 35 m 0
 153 35 168 57 168 80 c 0xfb
 168 102 153 124 123 124 c 0
 92 124 76 102 76 80 c 0
 76 57 92 35 123 35 c 0
EndSplineSet
EndChar

StartChar: uni0E21
Encoding: 193 3617 160
Width: 646
Flags: W
HStem: -5 49<109.377 165.9> 147 56<244 308.444> 158 51<112.321 166> 420 39<78.9962 162.191> 560 38<79.7482 159.891>
VStem: 35 34<471.6 547.319> 56 46<50.3506 147.966> 166 77<45.7884 147 209 428 463.842 554.237> 465 77<80 529>
LayerCount: 2
Fore
SplineSet
542 0 m 9xdd80
 462 0 l 17
 387 127 244 147 244 147 c 1xdd80
 244 86 l 2
 244 34 224 -5 160 -5 c 0
 90 -5 56 46 56 98 c 0
 56 153 93 209 164 209 c 2
 166 209 l 1xbb80
 166 428 l 1
 157 422 137 420 124 420 c 0
 65 420 35 464 35 508 c 0
 35 553 66 598 131 598 c 0
 237 598 243 524 243 502 c 2
 243 203 l 1
 243 203 376 174 465 80 c 1
 465 529 l 1
 516 589 l 2
 519 592 524 594 529 594 c 0
 537.5 594 542 588 542 566 c 2
 542 0 l 9xdd80
121 459 m 0
 155 459 172 484 172 510 c 0
 172 535 155 560 121 560 c 0
 86 560 69 535 69 510 c 0
 69 484 86 459 121 459 c 0
102 99 m 0xbb80
 102 61 124 44 142 44 c 0
 155 44 166 53 166 68 c 2
 166 157 l 1
 162 157 159 158 155 158 c 0
 118 158 102 128 102 99 c 0xbb80
EndSplineSet
EndChar

StartChar: uni0E22
Encoding: 194 3618 161
Width: 580
Flags: W
HStem: -8 54<207.98 363.792> 309 41<187.398 266> 422 39<171.058 253.629> 562 36<173.225 251.909>
VStem: 75 86<370.95 535.57> 86 78<87.3926 287> 264 34<474.089 549.281> 399 77<81.9462 526>
LayerCount: 2
Back
SplineSet
476 154 m 2
 476 52 399 -8 284 -8 c 0
 170 -8 86 52 86 158 c 2
 86 226 l 2
 86 283 126 313 160 324 c 1
 126 327 95 358 88 379 c 0
 72 422 71 470 86 510 c 0
 108 567 143 598 212 598 c 0
 269 598 298 555 298 511 c 0
 298 467 269 423 212 422 c 0
 175 422 160 436 160 436 c 1
 158 389 186 350 237 350 c 2
 266 350 l 1
 266 309 l 1
 238 309 l 2
 195 309 164 276 164 232 c 2
 164 152 l 2
 164 86 214 46 286 46 c 0
 361 46 399 83 399 146 c 2
 399 146 399 542 399 531 c 1
 447 593 l 2
 456 601 478 607 476 568 c 2
 476 154 l 2
212 461 m 0
 246 461 264 486 264 512 c 0
 264 537 246 562 212 562 c 0
 178 562 161 537 161 512 c 0
 161 486 178 461 212 461 c 0
EndSplineSet
Fore
SplineSet
75 449 m 0xfb
 75 504 101 598 212 598 c 0
 269 598 298 555 298 511 c 0
 298 467 269 423 212 422 c 0
 175 422 160 436 160 436 c 1
 160 431 l 2
 160 386 188 350 237 350 c 2
 266 350 l 1
 266 309 l 1
 238 309 l 2
 195 309 164 276 164 232 c 2
 164 152 l 2
 164 86 214 46 286 46 c 0
 361 46 399 83 399 146 c 2
 399 526 l 1
 447 588 l 2
 450 591 456 594 461 594 c 0
 469.5 594 476 587 476 563 c 2
 476 154 l 2
 476 52 399 -8 284 -8 c 0
 170 -8 86 52 86 158 c 2
 86 226 l 2xf7
 86 283 126 313 160 324 c 1
 141 326 75 343 75 449 c 0xfb
212 461 m 0
 246 461 264 486 264 512 c 0
 264 537 246 562 212 562 c 0
 178 562 161 537 161 512 c 0xfb
 161 486 178 461 212 461 c 0
EndSplineSet
EndChar

StartChar: uni0E23
Encoding: 195 3619 162
Width: 462
Flags: W
HStem: -3 38<185.512 265.789> 138 37<186.353 265.264> 500 68<240.113 387.744> 534 64<113.346 264.052>
VStem: 136 38<46.5133 126.342> 267 77<163 389.489> 276 68<43.1558 129.839>
DStem2: 80 476 31 446 0.967713 -0.252055<0 208.637>
LayerCount: 2
Fore
SplineSet
422 587 m 0xec
 422 577 406 500 325 500 c 0xec
 282 500 220 534 159 534 c 0
 118 534 97 516 80 476 c 1
 295 420 l 2
 309 417 344 403 344 371 c 2xdc
 344 93 l 2xda
 344 67 337 -3 230 -3 c 0
 166 -3 136 41 136 85 c 0
 136 130 167 175 226 175 c 0
 238 175 255 174 267 163 c 1
 267 348 l 2
 267 368 267 385 241 391 c 2
 31 446 l 1
 41 480 80 598 183 598 c 0xdc
 235 598 298 568 348 568 c 0
 398 568 403 596 415 596 c 0
 418 596 422 593 422 587 c 0xec
226 35 m 0
 260 35 276 61 276 86 c 0xca
 276 112 260 138 226 138 c 0
 192 138 174 112 174 86 c 0
 174 61 192 35 226 35 c 0
EndSplineSet
EndChar

StartChar: uni0E24
Encoding: 196 3620 163
Width: 597
Flags: W
HStem: -5 40<171.006 247.967> 124 41<172.355 248.448> 392 44<95 126 179.846 264> 549 50<176.214 355.848>
VStem: 92 80<158 381.585> 92 72<41.174 118.226> 256 38<43.501 115.691> 418 78<-178 488.179>
LayerCount: 2
Fore
SplineSet
294 81 m 0xfb
 294 38 265 -5 202 -5 c 0
 111 -5 92 73 92 112 c 2xf7
 92 324 l 2
 92 373 126 392 126 392 c 1
 43 392 l 1
 46 530 166 599 281 599 c 0
 390 599 496 536 496 410 c 2
 496 -178 l 1
 445 -237 l 2
 442 -240 436 -242 431 -242 c 0
 422 -242 418 -236 418 -215 c 2
 418 410 l 2
 418 507 346 549 269 549 c 0
 194 549 116 508 95 436 c 1
 264 436 l 1
 264 392 l 1
 215 392 l 2
 174 392 172 344 172 335 c 2
 172 158 l 1
 187 163 200 165 212 165 c 0
 266 165 294 123 294 81 c 0xfb
209 35 m 0
 240 35 256 57 256 80 c 0
 256 102 240 124 209 124 c 0
 179 124 164 102 164 80 c 0
 164 57 179 35 209 35 c 0
EndSplineSet
EndChar

StartChar: uni0E25
Encoding: 197 3621 164
Width: 579
Flags: W
HStem: -5 37<157.905 235.713> 129 36<163.534 235.868> 401 49<209.506 349.923> 539 59<159.605 346.8>
VStem: 84 79<158 354.298> 84 64<40.5179 122.061> 246 40<40.5618 120.315> 399 77<0 354.768 395 487.199>
LayerCount: 2
Fore
SplineSet
286 82 m 0xfb
 286 39 256 -5 196 -5 c 0
 113 -5 84 67 84 108 c 2xf7
 84 293 l 2
 84 372 154 450 257 450 c 0
 350 450 401 395 401 395 c 1
 401 514 328 539 253 539 c 0
 175 539 103 505 60 444 c 1
 32 467 l 1
 94 562 182 598 267 598 c 0
 378 598 476 530 476 433 c 2
 476 0 l 1
 399 0 l 1
 399 289 l 2
 399 353 346 401 278 401 c 0
 206 401 163 347 163 289 c 2
 163 158 l 1
 178 163 192 165 204 165 c 0
 258 165 286 124 286 82 c 0xfb
197 32 m 0
 230 32 246 56 246 80 c 0
 246 105 230 129 197 129 c 0
 164 129 148 105 148 80 c 0
 148 56 164 32 197 32 c 0
EndSplineSet
EndChar

StartChar: uni0E26
Encoding: 198 3622 165
Width: 611
Flags: W
HStem: -5 40<62.587 137.408> 124 42<62.8954 105.449> 392 44<108 140 192.602 278> 549 50<187.731 368.554>
VStem: 11 44<41.4021 118.093> 106 78<166 382.055> 145 39<42.0592 117.095> 432 78<-178 488.623>
LayerCount: 2
Fore
SplineSet
510 -178 m 1xfd
 459 -237 l 2
 456 -240 450 -242 445 -242 c 0
 438 -242 432 -236 432 -215 c 2
 432 410 l 2
 432 508 358 549 281 549 c 0
 205 549 126 507 108 436 c 1
 278 436 l 1
 278 392 l 1
 230 392 l 2
 185 392 184 341 184 336 c 2xfd
 184 83 l 2xfb
 184 28 147 -5 100 -5 c 0
 41 -5 11 38 11 81 c 0
 11 124 40 166 100 166 c 2
 106 166 l 1
 106 326 l 2
 106 375 140 392 140 392 c 1
 55 392 l 1
 58 530 178 599 293 599 c 0
 403 599 510 537 510 410 c 2
 510 -178 l 1xfd
100 35 m 0
 130 35 145 57 145 80 c 0xfb
 145 102 130 124 100 124 c 0
 70 124 55 102 55 80 c 0
 55 57 70 35 100 35 c 0
EndSplineSet
EndChar

StartChar: uni0E27
Encoding: 199 3623 166
Width: 505
Flags: W
HStem: -5 36<241.066 319.148> 131 35<241.598 318.958> 545 53<115.151 273.671>
VStem: 18 36<477.25 490.563> 194 36<42.1868 119.569> 323 78<155 497.842> 330 71<40.5106 123.153>
LayerCount: 2
Fore
SplineSet
276 -5 m 0xfa
 240 -5 194 22 194 81 c 0
 194 126 226 166 276 166 c 0
 298 166 307 163 323 155 c 1
 323 438 l 2
 323 502 264 545 198 545 c 0
 111 545 65 484 54 470 c 1
 18 479 l 1
 23 502 81 598 217 598 c 0
 312 598 401 531 401 438 c 2xfc
 401 118 l 2
 401 41 370 -5 276 -5 c 0xfa
280 31 m 0
 314 31 330 56 330 81 c 0xfa
 330 106 314 131 280 131 c 0
 247 131 230 106 230 81 c 0
 230 56 247 31 280 31 c 0
EndSplineSet
EndChar

StartChar: uni0E28
Encoding: 200 3624 167
Width: 589
Flags: W
HStem: 0 21G<101 180 412 488> 273 36<216.689 294.15> 407 37<216.266 295.442> 553 46<162.677 346.188>
VStem: 35 46<338.661 477.96> 101 79<0 275.1> 306 34<321.329 382.337> 412 76<0 421.394> 461 75<546.718 641>
LayerCount: 2
Fore
SplineSet
255 309 m 0xfe
 289 309 306 334 306 358 c 0
 306 382 289 407 255 407 c 0
 222 407 206 382 206 358 c 0
 206 334 222 309 255 309 c 0xfe
398 473 m 1
 373 535 313 553 246 553 c 0
 149 553 81 479 81 413 c 0
 81 369 95 335 124 321 c 1
 135 376 169 444 252 444 c 0
 283 444 306 432 319 415 c 1
 346 427 373 447 398 473 c 1
475 482 m 1
 484 461 488 433 488 401 c 2
 488 0 l 1
 412 0 l 1
 412 401 l 2xff
 412 409 412 415 410 422 c 1
 387 404 362 390 338 378 c 1
 339 372 340 365 340 358 c 0
 340 316 310 273 250 273 c 0
 212 273 190 301 190 301 c 1
 181 280 180 246 180 229 c 2
 180 0 l 1
 101 0 l 1
 101 224 l 2
 101 266 35 310 35 413 c 0
 35 519 129 599 247 599 c 0
 323 599 393 584 439 536 c 1
 453 565 461 601 461 641 c 1
 536 641 l 1xfe80
 536 582 511 528 475 482 c 1
EndSplineSet
EndChar

StartChar: uni0E29
Encoding: 201 3625 168
Width: 665
Flags: W
HStem: 0 45<111 164 243 471.318> 166 44<306.653 420.17> 346 41<243.331 317.308> 422 37<83.4004 163.615> 560 38<83.5296 163.422>
VStem: 35 37<470.861 548.834> 164 70<261.006 339.964> 175 68<466.887 550.183> 324 45<260.507 340.376> 485 76<60.4747 240 275.674 529>
LayerCount: 2
Fore
SplineSet
124 459 m 0xfdc0
 158 459 175 484 175 510 c 0
 175 535 158 560 124 560 c 0
 90 560 72 535 72 510 c 0
 72 484 90 459 124 459 c 0xfdc0
280 255 m 0
 310 255 324 278 324 300 c 0
 324 323 310 346 280 346 c 0
 249 346 234 323 234 300 c 0xfec0
 234 278 249 255 280 255 c 0
243 212 m 9xfdc0
 243 45 l 1
 422 45 l 2
 456 45 485 69 485 101 c 2
 485 240 l 1
 467 197 408 166 348 166 c 0
 309 166 270 179 243 212 c 9xfdc0
283 387 m 0
 311 387 369 375 369 299 c 0
 369 248 336 224 306 221 c 1
 323 214 339 210 354 210 c 0
 428 210 485 285 485 344 c 2
 485 529 l 1
 536 589 l 2
 538 591 542 594 547 594 c 0
 554 594 561 588 561 566 c 2
 561 103 l 2
 561 51 535 0 473 0 c 2
 111 0 l 1
 111 45 l 1
 164 45 l 1
 164 429 l 1xfec0
 152 422 137 422 124 422 c 0
 65 422 35 465 35 509 c 0
 35 553 66 598 131 598 c 0
 237 598 243 524 243 502 c 2
 243 378 l 1
 250 382 259 387 283 387 c 0
EndSplineSet
EndChar

StartChar: uni0E2A
Encoding: 202 3626 169
Width: 579
Flags: W
HStem: -5 37<157.905 235.713> 129 36<163.534 235.868> 538 60<157.846 343.066>
VStem: 84 79<158 332.335> 84 64<40.5179 122.061> 246 40<40.5618 120.315> 399 77<0 321.62 356 464.115> 461 75<585.619 641>
LayerCount: 2
Fore
SplineSet
197 32 m 0xec
 230 32 246 56 246 80 c 0
 246 105 230 129 197 129 c 0
 164 129 148 105 148 80 c 0
 148 56 164 32 197 32 c 0xec
286 82 m 0
 286 39 256 -5 196 -5 c 0
 113 -5 84 67 84 108 c 2xec
 84 270 l 2
 84 335 137 413 230 425 c 1
 273 442 323 467 366 501 c 1
 336 526 295 538 252 538 c 0
 177 538 97 503 60 444 c 1
 32 467 l 1
 96 565 185 598 265 598 c 0
 326 598 381 578 416 551 c 1
 436 576 453 607 461 641 c 1
 536 641 l 1xf5
 527 588 493 545 453 510 c 1
 470 482 476 456 476 429 c 2
 476 0 l 1
 399 0 l 1
 399 250 l 2
 399 315 346 378 278 378 c 0
 206 378 163 324 163 266 c 2
 163 158 l 1xf6
 178 163 192 165 204 165 c 0
 258 165 286 124 286 82 c 0
292 424 m 1
 370 409 401 356 401 356 c 1
 401 422 l 2
 401 436 398 452 393 465 c 1
 356 445 319 430 292 424 c 1
EndSplineSet
EndChar

StartChar: uni0E2B
Encoding: 203 3627 170
Width: 654
Flags: W
HStem: 0 21G<157 235 472 550> 422 37<71.3824 151.858> 560 38<70.7482 151.089 448.808 528.091>
VStem: 25 35<471.081 548.109> 157 76<0 187.695 244 436 463.842 553.597> 407 37<483.602 557.255> 472 78<0 425.304> 533 36<484.624 556.768>
LayerCount: 2
Fore
SplineSet
550 0 m 1xfe
 472 0 l 1
 472 380 l 2xfe
 472 410 452 426 452 426 c 1
 336 356 255 190 247 172 c 1
 240 147 235 127 235 109 c 2
 235 0 l 1
 157 0 l 1
 157 436 l 1
 146 423 129 422 114 422 c 0
 56 422 25 466 25 509 c 0
 25 554 57 598 123 598 c 0
 227 598 233 527 233 503 c 2
 233 244 l 1
 304 379 429 460 429 460 c 1
 414 477 407 497 407 516 c 0
 407 558 438 598 488 598 c 0
 544 598 569 559 569 519 c 0xfd
 569 488 553 457 524 445 c 1
 524 445 550 422 550 388 c 2
 550 0 l 1xfe
488 476 m 0
 518 476 533 498 533 520 c 0xfd
 533 543 518 565 488 565 c 0
 459 565 444 543 444 520 c 0
 444 498 459 476 488 476 c 0
111 459 m 0
 146 459 163 484 163 510 c 0
 163 535 146 560 111 560 c 0
 77 560 60 535 60 510 c 0
 60 484 77 459 111 459 c 0
EndSplineSet
EndChar

StartChar: uni0E2C
Encoding: 204 3628 171
Width: 715
Flags: W
HStem: 0 21G<158 243.494 523.659 611> 422 37<72.9701 152.607> 475 41<490.142 530.766> 560 38<72.1492 152.419> 607 38<491.573 564.197>
VStem: 27 35<469.931 548.667> 158 79<0 21.558 121 436 464.399 553.294> 442 41<523.222 599.756> 531 80<126 475> 572 41<562 599.699> 635 64<568.671 659>
DStem2: 237 121 237 0 0.30239 0.953184<0 331.498> 375 556 375 425 0.341041 -0.940048<123.146 457.423>
LayerCount: 2
Fore
SplineSet
699 659 m 1xff60
 696 536 611 502 611 502 c 1
 611 0 l 1
 531 0 l 1
 375 425 l 1
 237 0 l 1
 158 0 l 1
 158 436 l 1
 147 423 127 422 115 422 c 0
 58 422 27 466 27 510 c 0
 27 554 58 598 124 598 c 0
 232 598 237 522 237 501 c 2
 237 121 l 1
 375 556 l 1
 531 126 l 1
 531 475 l 1xffa0
 472 475 442 518 442 561 c 0
 442 603 470 645 528 645 c 0
 611 645 613 580 613 562 c 1
 631 591 635 613 635 633 c 0
 635 643 634 652 633 659 c 1
 699 659 l 1xff60
528 516 m 0
 558 516 572 539 572 562 c 0xff60
 572 584 558 607 528 607 c 0
 498 607 483 584 483 562 c 0
 483 539 498 516 528 516 c 0
112 459 m 0
 146 459 164 484 164 510 c 0
 164 535 146 560 112 560 c 0
 78 560 62 535 62 510 c 0
 62 484 78 459 112 459 c 0
EndSplineSet
EndChar

StartChar: uni0E2D
Encoding: 205 3629 172
Width: 580
Flags: W
HStem: -8 44<203.278 355.895> 272 37<161.499 240.346> 409 36<159.969 240.448> 550 46<146.961 335.648>
VStem: 83 78<75.3984 280> 83 65<317.526 398.298> 252 34<321.565 396.823> 398 80<75.847 490.869>
LayerCount: 2
Fore
SplineSet
192 445 m 0xf7
 257 445 286 401 286 357 c 0
 286 314 258 272 204 272 c 0
 191 272 177 275 161 280 c 1
 161 132 l 2
 161 68 221 36 280 36 c 0
 339 36 398 67 398 132 c 2
 398 423 l 2
 398 486 346 550 250 550 c 0
 141 550 100 498 71 466 c 1
 41 487 l 1
 75 529 134 596 255 596 c 0
 387 596 478 521 478 431 c 2
 478 146 l 2
 478 18 330 -8 275 -8 c 0
 206 -8 83 15 83 147 c 2xfb
 83 327 l 2
 83 366 109 445 192 445 c 0xf7
200 309 m 0
 234 309 252 334 252 359 c 0
 252 384 234 409 200 409 c 0
 166 409 148 384 148 359 c 0xf7
 148 334 166 309 200 309 c 0
EndSplineSet
EndChar

StartChar: uni0E2E
Encoding: 206 3630 173
Width: 580
Flags: W
HStem: -8 44<203.278 355.895> 188 36<161.499 239.756> 324 37<159.591 240.827> 399 40<132.749 303.193> 553 43<150.181 337.266>
VStem: 68 46<456.27 522.619> 83 78<75.3984 195> 83 65<232.526 314.046> 252 34<236.151 311.387> 398 80<75.847 460.669> 406 81<559.563 602>
LayerCount: 2
Fore
SplineSet
217 399 m 0xfac0
 133 399 68 435 68 489 c 0
 68 551 164 596 246 596 c 0
 329 596 382 565 396 559 c 1
 402 571 406 584 406 602 c 1
 487 602 l 17xfca0
 479 567 468 542 450 516 c 1
 468 495 478 458 478 429 c 2
 478 146 l 2
 478 18 330 -8 275 -8 c 0
 206 -8 83 15 83 147 c 2xfac0
 83 243 l 2xf980
 83 282 109 361 192 361 c 0
 257 361 286 317 286 273 c 0
 286 230 258 188 203 188 c 0
 191 188 177 190 161 195 c 1
 161 132 l 2
 161 68 221 36 280 36 c 0
 339 36 398 67 398 132 c 2
 398 434 l 2
 398 443 398 454 395 461 c 1
 347 419 278 399 217 399 c 0xfac0
114 489 m 0
 114 459 155 439 211 439 c 0
 266 439 332 460 367 508 c 1
 349 531 310 553 244 553 c 0
 200 553 114 533 114 489 c 0
200 224 m 0
 234 224 252 249 252 274 c 0
 252 299 234 324 200 324 c 0
 166 324 148 299 148 274 c 0xf980
 148 249 166 224 200 224 c 0
EndSplineSet
EndChar

StartChar: uni0E2F
Encoding: 207 3631 174
Width: 539
Flags: W
HStem: 0 21G<347 425> 416 49<83.022 288.312> 560 38<82.6409 156.671>
VStem: 31 43<475.602 553.344> 165 41<475.717 553.036> 347 78<0 469 522.875 595>
LayerCount: 2
Fore
SplineSet
117 598 m 0
 188 598 206 541 206 515 c 0
 206 486 190 466 190 466 c 1
 196 466 201 465 207 465 c 0
 336 465 347 576 347 595 c 1
 425 595 l 1
 425 0 l 1
 347 0 l 1
 347 469 l 1
 302 430 241 416 187 416 c 0
 97 416 31 447 31 515 c 0
 31 558 64 598 117 598 c 0
120 469 m 0
 150 469 165 492 165 514 c 0
 165 537 150 560 120 560 c 0
 89 560 74 537 74 514 c 0
 74 492 89 469 120 469 c 0
EndSplineSet
EndChar

StartChar: uni0E30
Encoding: 208 3632 175
Width: 460
Flags: W
HStem: 6 44<194 278.148> 141 33<96.8011 163.663> 416 44<194 278.849> 551 33<96.8011 163.663>
VStem: 53 35<65.9559 133.512 475.956 543.512> 172 36<64.891 134.411 474.891 544.411> 321 61<98.3887 169 508.389 579>
LayerCount: 2
Fore
SplineSet
132 584 m 0
 178 584 208 554 208 508 c 0
 208 479 194 461 194 461 c 1
 199 461 204 460 208 460 c 0
 280 460 318 504 321 579 c 1
 382 579 l 17
 366 460 281 416 190 416 c 0
 80 416 53 470 53 506 c 0
 53 538 70 584 132 584 c 0
132 174 m 0
 178 174 208 144 208 98 c 0
 208 69 194 51 194 51 c 1
 199 51 204 50 208 50 c 0
 280 50 318 94 321 169 c 1
 382 169 l 17
 366 49 280 6 188 6 c 0
 79 6 53 60 53 96 c 0
 53 128 70 174 132 174 c 0
131 468 m 0
 158 468 172 489 172 510 c 0
 172 530 158 551 131 551 c 0
 102 551 88 530 88 510 c 0
 88 489 102 468 131 468 c 0
131 58 m 0
 158 58 172 79 172 100 c 0
 172 120 158 141 131 141 c 0
 102 141 88 120 88 100 c 0
 88 79 102 58 131 58 c 0
EndSplineSet
EndChar

StartChar: uni0E31
Encoding: 209 3633 176
Width: 0
Flags: W
HStem: 676 52<-228.652 -53.2779> 874 41<-309.768 -232.102>
VStem: -364 47<788.448 867.613> -225 45<788.779 867.52> 52 89<848.463 911>
AnchorPoint: "AboveMark" -106 968 basemark 0
AnchorPoint: "AboveBase" -106 645 mark 0
LayerCount: 2
Fore
SplineSet
-272 915 m 0
 -217 915 -180 878 -180 824 c 0
 -180 767 -230 745 -230 745 c 1
 -198 733 -168 728 -140 728 c 0
 -38 728 36 800 52 911 c 1
 141 911 l 17
 104 747 -29 676 -150 676 c 0
 -269 676 -364 746 -364 825 c 0
 -364 869 -332 915 -272 915 c 0
-270 782 m 0
 -240 782 -225 805 -225 828 c 0
 -225 851 -240 874 -270 874 c 0
 -302 874 -317 851 -317 828 c 0
 -317 805 -302 782 -270 782 c 0
EndSplineSet
EndChar

StartChar: uni0E32
Encoding: 210 3634 177
Width: 427
Flags: W
HStem: 0 21G<246 326> 496 43<18 61> 555 44<69.4764 212.169>
VStem: 246 80<0 522.219>
LayerCount: 2
Fore
SplineSet
326 0 m 1
 246 0 l 1
 246 456 l 2
 246 512 212 555 151 555 c 0
 83 555 34 513 18 496 c 1
 18 539 l 1
 37 559 83 599 161 599 c 0
 266 599 326 555 326 461 c 2
 326 0 l 1
EndSplineSet
EndChar

StartChar: uni0E33
Encoding: 211 3635 178
Width: 427
Flags: W
HStem: 0 21<246 326> 496 43<18 61> 555 44<69.4764 212.169> 668 43<-181.42 -101.469> 813 46<-182.912 -101.11>
VStem: -237 45<720.46 803.313> -91 45<720.46 803.313> 246 80<0 522.219>
LayerCount: 2
Back
SplineSet
-132 682 m 0
 -196 682 -228 730 -228 778 c 0
 -228 825 -196 873 -132 873 c 0
 -69 873 -38 825 -38 778 c 0
 -38 730 -69 682 -132 682 c 0
326 0 m 1
 246 0 l 1
 246 456 l 2
 246 512 212 555 151 555 c 0
 83 555 34 513 18 496 c 1
 18 539 l 1
 37 559 83 599 161 599 c 0
 266 599 326 555 326 461 c 2
 326 0 l 1
-81 776 m 0
 -81 805 -104 826 -132 826 c 0
 -161 826 -183 805 -183 776 c 0
 -183 748 -161 725 -132 725 c 0
 -104 725 -81 748 -81 776 c 0
EndSplineSet
Fore
Refer: 177 3634 N 1 0 0 1 0 0 2
Refer: 202 3661 N 1 0 0 1 0 0 2
MultipleSubs2: "Thai Sara Am Decomposition" uni0E4D uni0E32
Substitution2: "Thai Sara Am Lakkhang" uni0E32
EndChar

StartChar: uni0E34
Encoding: 212 3636 179
Width: 0
Flags: W
HStem: 740 40<-456.737 -265.166> 844 49<-409.035 -232.33>
AnchorPoint: "AboveMark" -144 968 basemark 0
AnchorPoint: "AboveBase" -106 645 mark 0
LayerCount: 2
Fore
SplineSet
-84 651 m 1
 -144 680 -265 740 -419 740 c 0
 -466 740 -502 733 -535 728 c 1
 -508 818 -426 893 -323 893 c 0
 -248 893 -98 856 -84 651 c 1
-140 717 m 1
 -165 777 -215 844 -328 844 c 0
 -388 844 -432 816 -458 777 c 1
 -442 779 -425 780 -407 780 c 0
 -244 780 -147 718 -140 717 c 1
EndSplineSet
EndChar

StartChar: uni0E35
Encoding: 213 3637 180
Width: 0
Flags: W
HStem: 740 40<-456.737 -265.166> 844 49<-409.035 -232.166>
VStem: -181 75<849 951>
AnchorPoint: "AboveMark" -144 968 basemark 0
AnchorPoint: "AboveBase" -106 645 mark 0
LayerCount: 2
Fore
SplineSet
-323 893 m 0
 -280 893 -226 882 -181 849 c 9
 -181 951 l 1
 -106 951 l 1
 -106 751 l 1
 -94 722 -88 688 -84 651 c 1
 -144 680 -265 740 -419 740 c 0
 -466 740 -502 733 -535 728 c 1
 -508 818 -426 893 -323 893 c 0
-140 717 m 1
 -165 777 -215 844 -328 844 c 0
 -388 844 -432 816 -458 777 c 1
 -442 779 -425 780 -407 780 c 0
 -244 780 -147 718 -140 717 c 1
EndSplineSet
EndChar

StartChar: uni0E36
Encoding: 214 3638 181
Width: 0
Flags: W
HStem: 740 40<-457.154 -267.844> 844 50<-408.639 -231.35> 906 45<-182.395 -104.318>
VStem: -230 42<874 899.707> -99 44<825.773 900.035>
AnchorPoint: "AboveMark" -143 968 basemark 0
AnchorPoint: "AboveBase" -106 645 mark 0
LayerCount: 2
Fore
SplineSet
-84 651 m 1
 -164 694 -289 740 -425 740 c 0
 -474 740 -508 733 -533 728 c 1
 -512 819 -425 894 -320 894 c 0
 -275 894 -239 874 -230 874 c 1
 -230 878 l 2
 -230 899 -214 951 -143 951 c 0
 -84 951 -55 909 -55 866 c 0
 -55 828 -77 790 -120 780 c 1
 -120 780 -89 731 -84 651 c 1
-143 820 m 0
 -114 820 -99 842 -99 863 c 0
 -99 884 -114 906 -143 906 c 0
 -173 906 -188 884 -188 863 c 0
 -188 842 -173 820 -143 820 c 0
-140 717 m 1
 -165 777 -215 844 -328 844 c 0
 -388 844 -432 816 -458 777 c 1
 -442 779 -425 780 -407 780 c 0
 -244 780 -147 718 -140 717 c 1
EndSplineSet
EndChar

StartChar: uni0E37
Encoding: 215 3639 182
Width: 0
Flags: W
HStem: 736 40<-460.473 -267.572> 830 46<-416.215 -310>
VStem: -310 72<876 951> -175 71<831 951>
AnchorPoint: "AboveMark" -207 968 basemark 0
AnchorPoint: "AboveBase" -106 645 mark 0
LayerCount: 2
Fore
SplineSet
-83 648 m 1
 -204 711 -329 736 -423 736 c 0
 -463 736 -497 732 -531 725 c 1
 -488.555 875.679 -341.017 875.998 -310 876 c 1
 -309 951 l 1
 -240 951 l 1
 -238 863 l 1
 -200 852 -175 831 -175 831 c 1
 -174 951 l 1
 -106 951 l 1
 -104 743 l 1
 -104 743 -88 714 -83 648 c 1
-141 714 m 1
 -178 812 -266 830 -329 830 c 0
 -379 830 -429 811 -461 773 c 1
 -446 775 -430 776 -413 776 c 0
 -247 776 -148 715 -141 714 c 1
EndSplineSet
EndChar

StartChar: uni0E38
Encoding: 216 3640 183
Width: 0
Flags: W
HStem: -220 36<-251.401 -184.03> -104 35<-251.484 -184.582>
VStem: -293 35<-177.159 -110.953> -183 79<-307 -214 -182.022 -106.654>
AnchorPoint: "BelowBase" -104 -69 mark 0
LayerCount: 2
Fore
SplineSet
-293 -147 m 0
 -293 -108 -265 -69 -209 -69 c 0
 -149 -69 -104 -103 -104 -155 c 2
 -104 -307 l 1
 -183 -307 l 1
 -183 -214 l 1
 -187 -215 -197 -220 -218 -220 c 0
 -268 -219 -293 -183 -293 -147 c 0
-218 -184 m 0
 -191 -184 -178 -164 -178 -144 c 0
 -178 -124 -191 -104 -218 -104 c 0
 -245 -104 -258 -124 -258 -144 c 0
 -258 -164 -245 -184 -218 -184 c 0
EndSplineSet
Substitution2: "Thai Sara U Mai Ek Reordering" uni0E48.low
Substitution2: "Thai Sara U Mai Tho Reordering" uni0E49.low
Substitution2: "Thai Sara U Mai Tri Reordering" uni0E4A.low
Substitution2: "Thai Sara U Mai Chattawa Reordering" uni0E4B.low
Substitution2: "Thai Sara U Thanthakhat Reordering" uni0E4C.low
Substitution2: "Thai Sara U Nikhahit Reordering" uni0E4D
EndChar

StartChar: uni0E39
Encoding: 217 3641 184
Width: 0
Flags: W
HStem: -307 34<-244.8 -186.673> -206 28<-362.049 -305.751> -101 32<-365.469 -303.609>
VStem: -405 32<-168.521 -108.968> -300 51<-269.896 -201 -175.709 -103.317> -183 79<-270.454 -69>
AnchorPoint: "BelowBase" -104 -69 mark 0
LayerCount: 2
Fore
SplineSet
-104 -212 m 2
 -104 -264 -137 -307 -198 -307 c 0
 -260 -307 -300 -275 -300 -226 c 2
 -300 -201 l 1
 -304 -203 -310 -206 -332 -206 c 0
 -379 -206 -405 -171 -405 -137 c 0
 -405 -103 -380 -69 -332 -69 c 0
 -272 -69 -249 -106 -249 -157 c 2
 -249 -238 l 2
 -249 -257 -237 -273 -217 -273 c 0
 -195 -273 -183 -261 -183 -238 c 2
 -183 -69 l 1
 -104 -69 l 1
 -104 -212 l 2
-296 -140 m 0
 -296 -117 -313 -101 -333 -101 c 0
 -355 -101 -373 -117 -373 -140 c 0
 -373 -158 -355 -178 -333 -178 c 0
 -313 -178 -296 -158 -296 -140 c 0
EndSplineSet
Substitution2: "Thai Sara UU Mai Ek Reordering" uni0E48.low
Substitution2: "Thai Sara UU Mai Tho Reordering" uni0E49.low
Substitution2: "Thai Sara UU Mai Tri Reordering" uni0E4A.low
Substitution2: "Thai Sara UU Mai Chattawa Reordering" uni0E4B.low
Substitution2: "Thai Sara UU Thanthakhat Reordering" uni0E4C.low
Substitution2: "Thai Sara UU Nikhahit Reordering" uni0E4D
EndChar

StartChar: uni0E3A
Encoding: 218 3642 185
Width: 0
Flags: W
HStem: -161 106<-186.314 -100.002>
VStem: -196 105<-151.086 -64.9141>
AnchorPoint: "BelowBase" -104.448 -58.3682 mark 0
LayerCount: 2
Fore
SplineSet
-141 -161 m 0
 -178 -161 -196 -134 -196 -108 c 0
 -196 -82 -178 -55 -141 -55 c 0
 -108 -55 -91 -81 -91 -108 c 0
 -91 -134 -108 -161 -141 -161 c 0
EndSplineSet
Substitution2: "Thai Phinthu Maitaikhu Reordering" uni0E47
Substitution2: "Thai Phinthu Mai Ek Reordering" uni0E48.low
Substitution2: "Thai Phinthu Mai Tho Reordering" uni0E49.low
Substitution2: "Thai Phinthu Mai Tri Reordering" uni0E4A.low
Substitution2: "Thai Phinthu Mai Chattawa Reordering" uni0E4B.low
Substitution2: "Thai Phinthu Thanthakhat Reordering" uni0E4C.low
Substitution2: "Thai Phinthu Nikhahit Reordering" uni0E4D
EndChar

StartChar: dottedcircle
Encoding: 221 9676 187
Width: 649
Flags: W
HStem: 5 36<324.007 360.994> 41 39<174.026 211.974> 52 39<453.026 489.977> 134 36<75.0058 111.994> 146 37<536.006 572.994> 276 37<571.007 609.993> 283 36<38.0058 74.9949> 416 39<83.0058 119.994 536.804 572.189> 501 38<441.026 478.974> 508 37<184.029 222.974> 544 37<323.026 358.98>
VStem: 38 37<283.007 318.995> 75 37<134.005 169.995> 83 37<416.007 454.993> 174 38<41.029 79.9739> 184 39<508.007 544.995> 324 37<5.02042 40.9796 544.046 580.935> 441 38<501.026 538.974> 453 37<52.0261 90.971> 536 37<146.006 182.994 412.005 448.994> 571 39<276.006 312.995>
LayerCount: 2
Fore
SplineSet
101 455 m 0x811480
 112 455 120 445 120 436 c 0
 120 425 112 416 101 416 c 0
 91 416 83 425 83 436 c 0
 83 445 91 455 101 455 c 0x811480
203 545 m 0x815180
 214 545 223 538 223 527 c 0
 223 518 214 508 203 508 c 0
 194 508 184 518 184 527 c 0
 184 538 194 545 203 545 c 0x815180
194 80 m 0x811280
 203 80 212 71 212 61 c 0
 212 51 203 41 194 41 c 0
 183 41 174 51 174 61 c 0
 174 71 183 80 194 80 c 0x811280
94 170 m 0x911080
 104 170 112 163 112 152 c 0x911080
 112 141 104 134 94 134 c 0
 83 134 75 141 75 152 c 0
 75 163 83 170 94 170 c 0x911080
472 91 m 0xa110a0
 482 91 490 81 490 71 c 0
 490 61 482 52 472 52 c 0
 462 52 453 61 453 71 c 0
 453 81 462 91 472 91 c 0xa110a0
554 183 m 0x891090
 565 183 573 175 573 164 c 0
 573 154 565 146 554 146 c 0
 544 146 536 154 536 164 c 0
 536 175 544 183 554 183 c 0x891090
554 449 m 0
 565 449 573 441 573 430 c 0
 573 419 565 412 554 412 c 0
 544 412 536 419 536 430 c 0
 536 441 544 449 554 449 c 0
459 539 m 0x8190c0
 470 539 479 530 479 519 c 0
 479 510 470 501 459 501 c 0
 450 501 441 510 441 519 c 0
 441 530 450 539 459 539 c 0x8190c0
590 313 m 0x851088
 601 313 610 306 610 295 c 0
 610 284 601 276 590 276 c 0
 581 276 571 284 571 295 c 0
 571 306 581 313 590 313 c 0x851088
57 319 m 0x831080
 68 319 75 312 75 301 c 0
 75 292 68 283 57 283 c 0
 46 283 38 292 38 301 c 0
 38 312 46 319 57 319 c 0x831080
343 41 m 0
 353 41 361 34 361 23 c 0
 361 12 353 5 343 5 c 0
 333 5 324 12 324 23 c 0
 324 34 333 41 343 41 c 0
341 581 m 0x813080
 352 581 359 571 359 562 c 0
 359 551 352 544 341 544 c 0
 332 544 323 551 323 562 c 0
 323 571 332 581 341 581 c 0x813080
EndSplineSet
EndChar

StartChar: uni0E3F
Encoding: 223 3647 188
Width: 752
Flags: W
HStem: 2 36<260.583 336> 3 42<406 467.949> 3 17<35 97.5482> 359 40<246 336> 674 46<406 456.72> 685 38<249.5 336> 707 15<35 89.9531>
VStem: 141 105<50.2979 359 399 679.835> 336 70<-106 2 45 349 406 674 723 822> 518 107<462.059 615.361> 541 119<112.62 280.69>
LayerCount: 2
Fore
SplineSet
660 200 m 0x19a0
 660 77 561 11 406 3 c 1x59a0
 404 -106 l 1
 338 -106 l 1
 336 2 l 1x91a0
 35 3 l 1
 35 20 l 1
 126 20 141 54 141 88 c 2
 141 637 l 2
 141 670 126 705 35 707 c 1
 35 722 l 1x33a0
 68 722 333 723 336 723 c 1x15a0
 338 822 l 1
 404 822 l 1
 406 720 l 1
 531 708 625 656 625 541 c 0x19c0
 625 450 564 404 481 382 c 1
 481 376 l 1
 574 359 660 304 660 200 c 0x19a0
518 536 m 0x19c0
 518 614 473 659 406 674 c 1
 406 406 l 1
 475 422 518 467 518 536 c 0x19c0
336 399 m 1
 336 684 l 1
 326 684 317 685 308 685 c 0x1580
 264 685 246 677 246 650 c 2
 246 399 l 1
 336 399 l 1
336 38 m 9x9180
 336 359 l 1
 246 359 l 1
 246 100 l 2
 246 60 258 38 336 38 c 9x9180
541 203 m 0x51a0
 541 292 478 333 406 349 c 1
 406 45 l 1
 485 58 541 100 541 203 c 0x51a0
EndSplineSet
EndChar

StartChar: uni0E40
Encoding: 224 3648 189
Width: 337
Flags: W
HStem: -5 40<162.079 239.069> 127 39<177.314 238.555> 574 20G<161.5 167.5>
VStem: 97 80<164 530> 97 57<41.9852 120.964> 247 37<44.1792 117.841>
LayerCount: 2
Fore
SplineSet
200 -5 m 0xf4
 132 -5 97 54 97 109 c 2xec
 97 530 l 1
 149 588 l 2
 152 591 159 594 164 594 c 0
 171 594 177 588 177 566 c 2
 177 164 l 1
 177 164 190 166 200 166 c 0
 255 166 284 123 284 80 c 0
 284 37 256 -5 200 -5 c 0xf4
200 35 m 0
 232 35 247 58 247 81 c 0
 247 104 232 127 200 127 c 0
 169 127 154 104 154 81 c 0
 154 58 169 35 200 35 c 0
EndSplineSet
EndChar

StartChar: uni0E42
Encoding: 226 3650 191
Width: 331
Flags: W
HStem: -5 40<187.894 262.794> 127 39<212.436 262.503> 827 76<197.941 299.449> 892 66<20.9927 132.426>
VStem: 134 78<164 747.701> 134 46<42.2953 120.964> 271 37<43.1622 119.078>
DStem2: 3 860 -52 836 0.876667 -0.481098<0 187.384>
LayerCount: 2
Fore
SplineSet
334 916 m 0xea
 334 912 316 827 246 827 c 0xea
 192 827 125 892 57 892 c 0
 30 892 16 878 3 860 c 1
 167 770 l 2
 184 760 212 743 212 694 c 2
 212 164 l 1xda
 217 167 222 166 226 166 c 0
 281 166 308 123 308 80 c 0
 308 38 281 -5 226 -5 c 0
 154 -5 134 51 134 106 c 2xd6
 134 700 l 2
 134 719 134 739 98 757 c 2
 -52 836 l 1
 -41 860 2 958 84 958 c 0xda
 137 958 225 903 282 903 c 0
 317 903 319 923 329 923 c 0
 332 923 334 920 334 916 c 0xea
226 35 m 0
 256 35 271 58 271 81 c 0
 271 104 256 127 226 127 c 0
 195 127 180 104 180 81 c 0xc6
 180 58 195 35 226 35 c 0
EndSplineSet
EndChar

StartChar: uni0E43
Encoding: 227 3651 192
Width: 362
Flags: W
HStem: -5 40<206.882 284.982> 127 37<233.503 284.094> 679 40<5.90839 72.0892> 793 36<6.92441 71.263> 908 50<18.7449 125.812>
VStem: -54 42<803 876.382> 76 40<723.423 789.033> 155 78<164 879.509> 155 44<42.2953 120.964> 293 36<44.3273 118.037>
LayerCount: 2
Fore
SplineSet
-54 816 m 0xff40
 -54 878 -13 958 88 958 c 0
 181 958 233 892 233 808 c 2
 233 164 l 1xff40
 235 164 241 166 246 166 c 0
 301 166 329 122 329 79 c 0
 329 37 302 -5 246 -5 c 0
 177 -5 155 51 155 106 c 2xfec0
 155 811 l 2
 155 862 127 906 78 908 c 0
 20 908 -11 868 -12 803 c 1
 2 826 31 829 40 829 c 0
 90 829 116 792 116 755 c 0
 116 717 90 679 38 679 c 0
 -32 679 -54 757 -54 816 c 0xff40
40 793 m 0
 15 793 2 777 2 756 c 0
 2 740 12 719 38 719 c 0
 64 719 76 738 76 756 c 0
 76 775 64 793 40 793 c 0
246 35 m 0
 278 35 293 58 293 81 c 0
 293 104 278 127 246 127 c 0
 214 127 199 104 199 81 c 0xfec0
 199 58 214 35 246 35 c 0
EndSplineSet
EndChar

StartChar: uni0E44
Encoding: 228 3652 193
Width: 403
Flags: W
HStem: -5 40<253.472 331.388> 127 37<278.637 330.268> 654 37<50.8255 106.089> 919 39<147.529 199.143>
VStem: -9 58<692.301 951.908> 108 36<693.762 915.671> 203 75<164 917.424> 203 43<42.2953 120.384> 340 36<44.3273 117.113>
LayerCount: 2
Fore
SplineSet
-9 913 m 2xfe80
 -9 953 -59 962 -59 979 c 0
 -59 984 -55 987 -49 987 c 0
 -46 987 -42 986 -38 983 c 1
 29 962 l 1
 48 951 49 944 49 936 c 2
 49 720 l 2
 49 703 60 691 78 691 c 0
 94 691 108 702 108 720 c 2
 108 866 l 2
 108 917 134 958 195 958 c 0
 255 958 278 914 278 871 c 2
 278 164 l 1xfe80
 283 164 289 166 292 166 c 0
 347 166 376 122 376 79 c 0
 376 37 348 -5 292 -5 c 0
 223 -5 203 51 203 106 c 2xfd80
 203 883 l 2
 203 905 192 919 175 919 c 0
 154 919 144 900 144 883 c 2
 144 730 l 2
 144 688 123 654 71 654 c 0
 12.9292 654 -9 696.711 -9 734 c 2
 -9 913 l 2xfe80
292 35 m 0
 324 35 340 58 340 81 c 0
 340 104 324 127 292 127 c 0
 261 127 246 104 246 81 c 0xfd80
 246 58 261 35 292 35 c 0
EndSplineSet
EndChar

StartChar: uni0E45
Encoding: 229 3653 194
Width: 304
Flags: W
HStem: 496 43<-104 -61> 555 44<-53.4153 89.1689>
VStem: 123 80<-180 522.219>
LayerCount: 2
Fore
SplineSet
203 -180 m 1
 151 -238 l 2
 148 -241 141 -244 136 -244 c 0
 129 -244 123 -238 123 -217 c 2
 123 456 l 2
 123 512 89 555 28 555 c 0
 -40 555 -89 513 -104 496 c 1
 -104 539 l 1
 -86 559 -40 599 38 599 c 0
 143 599 203 555 203 461 c 2
 203 -180 l 1
EndSplineSet
EndChar

StartChar: uni0E46
Encoding: 230 3654 195
Width: 703
Flags: W
HStem: 263 32<305.348 373.2> 382 34<304.151 374.4> 455 21G<384.841 427.159> 578 20G<298 353.857 458.437 525>
VStem: 229 52<399.309 495.037> 383 33<304.117 373.147> 516 77<-177 517.319>
LayerCount: 2
Fore
SplineSet
593 -177 m 1
 544 -235 l 2
 541 -238 534 -241 529 -241 c 0
 522 -241 516 -235 516 -214 c 2
 516 464 l 2
 516 504 502 518 479 524 c 1
 406 455 l 1
 333 524 l 1
 295 503 281 453 281 419 c 0
 281 411 282 404 283 399 c 1
 283 399 310 416 339 416 c 0
 390 415 416 376 416 339 c 0
 416 301 390 263 339 263 c 0
 252 263 229 350 229 424 c 0
 229 479 263 565 333 598 c 1
 406 528 l 1
 479 599 l 1
 571 598 593 527 593 464 c 2
 593 -177 l 1
339 295 m 0
 368 295 383 317 383 338 c 0
 383 360 368 382 339 382 c 0
 310 382 296 360 296 338 c 0
 296 317 310 295 339 295 c 0
EndSplineSet
EndChar

StartChar: uni0E47
Encoding: 231 3655 196
Width: 0
Flags: W
HStem: 668 44<-209.49 -135.363> 757 57<-384.636 -306.641> 795 39<-208.986 -137.231> 886 52<-349.514 -166.325> 898 49<-411.326 -231.647>
VStem: -490 59<762.268 878.948> -250 35<739.098 786.959> -153 78<951.73 1028> -131 39<717.977 788.766>
AnchorPoint: "AboveBase" -131 645 mark 0
LayerCount: 2
Fore
SplineSet
-347 947 m 0xce80
 -299 947 -263 938 -227 938 c 0
 -179 938 -153 954 -153 1011 c 0
 -153 1016 -154 1022 -154 1028 c 1
 -75 1028 l 17
 -75 937 -125 886 -232 886 c 0x97
 -288 886 -319 898 -356 898 c 0
 -416 898 -431 855 -431 817 c 0
 -431 793 -423 771 -416 762 c 1
 -416 762 -415 814 -355 814 c 0xcf
 -293 814 -275 753 -246 739 c 1
 -246 739 -250 748 -250 756 c 0
 -250 808 -211 834 -172 834 c 0xa7
 -132 834 -92 807 -92 753 c 0
 -92 697 -136 668 -170 668 c 0
 -285 668 -295 757 -350 757 c 0
 -380 757 -391 730 -391 705 c 0
 -391 689 -387 675 -381 668 c 1
 -421 668 l 1
 -458 698 -490 756 -490 819 c 0
 -490 922 -424 947 -347 947 c 0xce80
-131 753 m 0xa680
 -131 781 -152 795 -173 795 c 0
 -194 795 -215 781 -215 753 c 0
 -215 726 -194 712 -173 712 c 0
 -152 712 -131 726 -131 753 c 0xa680
EndSplineSet
Substitution2: "Thai Mark High Variant" uni0E47.high
Substitution2: "Thai Phinthu Maitaikhu Reordering" uni0E3A
EndChar

StartChar: uni0E48
Encoding: 232 3656 197
Width: 0
Flags: W
VStem: -166 54<1009 1126.25>
AnchorPoint: "AboveMark" -139.776 967.68 mark 0
LayerCount: 2
Fore
SplineSet
-100 1210 m 1
 -112 1009 l 1
 -166 1009 l 1
 -178 1210 l 1
 -100 1210 l 1
EndSplineSet
MultipleSubs2: "Thai Tone Nikhahit Attachment" uni0E4D uni0E48
Substitution2: "Thai Tone Low Variant" uni0E48.low
Substitution2: "Thai Sara U Mai Ek Reordering" uni0E38
Substitution2: "Thai Sara UU Mai Ek Reordering" uni0E39
Substitution2: "Thai Phinthu Mai Ek Reordering" uni0E3A
EndChar

StartChar: uni0E49
Encoding: 233 3657 198
Width: 0
Flags: W
HStem: 1063 37<-234.143 -181.337> 1184 34<-233.852 -163.254>
VStem: -277 35<1108.48 1175.51> -155 38<1106.51 1177.37> 54 80<1140.07 1213>
AnchorPoint: "AboveMark" -55 968 mark 0
LayerCount: 2
Fore
SplineSet
-117 1143 m 0
 -117 1067 -156 1027 -167 1017 c 1
 -74 1025 49 1087 54 1213 c 1
 134 1213 l 17
 115 1060 -25 973 -180 973 c 0
 -201 973 -222 975 -243 978 c 1
 -243 1008 l 1
 -233 1011 -195 1032 -181 1066 c 1
 -181 1066 -187 1063 -197 1063 c 0
 -250 1063 -277 1102 -277 1140 c 0
 -277 1179 -250 1218 -197 1218 c 0
 -144 1218 -117 1180 -117 1143 c 0
-197 1100 m 0
 -169 1100 -155 1121 -155 1142 c 0
 -155 1163 -169 1184 -197 1184 c 0
 -227 1184 -242 1163 -242 1142 c 0
 -242 1121 -227 1100 -197 1100 c 0
EndSplineSet
MultipleSubs2: "Thai Tone Nikhahit Attachment" uni0E4D uni0E49
Substitution2: "Thai Tone Low Variant" uni0E49.low
Substitution2: "Thai Sara U Mai Tho Reordering" uni0E38
Substitution2: "Thai Sara UU Mai Tho Reordering" uni0E39
Substitution2: "Thai Phinthu Mai Tho Reordering" uni0E3A
EndChar

StartChar: uni0E4A
Encoding: 234 3658 199
Width: 0
Flags: W
HStem: 989 29<-213.923 -153.557 -69 -53.089> 1093 30<-213.887 -153.093> 1172 54<-222.73 -181>
VStem: -283 42<1091.6 1153.56> -146 31<1025.15 1086.11> -30 48<1041.92 1159.79> 63 59<1106.39 1229>
AnchorPoint: "AboveMark" -108 968 mark 0
LayerCount: 2
Fore
SplineSet
121 1229 m 17
 121 1222 122 1216 122 1210 c 0
 122 1083 46 1008 -69 992 c 1
 -69 1017 l 1
 -43 1033 -30 1067 -30 1098 c 0
 -30 1132 -45 1165 -71 1172 c 1
 -127 1134 l 1
 -181 1172 l 1
 -215 1172 -241 1136 -241 1101 c 0
 -241 1098 -241 1094 -240 1091 c 1
 -240 1091 -230 1123 -181 1123 c 0
 -143 1123 -115 1092 -115 1060 c 0
 -115 1020 -138 989 -181 989 c 0
 -244 989 -283 1043 -283 1115 c 0
 -283 1166 -233 1226 -181 1226 c 1
 -126 1180 l 1
 -72 1224 l 1
 -2 1206 18 1162 18 1120 c 0
 18 1093 10 1068 2 1051 c 1
 44 1079 63 1125 63 1176 c 0
 63 1193 61 1211 57 1229 c 1
 121 1229 l 17
-146 1055 m 0
 -146 1080 -165 1093 -184 1093 c 0
 -202 1093 -221 1080 -221 1055 c 0
 -221 1030 -202 1018 -184 1018 c 0
 -165 1018 -146 1030 -146 1055 c 0
EndSplineSet
MultipleSubs2: "Thai Tone Nikhahit Attachment" uni0E4D uni0E4A
Substitution2: "Thai Tone Low Variant" uni0E4A.low
Substitution2: "Thai Sara U Mai Tri Reordering" uni0E38
Substitution2: "Thai Sara UU Mai Tri Reordering" uni0E39
Substitution2: "Thai Phinthu Mai Tri Reordering" uni0E3A
EndChar

StartChar: uni0E4B
Encoding: 235 3659 200
Width: 0
Flags: W
HStem: 1081 57<-281 -175 -112 -9>
VStem: -174 60<992 1080 1140 1229>
AnchorPoint: "AboveMark" -145.92 967.68 mark 0
LayerCount: 2
Fore
SplineSet
-9 1081 m 1
 -114 1080 l 1
 -115 992 l 1
 -172 992 l 1
 -174 1080 l 1
 -281 1081 l 1
 -281 1138 l 1
 -175 1140 l 1
 -177 1229 l 1
 -111 1229 l 1
 -112 1140 l 1
 -9 1138 l 1
 -9 1081 l 1
EndSplineSet
MultipleSubs2: "Thai Tone Nikhahit Attachment" uni0E4D uni0E4B
Substitution2: "Thai Tone Low Variant" uni0E4B.low
Substitution2: "Thai Sara U Mai Chattawa Reordering" uni0E38
Substitution2: "Thai Sara UU Mai Chattawa Reordering" uni0E39
Substitution2: "Thai Phinthu Mai Chattawa Reordering" uni0E3A
EndChar

StartChar: uni0E4C
Encoding: 236 3660 201
Width: 0
Flags: W
HStem: 902 29<-202.315 -138.078>
VStem: -247 35<938.565 1006.44> -128 33<939.023 1005.92> -15 61<1129.85 1146.33>
AnchorPoint: "AboveMark" -170.496 890.88 mark 0
LayerCount: 2
Fore
SplineSet
46 1143 m 17
 18 1064 -78 1048 -135 1038 c 1
 -108 1026 -95 1001 -95 976 c 0
 -95 939 -121 902 -169 902 c 0
 -218 902 -247 932 -247 975 c 0
 -247 1035 -198 1069 -127 1081 c 0
 -101 1086 -18 1118 -15 1172 c 1
 46 1143 l 17
-170 931 m 0
 -142 931 -128 952 -128 972 c 0
 -128 993 -142 1014 -170 1014 c 0
 -198 1014 -212 993 -212 972 c 0
 -212 952 -198 931 -170 931 c 0
EndSplineSet
MultipleSubs2: "Thai Tone Nikhahit Attachment" uni0E4D uni0E4C
Substitution2: "Thai Tone Low Variant" uni0E4C.low
Substitution2: "Thai Sara U Thanthakhat Reordering" uni0E38
Substitution2: "Thai Sara UU Thanthakhat Reordering" uni0E39
Substitution2: "Thai Phinthu Thanthakhat Reordering" uni0E3A
EndChar

StartChar: uni0E4D
Encoding: 237 3661 202
Width: 0
Flags: W
HStem: 668 43<-181.42 -101.469> 813 46<-182.912 -101.11>
VStem: -237 45<720.46 803.313> -91 45<720.46 803.313>
AnchorPoint: "AboveMark" -141 968 basemark 0
AnchorPoint: "AboveBase" -106 645 mark 0
LayerCount: 2
Fore
SplineSet
-141 668 m 0
 -205 668 -237 716 -237 764 c 0
 -237 811 -205 859 -141 859 c 0
 -78 859 -46 811 -46 764 c 0
 -46 716 -78 668 -141 668 c 0
-91 762 m 0
 -91 791 -114 813 -141 813 c 0
 -170 813 -192 791 -192 762 c 0
 -192 734 -170 711 -141 711 c 0
 -114 711 -91 734 -91 762 c 0
EndSplineSet
Substitution2: "Thai Mark High Variant" uni0E4D.high
Substitution2: "Thai Sara U Nikhahit Reordering" uni0E38
Substitution2: "Thai Sara UU Nikhahit Reordering" uni0E39
Substitution2: "Thai Phinthu Nikhahit Reordering" uni0E3A
EndChar

StartChar: uni0E4E
Encoding: 238 3662 203
Width: 0
Flags: W
HStem: 792 47<-180.715 -85.4541> 889 45<-15.9347 87.4188>
VStem: -261 69<675.099 780.753> -74 49<807.402 880.301>
AnchorPoint: "AboveBase" -106 645 mark 0
LayerCount: 2
Fore
SplineSet
95 863 m 0
 91 863 62 889 27 889 c 0
 -6 889 -25 865 -25 839 c 0
 -25 825 -17 811 -17 804 c 0
 -17 796 -52 762 -71 762 c 0
 -82 762 -99 792 -137 792 c 0
 -168 792 -192 769 -192 738 c 0
 -192 709 -173 693 -173 685 c 0
 -173 683 -174 681 -175 680 c 0
 -185 674 -217 651 -222 651 c 0
 -234 651 -261 688 -261 728 c 0
 -261 787 -208 839 -147 839 c 0
 -120 839 -92 829 -66 806 c 1
 -65 808 l 1
 -71 822 -74 835 -74 848 c 0
 -74 898 -27 934 29 934 c 0
 76 934 120 904 120 894 c 0
 120 890 110 863 95 863 c 0
EndSplineSet
EndChar

StartChar: uni0E4F
Encoding: 239 3663 204
Width: 737
Flags: W
HStem: -2 54<267.592 468.213> 164 43<327.007 411.055> 382 47<324.329 413.659> 539 55<267.592 468.213>
VStem: 23 101<196.214 396.099> 233 73<225.742 364.646> 432 70<227.113 363.239> 611 102<196.214 396.099>
LayerCount: 2
Fore
SplineSet
713 296 m 0
 713 101 530 -2 369 -2 c 0
 203 -2 23 101 23 296 c 0
 23 492 203 594 369 594 c 0
 530 594 713 492 713 296 c 0
611 296 m 0
 611 430 502 539 369 539 c 0
 232 539 124 430 124 296 c 0
 124 163 232 52 369 52 c 0
 502 52 611 163 611 296 c 0
502 296 m 0
 502 218 439 164 369 164 c 0
 293 164 233 218 233 296 c 0
 233 376 293 429 369 429 c 0
 439 429 502 376 502 296 c 0
432 296 m 0
 432 341 413 382 369 382 c 0
 324 382 306 341 306 296 c 0
 306 252 324 207 369 207 c 0
 413 207 432 252 432 296 c 0
EndSplineSet
EndChar

StartChar: uni0E50
Encoding: 240 3664 205
Width: 645
Flags: W
HStem: -8 45<235.254 406.389> 430 45<234.153 406.825>
VStem: 52 80<144.871 325.287> 508 80<144.641 324.117>
LayerCount: 2
Fore
SplineSet
588 232 m 0
 588 92 468 -8 323 -8 c 0
 172 -8 52 89 52 233 c 0
 52 373 172 475 323 475 c 0
 468 475 588 373 588 232 c 0
508 233 m 0
 508 336 432 430 323 430 c 0
 210 430 132 341 132 232 c 0
 132 126 215 37 323 37 c 0
 430 37 508 132 508 233 c 0
EndSplineSet
EndChar

StartChar: uni0E51
Encoding: 241 3665 206
Width: 645
Flags: W
HStem: 95 46<267.691 341.492> 224 45<267.392 341.538> 430 45<229.065 410.113>
VStem: 51 80<125.905 328.044> 217 46<146.316 219.419> 346 64<108.354 218.834> 515 79<120.279 325.148>
LayerCount: 2
Fore
SplineSet
594 232 m 0
 594 104 519 0 399 -29 c 1
 366 -14 l 1
 495 32 515 146 515 233 c 0
 515 353 425 430 319 430 c 0
 214 430 131 352 131 232 c 0
 131 8 336 0 352 115 c 1
 352 115 341 95 301 95 c 0
 249 95 217 137 217 181 c 0
 217 230 252 269 306 269 c 0
 376 269 410 214 410 152 c 0
 410 -74 51 -65 51 232 c 0
 51 386 177 475 319 475 c 0
 459 475 594 384 594 232 c 0
346 183 m 0
 346 210 325 224 304 224 c 0
 284 224 263 210 263 183 c 0
 263 155 284 141 304 141 c 0
 325 141 346 155 346 183 c 0
EndSplineSet
EndChar

StartChar: uni0E52
Encoding: 242 3666 207
Width: 645
Flags: W
HStem: 0 45<146.475 508.478> 83 43<250.926 325.149> 209 44<251.012 324.879> 412 60<262.241 322.599 441.889 502.366>
VStem: 48 75<67.5762 645.675> 173 67<148.236 390.957> 330 44<131.239 203.633> 527 74<60.9585 387.891>
LayerCount: 2
Fore
SplineSet
280 472 m 0
 344 472 375 402 379 364 c 1
 384 364 l 1
 390 403 424 472 485 472 c 0
 573 472 601 352 601 232 c 0
 601 180 601 146 593 104 c 0
 582 46 570 0 472 0 c 2
 194 0 l 2
 92 0 48 54 48 126 c 2
 48 551 l 2
 48 661 33 655 33 678 c 0
 33 690 39 694 47 694 c 0
 54 694 62 691 68 687 c 1
 106 641 l 1
 106 641 123 622 123 551 c 2
 123 124 l 2
 123 74 158 45 198 45 c 2
 465 45 l 2
 505 45 516 71 521 95 c 0
 526 138 527 152 527 173 c 2
 527 233 l 2
 527 294 524 412 472 412 c 0
 442 412 415 348 409 312 c 0
 405 293 393 282 381 282 c 0
 370 282 358 292 355 313 c 0
 349 350 322 412 291 412 c 0
 261 412 240 355 240 296 c 0
 240 277 242 256 246 235 c 1
 246 235 258 253 290 253 c 0
 346 253 374 211 374 169 c 0
 374 126 345 83 290 83 c 0
 224 83 195 131 184 184 c 0
 176 221 173 256 173 287 c 0
 173 399 217 472 280 472 c 0
330 166 m 0
 330 194 309 209 288 209 c 0
 267 209 246 194 246 166 c 0
 246 139 267 126 288 126 c 0
 309 126 330 139 330 166 c 0
EndSplineSet
EndChar

StartChar: uni0E53
Encoding: 243 3667 208
Width: 645
Flags: W
HStem: -8 42<156.955 230.058> 118 45<156.239 230.058> 412 61<164.083 255.199 392.902 479.73>
VStem: 48 77<138.314 365.724> 235 43<39.7414 112.373> 303 49<170.165 350.5> 521 77<67.056 360.589>
LayerCount: 2
Fore
SplineSet
435 412 m 0
 374 412 352 306 352 238 c 2
 352 197 l 2
 352 179 340 170 328 170 c 0
 315 170 303 179 303 197 c 2
 303 237 l 2
 303 339 260 412 212 412 c 0
 174 412 125 375 125 255 c 0
 125 222 128 183 137 137 c 1
 137 137 157 163 194 163 c 0
 244 163 278 123 278 77 c 0
 278 31 244 -8 194 -8 c 0
 135 -8 94 32 75 86 c 0
 59 132 48 191 48 249 c 0
 48 363 90 473 210 473 c 0
 290 473 324 370 324 370 c 1
 326 370 l 1
 350 450 392 473 441 473 c 0
 549 473 598 376 598 240 c 0
 598 171 585 92 562 11 c 1
 519 0 l 2
 514 -1 509 -2 504 -2 c 0
 497 -2 490 1 490 12 c 0
 490 28 521 123 521 237 c 0
 521 352 485 412 435 412 c 0
235 75 m 0
 235 104 214 118 193 118 c 0
 172 118 151 104 151 75 c 0
 151 48 172 34 193 34 c 0
 214 34 235 48 235 75 c 0
EndSplineSet
EndChar

StartChar: uni0E54
Encoding: 244 3668 209
Width: 645
Flags: W
HStem: -5 49<212.345 386.945> 3 45<279.548 395.983 447.768 582> 169 45<330.832 404.554> 298 46<330.885 404.88> 424 48<219.45 449.774>
VStem: 55 80<130.705 333.771> 258 68<150.049 184 184.526 292.188> 410 45<218.892 292.8> 533 80<566.511 673.125>
LayerCount: 2
Fore
SplineSet
410 257 m 0x3f80
 410 284 389 298 368 298 c 0
 347 298 326 284 326 257 c 0
 326 228 347 214 368 214 c 0
 389 214 410 228 410 257 c 0x3f80
363 344 m 0
 417 344 455 309 455 252 c 0
 455 204 414 169 371 169 c 0
 356 169 340 174 326 184 c 1
 326 147 438 45 548 45 c 0
 556 45 586 49 590 49 c 0
 600 49 602 45 602 40 c 0
 602 35 599 29 599 29 c 1
 582 0 l 1
 466 0 408 3 389 3 c 0x7f80
 345 3 311 -5 278 -5 c 0
 167 -5 55 83 55 243 c 0
 55 398 170 472 292 472 c 0
 330 472 339 468 367 468 c 0
 461 468 533 536 533 690 c 1
 602 670 l 2
 608 668 613 665 613 653 c 0
 613 601 578 421 373 421 c 0
 355 421 323 424 304 424 c 0
 184 424 137 329 135 243 c 0
 135 139 177 44 294 44 c 0xbf80
 320 44 330 48 350 48 c 0x7f80
 372 48 396 45 396 45 c 1
 332 69 258 140 258 235 c 0
 258 305 310 344 363 344 c 0
EndSplineSet
EndChar

StartChar: uni0E55
Encoding: 245 3669 210
Width: 645
Flags: W
HStem: -5 49<212.345 386.945> 3 45<279.548 397.981 447.768 582> 169 45<330.832 404.554> 298 46<330.885 404.88> 422 46<296.472 389.385> 567 44<297.092 389.382>
VStem: 55 80<130.705 333.574> 238 46<469.968 554.225> 258 68<149.761 184 184.382 292.188> 402 48<485.182 553.79> 410 45<218.892 292.8> 531 82<562.746 672.812>
LayerCount: 2
Fore
SplineSet
410 257 m 0x3eb0
 410 284 389 298 368 298 c 0
 347 298 326 284 326 257 c 0
 326 228 347 214 368 214 c 0
 389 214 410 228 410 257 c 0x3eb0
402 507 m 0x3f50
 402 547 372 567 343 567 c 0
 314 567 284 547 284 507 c 0
 284 488 290 478 296 470 c 1
 306 469 321 468 336 468 c 0
 356 468 377 469 390 472 c 1
 398 481 402 492 402 507 c 0x3f50
389 3 m 0x7eb0
 345 3 311 -5 278 -5 c 0
 167 -5 55 83 55 243 c 0
 55 390 158 456 249 468 c 1
 243 479 238 492 238 505 c 0
 238 570 284 611 344 611 c 0
 407 611 450 568 450 505 c 0
 450 496 449 490 444 485 c 1
 482.591 510.727 531 548 531 690 c 1
 602 670 l 2
 608 668 613 665 613 653 c 0
 613 592 568 422 381 421 c 0
 361 421 323 422 304 422 c 0
 184 422 137 329 135 243 c 0
 135 139 177 44 294 44 c 0xbf50
 320 44 330 48 350 48 c 0
 372 48 398 43 398 43 c 1
 335 68 258 140 258 235 c 0
 258 305 310 344 363 344 c 0
 417 344 455 309 455 252 c 0
 455 204 414 169 371 169 c 0
 356 169 340 174 326 184 c 1
 326 147 438 45 548 45 c 0
 556 45 586 49 590 49 c 0
 600 49 602 45 602 40 c 0
 602 35 599 29 599 29 c 1
 582 0 l 1
 466 0 408 3 389 3 c 0x7eb0
EndSplineSet
EndChar

StartChar: uni0E56
Encoding: 246 3670 211
Width: 645
Flags: W
HStem: -8 45<215.333 401.139> 104 45<156.016 229.173> 233 47<155.129 230.138> 430 45<191.928 395.291>
VStem: 79 72<121.063 227.788> 117 67<453 587.482> 235 43<154.238 228.293> 502 80<140.304 322.668>
LayerCount: 2
Fore
SplineSet
51 683 m 0xf7
 51 687 54 691 61 691 c 2
 138 691 l 1
 153 666 184 581 184 482 c 0xf7
 184 473 184 463 183 453 c 1
 212 468 263 475 306 475 c 0
 462 475 582 381 582 230 c 0
 582 94 492 -8 310 -8 c 0
 148 -8 79 83 79 163 c 0xfb
 79 225 121 280 192 280 c 0
 244 280 278 238 278 190 c 0
 278 146 249 104 194 104 c 0
 166 104 154 120 154 120 c 1
 163 72 238 37 310 37 c 0
 421 37 502 118 502 230 c 0
 502 349 413 430 306 430 c 0
 212 430 161 391 150 391 c 0
 136 391 117 401 117 430 c 0
 117 620 51 660 51 683 c 0xf7
235 192 m 0
 235 220 214 233 193 233 c 0
 172 233 151 220 151 192 c 0xfb
 151 164 172 149 193 149 c 0
 214 149 235 164 235 192 c 0
EndSplineSet
EndChar

StartChar: uni0E57
Encoding: 247 3671 212
Width: 645
Flags: W
HStem: -8 42<137.087 208.279> 118 45<135.938 208.819> 418 54<134.063 212.121 333.289 411.089>
VStem: 30 72<139.783 379.835> 214 44<39.2148 112.786> 249 47<248.105 359.242> 441 64<124.296 384.001> 565 61<214.145 556.232>
LayerCount: 2
Fore
SplineSet
567 699 m 0xfb
 591 699 626 548 626 411 c 0
 626 186 549 -5 433 -5 c 0
 418 -5 401 -1 401 16 c 0
 401 35 441 154 441 270 c 0
 441 381 404 418 375 418 c 0
 328 418 296 349 296 275 c 0
 294 257 283 248 272 248 c 0
 261 248 251 257 249 275 c 0xf7
 249 331 224 418 172 418 c 0
 146 418 102 388 102 269 c 0
 102 234 106 190 115 138 c 1
 115 138 137 163 175 163 c 0
 224 163 258 124 258 78 c 0
 258 32 226 -8 175 -8 c 0
 109 -8 71 38 55 94 c 0
 39 151 30 207 30 258 c 0
 30 428 117 472 175 472 c 0
 216 472 260 426 270 362 c 1
 275 362 l 1
 283 426 332 472 374 472 c 0
 426 472 505 429 505 275 c 0
 505 211 491 135 461 52 c 1
 461 52 496 68 513 109 c 0
 545 184 565 279 565 379 c 0
 565 466 550 556 515 641 c 1
 551 687 l 2
 556 694 561 699 567 699 c 0xfb
214 75 m 0xfb
 214 104 193 118 172 118 c 0
 152 118 131 104 131 75 c 0
 131 48 152 34 172 34 c 0
 193 34 214 48 214 75 c 0xfb
EndSplineSet
EndChar

StartChar: uni0E58
Encoding: 248 3672 213
Width: 645
Flags: W
HStem: -3 51<381.952 490.305> 161 45<462.927 526.422> 289 47<463.26 534.524> 424 49<208.923 442.367>
VStem: 41 80<130.039 335.41> 409 49<210.517 284.425> 518 83<562.783 670.75> 541 58<163.243 283.95>
LayerCount: 2
Fore
SplineSet
499 336 m 0xfe
 603 336 599 233 599 208 c 0xfd
 599 62 523 -3 455 -3 c 0
 401 -3 303 6 284 152 c 1
 260 134 241 48 235 -6 c 1
 162 -6 41 75 41 241 c 0
 41 382 139 473 275 473 c 0
 304 473 341 468 364 468 c 0
 426 468 518 508 518 690 c 1
 588 668 l 1
 595 667 601 663 601 651 c 0
 601 583 540 421 381 421 c 0
 352 421 327 424 303 424 c 0
 177 424 121 338 121 241 c 0
 121 160 143 95 197 61 c 1
 197 61 214 192 286 220 c 1
 329 214 l 1
 329 101 384 48 437 48 c 0
 482 48 526 89 527 166 c 1
 515 162 504 161 494 161 c 0
 439 161 409 207 409 246 c 0
 409 303 449 336 499 336 c 0xfe
541 247 m 0
 541 272 522 289 499 289 c 0
 475 289 458 272 458 247 c 0
 458 223 475 206 499 206 c 0
 522 206 541 223 541 247 c 0
EndSplineSet
EndChar

StartChar: uni0E59
Encoding: 249 3673 214
Width: 645
Flags: W
HStem: -9 41<206.334 273.818> 115 45<203.095 275.181> 346 60<466.111 539.064> 413 54<136.87 238.949 364.04 429.158>
VStem: 42 70<203.182 387.368> 281 43<38.4304 108.877> 561 78<438.672 666.002>
LayerCount: 2
Fore
SplineSet
281 74 m 0
 281 97 261 115 240 115 c 0
 217 115 198 97 198 74 c 0
 198 51 217 32 240 32 c 0
 261 32 281 51 281 74 c 0
510 346 m 0
 439 346 435 413 392 413 c 0
 370 413 361 395 361 374 c 0
 361 370 361 366 362 362 c 1
 420 292 533 40 533 40 c 2
 537 33 538 27 538 21 c 0
 538 3 522 -8 504 -8 c 0
 452 -8 461 48 332 275 c 0
 280 363 232 412 186 412 c 0
 160 412 112 399 112 313 c 0
 112 251 136 173 177 124 c 1
 177 124 195 160 241 160 c 0
 290 160 324 123 324 74 c 0
 324 31 287 -9 240 -9 c 0
 125 -9 42 160 42 285 c 0
 42 372 82 465 192 465 c 0
 230 465 275 452 318 407 c 1
 318 439 351 467 388 467 c 0
 461 467 461 406 505 406 c 0
 539 406 561 452 561 541 c 0
 561 581 557 630 547 687 c 1
 628 664 l 1
 636 664 637 659 637 650 c 0
 638 630 639 612 639 594 c 0
 639 430 593 346 510 346 c 0
EndSplineSet
EndChar

StartChar: uni0E5A
Encoding: 250 3674 215
Width: 731
Flags: W
HStem: 0 21G<347 425 539 617> 414 51<83.1112 289.232> 560 38<82.6409 156.671>
VStem: 31 43<475.591 553.344> 165 41<475.717 553.036> 347 78<0 469 522.875 595> 539 78<0 595>
LayerCount: 2
Fore
SplineSet
117 598 m 0
 188 598 206 541 206 515 c 0
 206 486 190 466 190 466 c 1
 196 466 201 465 207 465 c 0
 336 465 347 576 347 595 c 1
 425 595 l 1
 425 0 l 1
 347 0 l 1
 347 469 l 1
 305 428 247 414 193 414 c 0
 125 414 31 434 31 515 c 0
 31 558 64 598 117 598 c 0
120 469 m 0
 150 469 165 492 165 514 c 0
 165 537 150 560 120 560 c 0
 89 560 74 537 74 514 c 0
 74 492 89 469 120 469 c 0
539 595 m 1
 617 595 l 1
 617 0 l 1
 539 0 l 1
 539 595 l 1
EndSplineSet
EndChar

StartChar: uni0E5B
Encoding: 251 3675 216
Width: 1474
Flags: W
HStem: 48 40<282.375 443.61> 157 41<972 987.475> 191 33<1130 1148.45> 210 42<321.349 416.73> 275 32<316 338.06 1265.66 1293.7> 332 29<1320.01 1448> 346 30<1203.46 1233.48> 401 26<296.65 334.949> 435 44<1052 1071.61> 473 51<871 892.422> 530 59<633 648.567> 574 47<245.363 389.667>
VStem: 57 92<231.679 455.304> 235 52<308.442 399.591> 343 52<307.159 400.339> 458 73<305.413 496.819> 597 75<274.803 487.328> 733 54<149.102 360.329> 837 58<241.692 467.493> 943 45<183.789 390.854> 1021 50<243.657 451.316> 1105 46<213.311 392.233> 1174 34<253.97 345.22>
LayerCount: 2
Fore
SplineSet
672 352 m 0xc96ffe
 672 182 539 48 361 48 c 0
 200 48 57 165 57 338 c 0
 57 530 177 621 304 621 c 0
 389 621 531 580 531 392 c 0
 531 309 468 210 369 210 c 0
 293 210 235 263 235 347 c 0
 235 395 270 427 316 427 c 0
 361 427 395 396 395 349 c 0
 395 298 353 280 333 280 c 2
 316 281 l 1
 324 264 336 252 370 252 c 0
 413 252 458 303 458 390 c 0
 458 538 374 574 318 574 c 0x991ffe
 226 574 149 478 149 336 c 0
 149 203 247 88 361 88 c 0
 502 88 597 230 597 423 c 0
 597 518 577 555 577 569 c 0
 577 583 590 589 602 589 c 0
 627 589 787 511 787 293 c 0
 787 251 781 209 771 167 c 1
 776 167 l 1
 814 202 837 301 837 400 c 0
 837 459 828 506 828 508 c 0
 828 514 829 524 842 524 c 0
 859 524 882 509 885 508 c 0
 966 471 988 392 988 318 c 0
 988 273 980 230 972 198 c 1
 975 198 l 1xc96ffe
 1009 236 1021 325 1021 397 c 0
 1021 454 1016 461 1016 469 c 0
 1016 473 1018 479 1028 479 c 0
 1046 479 1063 465 1063 465 c 2
 1126 434 1151 381 1151 323 c 0
 1151 291 1143 257 1130 224 c 1
 1134 224 l 1
 1157 237 1172 283 1174 329 c 0
 1175 361 1196 376 1218 376 c 0xab8ffe
 1240 376 1262 361 1264 330 c 0
 1266 315 1272 307 1279 307 c 0
 1286 307 1293 315 1295 329 c 0
 1300 357 1312 361 1332 361 c 2
 1347 361 l 1
 1448 358 l 1
 1448 335 l 1
 1346 332 l 2x8d0ffe
 1330 332 1322 330 1319 315 c 0
 1314 289 1296 275 1278 275 c 0
 1258 275 1238 291 1235 323 c 0
 1234 339 1226 346 1218 346 c 0
 1210 346 1203 340 1203 331 c 0
 1203 326 1208 313 1208 294 c 0
 1208 215 1135 191 1112 191 c 0
 1104 191 1095 193 1095 201 c 0
 1095 202 1105 240 1105 286 c 0
 1105 341 1091 396 1055 435 c 1
 1052 435 l 1xab8ffe
 1064 414 1071 380 1071 342 c 0
 1071 208 990 157 948 157 c 0
 939 157 937 163 937 168 c 0
 937 169 943 201 943 244 c 0
 943 336 919 437 874 473 c 1
 871 473 l 1
 885 443 895 398 895 350 c 0
 895 263 864 164 774 123 c 2
 751 115 l 1
 750 115 748 114 747 114 c 0
 738 114 730 121 730 129 c 0
 730 134 733 139 733 180 c 0
 733 271 713 439 636 530 c 1
 633 530 l 1
 658 481 672 414 672 352 c 0xc96ffe
343 349 m 0
 343 369 339 401 316 401 c 0
 295 401 287 372 287 349 c 0
 287 326 296 306 315 306 c 0
 333 306 343 324 343 349 c 0
EndSplineSet
EndChar

StartChar: uni0E38.low
Encoding: 252 63256 217
Width: 0
Flags: W
HStem: -378 31<-211.609 -155.446> -275 29<-210.768 -154.791>
VStem: -250 32<-341.655 -280.652> -155 72<-492 -372> -147 64<-344.604 -278.861>
LayerCount: 2
Fore
SplineSet
-250 -312 m 0xf0
 -250 -280 -233 -246 -173 -246 c 0
 -118 -246 -83 -278 -83 -323 c 2xe8
 -83 -492 l 1
 -155 -492 l 1
 -155 -372 l 1
 -158 -372 -167 -378 -183 -378 c 0
 -226 -378 -250 -344 -250 -312 c 0xf0
-183 -347 m 0
 -159 -347 -147 -329 -147 -311 c 0
 -147 -293 -159 -275 -183 -275 c 0
 -206 -275 -218 -293 -218 -311 c 0
 -218 -329 -206 -347 -183 -347 c 0
EndSplineSet
EndChar

StartChar: uni0E39.low
Encoding: 253 63257 218
Width: 0
Flags: W
HStem: -493 29<-206.949 -157.501> -367 26<-311.579 -260.098> -273 27<-313.357 -258.688>
VStem: -347 26<-332.128 -281.117> -255 43<-461.239 -361 -339.319 -274.424> -152 69<-462.999 -250>
LayerCount: 2
Fore
SplineSet
-83 -409 m 2
 -83 -453 -112 -493 -166 -493 c 0
 -220 -493 -255 -464 -255 -421 c 2
 -255 -361 l 1
 -260 -362 -266 -367 -283 -367 c 0
 -326 -367 -347 -336 -347 -306 c 0
 -347 -276 -327 -246 -283 -246 c 0
 -230 -246 -212 -278 -212 -323 c 2
 -212 -432 l 2
 -212 -449 -200 -464 -181 -464 c 0
 -163 -464 -152 -449 -152 -432 c 2
 -152 -250 l 1
 -83 -250 l 1
 -83 -409 l 2
-252 -307 m 0
 -252 -287 -267 -273 -286 -273 c 0
 -304 -273 -321 -287 -321 -307 c 0
 -321 -324 -304 -341 -286 -341 c 0
 -267 -341 -252 -324 -252 -307 c 0
EndSplineSet
EndChar

StartChar: uni0E3A.low
Encoding: 254 63258 219
Width: 0
Flags: W
HStem: -318 85<-161.037 -87.6896>
VStem: -166 83<-313.484 -237.538>
LayerCount: 2
Fore
SplineSet
-124 -318 m 0
 -152 -318 -166 -297 -166 -276 c 0
 -166 -254 -152 -233 -124 -233 c 0
 -96 -233 -83 -254 -83 -276 c 0
 -83 -297 -96 -318 -124 -318 c 0
EndSplineSet
EndChar

StartChar: Encoding:
Encoding: 0 -1 220
Width: 384
Flags: W
HStem: 0 23<23 361> 568 23<23 361>
VStem: 0 23<23 568> 361 23<23 568>
LayerCount: 2
Fore
SplineSet
23 568 m 1
 23 23 l 1
 361 23 l 1
 361 568 l 1
 23 568 l 1
384 0 m 1
 0 0 l 1
 0 591 l 1
 384 591 l 1
 384 0 l 1
EndSplineSet
EndChar

StartChar: multiply
Encoding: 256 215 221
Width: 619
Flags: W
DStem2: 91 117 138 69 0.706191 0.708021<0 239.62 306.882 545.8> 138 502 92 456 0.706194 -0.708019<0.0839386 239.794 307.676 547.3>
LayerCount: 2
Fore
SplineSet
525 115 m 1
 479 68 l 1
 309 238 l 1
 138 69 l 1
 91 117 l 1
 261 286 l 1
 92 456 l 1
 138 502 l 1
 309 333 l 1
 478 502 l 1
 524 456 l 1
 356 286 l 1
 525 115 l 1
EndSplineSet
EndChar

StartChar: divide
Encoding: 257 247 222
Width: 546
Flags: W
HStem: 14 104<231.695 316.425> 224 57<32 515> 387 106<232.004 316.425>
VStem: 221 105<23.5153 107.648 397.695 482.808>
LayerCount: 2
Fore
SplineSet
326 439 m 0
 326 409 303 387 273 387 c 0
 244 387 221 413 221 439 c 0
 221 468 243 493 273 493 c 0
 303 493 326 472 326 439 c 0
515 224 m 1
 32 224 l 1
 32 281 l 1
 515 281 l 1
 515 224 l 1
326 66 m 0
 326 34 303 14 273 14 c 0
 244 14 221 37 221 66 c 0
 221 92 243 118 273 118 c 0
 303 118 326 95 326 66 c 0
EndSplineSet
EndChar

StartChar: registered
Encoding: 258 174 223
Width: 735
Flags: W
HStem: -11 42<270.471 468.329> 154 13<221 257.235 326.951 362 522.043 541> 315 20<323 378.193> 492 13<223 258.757 328.794 395.179> 611 42<270.471 468.329>
VStem: 45 46<216.267 427.23> 263 60<168.049 315 335 491.237> 439 60<362.919 472.78> 647 46<216.267 427.23>
LayerCount: 2
Fore
SplineSet
693 323 m 0
 693 138 548 -11 370 -11 c 0
 189 -11 45 138 45 323 c 0
 45 504 189 653 370 653 c 0
 548 653 693 504 693 323 c 0
647 323 m 0
 647 476 521 611 370 611 c 0
 217 611 91 476 91 323 c 0
 91 164 217 31 370 31 c 0
 521 31 647 164 647 323 c 0
541 154 m 1
 479 154 l 2
 452 154 438 194 421 230 c 0
 382 306 395 315 323 315 c 1
 323 198 l 2
 323 175 324 167 349 167 c 2
 362 167 l 1
 362 154 l 1
 221 154 l 1
 221 167 l 1
 230 167 l 2
 255 169 263 169 263 197 c 2
 263 462 l 2
 263 488 260 492 232 492 c 2
 223 492 l 1
 223 505 l 1
 381 505 l 2
 459 505 499 481 499 422 c 0
 499 369 459 336 410 329 c 1
 410 323 l 1
 449 315 465 273 481 241 c 0
 499 206 507 169 541 167 c 1
 541 154 l 1
439 415 m 0
 439 467 410 492 359 492 c 0
 324 492 323 482 323 463 c 2
 323 335 l 1
 343 332 l 1
 396 332 439 349 439 415 c 0
EndSplineSet
EndChar

StartChar: fi
Encoding: 259 64257 224
Width: 534
Flags: W
HStem: 0 15<22 63.7912 202.709 242 291 332.932 474.833 511> 417 33<21 89 173 353.466> 658 25<231.279 316.513>
VStem: 89 84<26.5223 417 450 562.537> 360 84<26.9707 411.581>
LayerCount: 2
Fore
SplineSet
398 574 m 0
 350 574 345 658 278 658 c 0
 233 658 193 628 180 584 c 0
 174 568 171 538 171 494 c 2
 171 450 l 1
 328 450 l 2
 369 450 398 453 442 460 c 1
 445 457 l 1
 444 404 444 381 444 359 c 2
 444 97 l 2
 444 34 454 21 511 15 c 1
 511 0 l 1
 291 0 l 1
 291 15 l 1
 353 21 360 29 360 97 c 2
 360 360 l 2
 360 415 354 417 259 417 c 2
 173 417 l 1
 173 88 l 2
 173 34 186 19 242 15 c 1
 242 0 l 1
 22 0 l 1
 22 15 l 1
 78 18 89 29 89 94 c 2
 89 417 l 1
 21 417 l 1
 21 450 l 1
 89 450 l 1
 95 530 107 567 136 608 c 0
 173 658 231 683 306 683 c 0
 384 683 434 655 434 614 c 0
 434 592 419 574 398 574 c 0
EndSplineSet
Ligature2: "'liga' Standard Ligatures in Latin lookup 3 subtable" f i
LCarets2: 1 0 
EndChar

StartChar: fl
Encoding: 260 64258 225
Width: 530
Flags: W
HStem: 0 15<21 62.2727 205.836 245 294 331.317 469.602 510> 417 33<21 89 173 362> 584 74<301.808 377> 656 27<206.067 271.276>
VStem: 89 84<27.6549 417 450 573.52> 362 83<27.1573 417 450 592>
LayerCount: 2
Fore
SplineSet
21 15 m 1xdc
 69 20 89 19 89 105 c 2
 89 417 l 1
 21 417 l 1
 21 450 l 1
 91 450 l 1
 95 538 105 577 135 620 c 0
 163 659 209 683 256 683 c 0xdc
 309 683 351 658 368 658 c 0xec
 386 658 424 683 441 683 c 1
 445 681 l 1
 445 81 l 2
 445 29 456 19 510 15 c 1
 510 0 l 1
 294 0 l 1
 294 15 l 1
 346 19 362 35 362 83 c 2
 362 417 l 1
 173 417 l 1
 173 79 l 2
 173 34 187 21 245 15 c 1
 245 0 l 1
 21 0 l 1
 21 15 l 1xdc
346 584 m 0xec
 286 584 294 656 239 656 c 0xdc
 195 656 173 606 173 502 c 2
 173 450 l 1
 362 450 l 1
 362 592 l 1
 356 586 353 584 346 584 c 0xec
EndSplineSet
Ligature2: "'liga' Standard Ligatures in Latin lookup 3 subtable" f l
LCarets2: 1 0 
EndChar

StartChar: ff
Encoding: 261 64256 226
Width: 588
Flags: W
HStem: 0 15<22 63.5389 202.709 242 293 334.539 473.709 513> 417 33<21 88 173 359 444 565> 633 29<221.56 316.509> 655 28<463.82 565>
VStem: 88 85<26.5223 417 450 557.516> 359 85<26.5223 417 450 559.685>
LayerCount: 2
Fore
SplineSet
598 580 m 0xdc
 552 580 553 655 499 655 c 0xdc
 461 655 442 624 442 565 c 2
 442 450 l 1
 565 450 l 1
 565 417 l 1
 444 417 l 1
 444 88 l 2
 444 34 457 19 513 15 c 1
 513 0 l 1
 293 0 l 1
 293 15 l 1
 349 18 359 29 359 94 c 2
 359 417 l 1
 173 417 l 1
 173 88 l 2
 173 34 186 19 242 15 c 1
 242 0 l 1
 22 0 l 1
 22 15 l 1
 78 18 88 29 88 94 c 2
 88 417 l 1
 21 417 l 1
 21 450 l 1
 88 450 l 1
 88 530 117 583 148 612 c 0
 180 645 214 662 305 662 c 0xec
 346 662 387 650 409 631 c 1
 438 665 483 683 535 683 c 0
 595 683 640 658 640 621 c 0
 640 598 621 580 598 580 c 0xdc
372 561 m 1
 337 573 336 633 272 633 c 0xec
 234 633 173 605 173 533 c 2
 173 450 l 1
 359 450 l 1
 359 501 363 533 372 561 c 1
EndSplineSet
Ligature2: "'liga' Standard Ligatures in Latin lookup 3 subtable" f f
LCarets2: 1 0 
EndChar

StartChar: ffi
Encoding: 262 64259 227
Width: 805
Flags: W
HStem: 0 15<22 63.5389 202.709 242 293 334.791 473.709 513 562 603.932 745.833 782> 417 33<21 88 173 360 444 624.466> 642 26<232.179 318.253> 658 25<502.168 587.513>
VStem: 88 85<26.5223 417 450 557.516> 360 84<26.5223 417 450 561.665> 631 84<26.9707 411.581>
LayerCount: 2
Fore
SplineSet
384 567 m 1xee
 349 576 341 642 275 642 c 0
 237 642 173 605 173 533 c 2
 173 450 l 1
 360 450 l 1
 365 504 371 539 384 567 c 1xee
669 574 m 0
 621 574 616 658 549 658 c 0xde
 504 658 464 628 451 584 c 0
 445 568 442 538 442 494 c 2
 442 450 l 1
 599 450 l 2
 640 450 669 453 713 460 c 1
 716 457 l 1
 715 404 715 381 715 359 c 2
 715 97 l 2
 715 34 725 21 782 15 c 1
 782 0 l 1
 562 0 l 1
 562 15 l 1
 624 21 631 29 631 97 c 2
 631 360 l 2
 631 415 625 417 530 417 c 2
 444 417 l 1
 444 88 l 2
 444 34 457 19 513 15 c 1
 513 0 l 1
 293 0 l 1
 293 15 l 1
 349 18 360 29 360 94 c 2
 360 417 l 1
 173 417 l 1
 173 88 l 2
 173 34 186 19 242 15 c 1
 242 0 l 1
 22 0 l 1
 22 15 l 1
 78 18 88 29 88 94 c 2
 88 417 l 1
 21 417 l 1
 21 450 l 1
 88 450 l 1
 88 530 117 583 148 612 c 0
 180 645 223 668 311 668 c 0xee
 359 668 398 662 428 631 c 1
 464 666 516 683 577 683 c 0xde
 655 683 705 655 705 614 c 0
 705 592 690 574 669 574 c 0
EndSplineSet
Ligature2: "'liga' Standard Ligatures in Latin lookup 3 subtable" ff i
Ligature2: "'liga' Standard Ligatures in Latin lookup 3 subtable" f f i
LCarets2: 2 0 0 
EndChar

StartChar: ffl
Encoding: 263 64260 228
Width: 799
Flags: W
HStem: 0 15<22 63.5389 202.709 242 290 330.617 475.272 514 564 600.665 738.854 779> 417 33<21 88 173 359 442 631> 584 74<571.195 645.5> 633 29<221.56 315.175> 656 27<475.122 541.995>
VStem: 88 85<26.5223 417 450 557.516> 359 83<28.0051 417 450 559.638> 631 84<27.1573 417 450 592>
LayerCount: 2
Fore
SplineSet
376 561 m 1xd7
 334 576 335 633 272 633 c 0
 234 633 173 605 173 533 c 2
 173 450 l 1
 360 450 l 1
 363 499 368 532 376 561 c 1xd7
290 15 m 1
 339 20 359 20 359 105 c 2
 359 417 l 1
 173 417 l 1
 173 88 l 2
 173 34 186 19 242 15 c 1
 242 0 l 1
 22 0 l 1
 22 15 l 1
 78 18 88 29 88 94 c 2
 88 417 l 1
 21 417 l 1
 21 450 l 1
 88 450 l 1
 88 530 117 583 148 612 c 0
 180 645 214 662 305 662 c 0
 346 662 397 655 416 633 c 1xd7
 444 666 482 683 526 683 c 0xcf
 577 683 621 658 637 658 c 0xe7
 654 658 693 683 710 683 c 1xcf
 715 681 l 1
 715 81 l 2
 715 29 725 19 779 15 c 1
 779 0 l 1
 564 0 l 1
 564 15 l 1
 615 19 631 35 631 83 c 2
 631 417 l 1
 442 417 l 1
 442 79 l 2
 442 34 457 21 514 15 c 1
 514 0 l 1
 290 0 l 1
 290 15 l 1
615 584 m 0xe7
 556 584 564 656 508 656 c 0xcf
 464 656 442 606 442 502 c 2
 442 450 l 1
 631 450 l 1
 631 592 l 1
 625 586 623 584 615 584 c 0xe7
EndSplineSet
Ligature2: "'liga' Standard Ligatures in Latin lookup 3 subtable" ff l
Ligature2: "'liga' Standard Ligatures in Latin lookup 3 subtable" f f l
LCarets2: 2 0 0 
EndChar

StartChar: zerowidthspace
Encoding: 220 8203 229
Width: 0
Flags: W
LayerCount: 2
Back
SplineSet
733 -183 m 5
 667 -183 l 5
 667 -52 l 6
 667 -17 647 0 605 0 c 6
 215 0 l 6
 181 0 164 -15 164 -48 c 6
 164 -183 l 5
 98 -183 l 5
 98 60 l 5
 733 60 l 5
 733 -183 l 5
EndSplineSet
EndChar

